<?xml version="1.0" encoding="utf-8"?>
<!-- Generator: Adobe Illustrator 23.1.0, SVG Export Plug-In . SVG Version: 6.00 Build 0)  -->
<svg version="1.1" id="Calque_1" xmlns="http://www.w3.org/2000/svg" xmlns:xlink="http://www.w3.org/1999/xlink" x="0px" y="0px"
	 viewBox="0 0 500 267.1" style="enable-background:new 0 0 500 267.1;" xml:space="preserve">
<style type="text/css">
	.st0{fill:#524C82;}
	.st1{fill:#CBC9E0;}
	.st2{fill:#463371;}
	.st3{fill:#453371;}
	.st4{fill:#20203A;}
	.st5{fill:#483573;}
	.st6{fill:#F2A136;}
	.st7{fill:#E58B48;}
	.st8{fill:#393939;}
	.st9{fill-rule:evenodd;clip-rule:evenodd;fill:#B7B7B7;}
	.st10{fill:#B7B7B7;}
	.st11{fill:#D8D8D8;}
	.st12{fill:#7B79AA;}
	.st13{fill:#0F1417;}
	.st14{fill:#A198A0;}
	.st15{fill-rule:evenodd;clip-rule:evenodd;fill:#FFFFFF;}
	.st16{fill:#FFFFFF;}
</style>
<g>
	<path class="st0" d="M246.5,264.4H2.5c-1.4,0-2.5-1.1-2.5-2.5V2.5C0,1.1,1.1,0,2.5,0h244c1.4,0,2.5,1.1,2.5,2.5V262
		C249,263.3,247.8,264.4,246.5,264.4L246.5,264.4z"/>
	<circle cx="26.2" cy="65.3" r="15.2"/>
	<circle class="st1" cx="26.2" cy="65.3" r="14.9"/>
	<circle cx="26.2" cy="230.3" r="15.2"/>
	<circle class="st2" cx="26.2" cy="230.3" r="14.9"/>
	<circle cx="222.7" cy="230.3" r="15.2"/>
	<circle class="st3" cx="222.7" cy="230.3" r="14.9"/>
	<circle class="st0" cx="222.7" cy="230.3" r="7.7"/>
	<path class="st4" d="M127,240.6h-2.5c-20.8,0.1-46.5-0.8-78.7-8l-0.6-0.1l0.1-0.6c0.1-0.5,0.1-1.1,0.1-1.6
		c0-10.5-8.6-19.1-19.1-19.1h-0.6V84.6h0.6c10.5,0,19.1-8.6,19.1-19.1s-8.6-19.1-19.1-19.1h-0.6V0h1.2v45.3
		c10.9,0.3,19.7,9.3,19.7,20.2c0,11-8.8,20-19.7,20.2v124.3c10.9,0.3,19.7,9.3,19.7,20.2c0,0.4,0,0.8-0.1,1.2
		c31.9,7.1,57.3,8,78,7.9c20.7,0.1,46.2-0.8,78.1-7.9c0-0.4-0.1-0.8-0.1-1.2c0-11,8.8-20,19.7-20.2V0h1.2v211.2h-0.6
		c-10.5,0-19.1,8.6-19.1,19.1c0,0.5,0,1.1,0.1,1.6l0.1,0.6l-0.6,0.1C172.2,239.5,147.4,240.6,127,240.6L127,240.6z"/>
	<g>
		<path class="st5" d="M172.9,20.8c-3.6,0-6-2.6-6-5.8s2.4-5.8,6-5.8h33.8c3.6,0,6,2.6,6,5.8s-2.4,5.8-6,5.8H172.9z M172.9,10.7
			c-2.9,0-4.6,2-4.6,4.3c0,2.4,1.7,4.4,4.6,4.3h33.7c2.9,0,4.6-2,4.6-4.3c0-2.4-1.7-4.3-4.6-4.3H172.9z"/>
		<path class="st5" d="M171.5,12.3h1.7l2.3,3.8v-3.8h1.6v5.5h-1.6l-2.3-3.8v3.8h-1.7L171.5,12.3z M185.9,12.9h1.6v0.7h0.8v0.5h-0.8
			v3.6h-1.6v-3.6H185v-0.5h0.9V12.9z M178,14.1h1.6v3.6H178V14.1z M178,12.3h1.6v1.1H178V12.3z M205.8,13.9c-1.3,0-2.3,0.9-2.3,2
			s1.1,2,2.3,2c1.3,0,2.3-0.9,2.3-2C208.2,14.8,207.1,13.9,205.8,13.9 M206.5,15.9v0.8c0,0.6-0.4,0.8-0.7,0.8s-0.7-0.2-0.7-0.8v-1.5
			c0-0.6,0.4-0.8,0.7-0.8s0.7,0.2,0.7,0.8C206.5,15.1,206.5,15.9,206.5,15.9z M201.4,15.9v-0.7c0-0.5-0.4-0.7-0.6-0.7
			s-0.6,0.1-0.6,0.7v1.3c0,0.5,0.4,0.7,0.6,0.7s0.6-0.1,0.6-0.7V15.9z M201.4,12.3h1.5v5.5h-1.5v-0.2c-0.6,0.4-1.3,0.4-1.8,0.1
			c-0.1-0.1-1.1-0.5-1.1-1.8c0-1,0.9-2,2-1.9c0.4,0.1,0.7,0.2,0.9,0.3V12.3z M183.3,13.9c0.6,0,1.8,0.4,1.8,1.8v2h-1.6v-2.4
			c0-0.3-0.3-0.7-0.7-0.7s-0.8,0.4-0.8,0.7v2.4h-1.6v-3.6h1.6v0.4C182.3,14.2,182.7,13.9,183.3,13.9 M196.2,13.9
			c0.6,0,1.8,0.4,1.8,1.8v2h-1.6v-2.4c0-0.3-0.3-0.7-0.7-0.7s-0.8,0.4-0.8,0.7v2.4h-1.6v-3.6h1.6v0.4
			C195.2,14.2,195.7,13.9,196.2,13.9 M191.2,16.5v0.2c0,0.7-0.4,0.8-0.7,0.8s-0.7-0.1-0.7-0.8V16h3c0-1.1-1.1-2.1-2.3-2.1
			c-1.3,0-2.3,0.9-2.3,2s1.1,2,2.3,2c1.1,0,2-0.7,2.3-1.5L191.2,16.5L191.2,16.5z M189.9,15.4c0-0.3,0-0.5,0.1-0.7
			c0.1-0.2,0.4-0.4,0.5-0.4s0.4,0.1,0.5,0.4c0.1,0.2,0.1,0.4,0.1,0.7H189.9z M208.5,12.9c0.2,0,0.3,0,0.3-0.2s-0.1-0.2-0.2-0.2h-0.2
			v0.4C208.3,12.9,208.5,12.9,208.5,12.9z M208.3,13.6h-0.2v-1.3h0.5c0.3,0,0.4,0.1,0.4,0.4s-0.1,0.3-0.3,0.4l0.4,0.5h-0.2l-0.3-0.5
			h-0.2L208.3,13.6L208.3,13.6z"/>
		<path class="st5" d="M208.5,13.9c0.5,0,0.8-0.4,0.8-0.9s-0.4-0.9-0.8-0.9s-0.8,0.4-0.8,0.9C207.7,13.5,208,13.9,208.5,13.9
			 M207.4,13c0-0.6,0.5-1.1,1.1-1.1s1.1,0.5,1.1,1.1s-0.5,1.1-1.1,1.1S207.4,13.6,207.4,13"/>
	</g>
	<path class="st6" d="M157.4,238.9c-12,1-22.9,1.1-32.9,1.1c-10.1,0.1-20.9-0.2-32.9-1.1c4.8,5.3,17.7,9.1,32.9,9.1
		C139.6,248.1,152.5,244.2,157.4,238.9"/>
	<path class="st7" d="M147.5,240.3c-8.4,0.7-16,0.8-23,0.8s-14.7-0.1-23-0.8c3.4,3.8,12.4,6.4,23,6.4
		C135,246.7,144.1,244,147.5,240.3"/>
	<circle cx="124.5" cy="135.8" r="69.4"/>
	<path class="st8" d="M147.3,170.3l13.2,17.3l-0.1-0.1c-10.2,7.1-22.7,11.3-36.1,11.3c-13.3,0-25.7-4.2-36-11.3l13.2-17.3
		c6.5,4.3,14.3,6.8,22.7,6.8c8.5,0,16.4-2.6,22.9-7L147.3,170.3L147.3,170.3z"/>
	<path class="st1" d="M103.9,176.5l-10.8,14.1c9.2,5.3,20,8.3,31.4,8.3c13.4,0,25.8-4.2,36.1-11.3l-10.9-14.3
		c-6.9,5.5-16.3,8.6-25.2,8.6C117,182,109.9,180,103.9,176.5"/>
	<path class="st9" d="M129.7,124v-0.8h-2.2c-0.3,0-0.5,0.1-0.8,0.2c-0.2,0.1-0.4,0.2-0.5,0.5c-0.1,0.2-0.2,0.4-0.2,0.6v2.4
		c0,0.2,0.1,0.4,0.2,0.6c0.1,0.2,0.4,0.4,0.5,0.5c0.2,0.1,0.5,0.2,0.8,0.2h2.2v-0.8h-2.1c-0.2,0-0.4-0.1-0.5-0.1
		c-0.1-0.1-0.2-0.2-0.2-0.4V126h2.8v-0.8h-2.7v-0.7c0-0.2,0.1-0.3,0.2-0.4c0.1-0.1,0.3-0.1,0.5-0.1L129.7,124L129.7,124L129.7,124z
		 M138.2,128.1v-4.9h-1v3.1l-1.6-3.1h-1.3v4.9h1v-3.8l2,3.8 M142.9,123.2v4.9h2.3c0.3,0,0.5-0.1,0.8-0.2c0.2-0.1,0.4-0.2,0.6-0.5
		c0.1-0.2,0.2-0.4,0.2-0.7v-2.3c0-0.2-0.1-0.4-0.2-0.6c-0.1-0.2-0.4-0.4-0.6-0.5c-0.2-0.1-0.5-0.2-0.8-0.2L142.9,123.2L142.9,123.2z
		 M145.7,124.1c0.1,0.1,0.2,0.2,0.2,0.4v2.3c0,0.2-0.1,0.3-0.2,0.4c-0.1,0.1-0.3,0.2-0.5,0.2h-1.4V124h1.4
		C145.4,124,145.6,124.1,145.7,124.1z M154.5,123.3c-0.2-0.1-0.5-0.2-0.8-0.2h-0.8c-0.3,0-0.5,0.1-0.8,0.2c-0.2,0.1-0.4,0.2-0.6,0.5
		c-0.1,0.2-0.2,0.4-0.2,0.7v2.4c0,0.2,0.1,0.4,0.2,0.6c0.1,0.2,0.4,0.4,0.6,0.5c0.2,0.1,0.5,0.2,0.8,0.2h0.8c0.3,0,0.5-0.1,0.8-0.2
		c0.2-0.1,0.4-0.2,0.6-0.5c0.1-0.2,0.2-0.4,0.2-0.6v-2.4c0-0.2-0.1-0.5-0.2-0.7C154.9,123.6,154.7,123.5,154.5,123.3z M154.1,124.1
		c0.1,0.1,0.2,0.2,0.2,0.4v2.4c0,0.1-0.1,0.2-0.2,0.4c-0.1,0.1-0.3,0.2-0.5,0.2h-0.8c-0.2,0-0.4-0.1-0.5-0.2
		c-0.1-0.1-0.2-0.2-0.2-0.4v-2.4c0-0.1,0.1-0.2,0.2-0.4c0.1-0.1,0.3-0.1,0.5-0.2h0.8C153.8,123.9,154,124,154.1,124.1z M149.7,136.1
		h6.8v-1.4h-5v-1.2h2.9v-1.3h-2.9v-1.1h4.9v-1.3h-6.7 M149,131.1c0-0.4-0.1-0.8-0.4-1s-0.7-0.4-1.2-0.4h-5.5v6.3h5.1
		c1.4,0,2-0.5,2-1.4v-0.8c0-0.5-0.2-0.9-0.7-1.1c0.4-0.2,0.7-0.5,0.7-1V131.1L149,131.1z M147.3,131.2c0.1,0.1,0.1,0.1,0.1,0.2v0.6
		c0,0.1,0,0.2-0.1,0.2l-0.4,0.1h-3.2v-1.1h3.2C147.1,131.1,147.3,131.1,147.3,131.2L147.3,131.2z M143.7,134.8v-1.3h3.2
		c0.2,0,0.4,0.1,0.5,0.1c0.1,0.1,0.1,0.2,0.1,0.3v0.5c0,0.1-0.1,0.2-0.1,0.3c-0.1,0.1-0.2,0.1-0.5,0.1L143.7,134.8L143.7,134.8z
		 M141.2,129.8h-1.8v4.9h-3.8v-4.9h-1.8v4.8c0,0.4,0.1,0.7,0.2,1c0.1,0.2,0.3,0.4,0.5,0.5c0.2,0.1,0.6,0.2,1,0.1h3.9
		c0.4,0,0.8-0.1,1-0.1c0.2-0.1,0.4-0.2,0.5-0.5c0.1-0.2,0.2-0.5,0.2-1L141.2,129.8L141.2,129.8z M132.9,130.5
		c-0.1-0.2-0.3-0.4-0.5-0.5c-0.2-0.1-0.6-0.1-1-0.1h-3.9c-0.4,0-0.8,0.1-1,0.1c-0.2,0.1-0.4,0.2-0.5,0.5s-0.2,0.5-0.2,1v3.2
		c0,0.4,0.1,0.7,0.2,1c0.1,0.2,0.3,0.4,0.5,0.5c0.2,0.1,0.6,0.2,1,0.1h3.9c0.4,0,0.8-0.1,1-0.1c0.2-0.1,0.4-0.2,0.5-0.5
		c0.1-0.2,0.2-0.5,0.2-1v-1.2h-1.8v1.3h-3.8v-3.5h3.8v1.1h1.8v-1C133.1,131,133.1,130.7,132.9,130.5z M117.8,136.1h6.8v-1.4h-5v-1.2
		h2.9v-1.3h-2.9v-1.1h4.9v-1.3h-6.7 M95.1,123.2h-1.3v4.9h1v-3.8l2,3.8h1v-4.9h-1v3.1 M103,128.1h1.1v-4.9H103 M113.4,128.1v-4.9h-1
		v3.1l-1.6-3.1h-1.3v4.9h1v-3.8l2,3.8 M119.3,128.1h1V124h1.7v-0.8h-4.3v0.8h1.6 M108.5,129.8v5.2l-3.2-5.2h-1.5l-3.8,6.3h4.8v-1.4
		h-2.1l2-3.2l2.6,4.6h2.9v-3.4l2,3.4h1.3l2-3.4v3.4h1.6v-6.3h-1.6l-2.7,4.5l-2.7-4.5 M100.1,131.2v-1.4h-6c-0.4,0-0.8,0.1-1,0.1
		c-0.2,0.1-0.4,0.2-0.5,0.5s-0.2,0.5-0.2,1v3.2c0,0.4,0.1,0.7,0.2,1c0.1,0.2,0.3,0.4,0.5,0.5c0.2,0.1,0.6,0.2,1,0.1h4.3
		c0.6,0,1.1-0.1,1.3-0.4c0.2-0.2,0.4-0.7,0.4-1.3v-2.3h-4.1v1.3h2.4v1.1h-4.2v-3.5h5.9L100.1,131.2L100.1,131.2z"/>
	<path class="st10" d="M36.7,47.2c0.5-1.5,0.8-2.3,1.3-3.8c0.4,0.1,0.6,0.2,1,0.4l0.7,0.4c0.2,0.1,0.2,0.4,0.3,0.5
		c0,0.2-0.1,0.5-0.2,0.8c-0.1,0.2-0.3,0.5-0.5,0.6c-0.2,0.1-0.4,0.2-0.5,0.2c-0.2,0-0.4-0.1-0.8-0.2c-0.1-0.1-0.2-0.1-0.4-0.1
		c-0.2,0.5-0.3,0.8-0.5,1.4C37,47.3,36.9,47.3,36.7,47.2z M38.4,44.3c-0.2,0.4-0.2,0.7-0.4,1.1c0.1,0.1,0.2,0.1,0.3,0.1
		c0.2,0.1,0.4,0.1,0.5,0.1s0.2,0,0.2-0.1c0.1-0.1,0.2-0.2,0.2-0.3c0.1-0.1,0.1-0.2,0.1-0.4s-0.1-0.2-0.1-0.2
		c-0.1-0.1-0.2-0.2-0.5-0.2C38.6,44.4,38.5,44.4,38.4,44.3L38.4,44.3z M40.8,46.9c0.2-0.4,0.5-0.7,0.8-0.9c0.3-0.2,0.5-0.3,0.8-0.3
		s0.5,0.1,0.8,0.3c0.4,0.3,0.6,0.7,0.6,1.1c0,0.5-0.2,1-0.7,1.4c-0.4,0.5-0.9,0.8-1.3,1c-0.4,0.1-0.7,0.1-1-0.2
		c-0.3-0.2-0.5-0.5-0.5-1C40.3,48,40.4,47.5,40.8,46.9z M41.3,47.2c-0.2,0.4-0.4,0.7-0.4,1s0.1,0.5,0.2,0.6c0.2,0.1,0.4,0.1,0.7,0.1
		c0.2-0.1,0.5-0.3,0.8-0.7c0.3-0.4,0.4-0.7,0.5-1c0-0.3-0.1-0.5-0.3-0.7c-0.2-0.2-0.5-0.2-0.7-0.1C41.9,46.6,41.6,46.9,41.3,47.2
		L41.3,47.2z M43.2,51.4c1-1.3,1.4-2,2.3-3.3l0.5,0.5c-0.7,0.9-1,1.3-1.7,2.2c1-0.6,1.4-0.8,2.4-1.4c0.2,0.2,0.3,0.4,0.5,0.6
		c-0.7,0.9-1.1,1.3-1.9,2.1c1-0.5,1.5-0.8,2.6-1.3c0.2,0.2,0.2,0.4,0.4,0.5c-1.5,0.6-2.3,1-3.7,1.7c-0.1-0.2-0.2-0.3-0.4-0.5
		c0.8-0.9,1.2-1.4,2-2.3c-1.1,0.6-1.6,0.9-2.6,1.5C43.4,51.6,43.4,51.6,43.2,51.4z M45.6,54.7c1.4-0.8,2.1-1.1,3.5-1.9
		c0.5,0.8,0.7,1.3,1.1,2.2c-0.2,0.1-0.4,0.2-0.7,0.2c-0.2-0.7-0.4-1-0.7-1.5c-0.3,0.2-0.5,0.2-0.8,0.4c0.3,0.5,0.4,0.8,0.7,1.4
		c-0.2,0.1-0.4,0.2-0.6,0.2c-0.2-0.5-0.4-0.8-0.6-1.4l-1,0.5c0.3,0.5,0.4,0.8,0.7,1.4c-0.2,0.1-0.4,0.2-0.7,0.2
		C46.2,55.8,46,55.4,45.6,54.7z M46.9,58c1.5-0.5,2.3-0.7,3.8-1.1c0.2,0.5,0.2,0.8,0.4,1.4c0.1,0.4,0.1,0.6,0.1,0.8
		c-0.1,0.2-0.1,0.3-0.3,0.4c-0.2,0.1-0.4,0.2-0.6,0.2c-0.3,0.1-0.6,0-0.8-0.1c-0.2-0.1-0.4-0.3-0.5-0.5c-0.1,0.1-0.2,0.3-0.3,0.4
		c-0.1,0.1-0.3,0.2-0.6,0.4c-0.3,0.2-0.4,0.3-0.7,0.5c-0.1-0.2-0.1-0.4-0.1-0.7c0.3-0.2,0.5-0.4,0.8-0.5c0.3-0.2,0.5-0.4,0.5-0.4
		c0.1-0.1,0.1-0.1,0.1-0.2v-0.3c0-0.1,0-0.1-0.1-0.1c-0.7,0.2-1,0.2-1.6,0.4C47.1,58.2,47,58.2,46.9,58z M49.3,57.9
		c0.1,0.2,0.1,0.3,0.1,0.5c0.1,0.3,0.1,0.5,0.2,0.5l0.2,0.2c0.1,0.1,0.2,0.1,0.3,0c0.1,0,0.2-0.1,0.3-0.1c0.1-0.1,0.1-0.1,0.1-0.2
		c0-0.1,0-0.2-0.1-0.5c-0.1-0.2-0.1-0.3-0.1-0.5C49.9,57.8,49.7,57.8,49.3,57.9z M34.5,210.9c0.3-1.4,0.4-2.1,0.7-3.6
		c0.8,0.2,1.1,0.2,1.9,0.5c0.5,0.1,0.8,0.3,1,0.4c0.2,0.1,0.3,0.3,0.4,0.5c0.1,0.2,0.1,0.4-0.1,0.6c-0.1,0.2-0.3,0.4-0.5,0.5
		c-0.2,0.1-0.5,0.1-0.9,0.1c0.1,0.1,0.2,0.3,0.3,0.4c0.1,0.1,0.1,0.4,0.2,0.7s0.1,0.5,0.1,0.8c-0.3-0.1-0.5-0.2-0.8-0.4
		c-0.1-0.4-0.1-0.5-0.2-1c-0.1-0.4-0.2-0.5-0.2-0.7c-0.1-0.1-0.1-0.2-0.2-0.2c-0.1-0.1-0.2-0.1-0.4-0.1c-0.1,0-0.1,0-0.2-0.1
		c-0.1,0.6-0.2,0.9-0.4,1.5C35,211,34.8,211,34.5,210.9L34.5,210.9z M35.8,209c0.2,0.1,0.4,0.1,0.6,0.2c0.4,0.1,0.6,0.2,0.7,0.2
		s0.2,0,0.3-0.1c0.1-0.1,0.2-0.1,0.2-0.2c0.1-0.1,0.1-0.2,0-0.3c-0.1-0.1-0.1-0.2-0.2-0.2c-0.1-0.1-0.3-0.1-0.7-0.2
		c-0.3-0.1-0.4-0.1-0.7-0.2C35.9,208.5,35.9,208.6,35.8,209L35.8,209z M38.1,212c0.7-1.3,1-2,1.5-3.3c1.2,0.6,1.8,0.9,2.9,1.7
		c-0.1,0.2-0.2,0.3-0.4,0.5c-0.8-0.5-1.2-0.8-2-1.3c-0.2,0.3-0.2,0.4-0.4,0.7c0.7,0.4,1.1,0.6,1.8,1.1c-0.1,0.2-0.2,0.3-0.4,0.5
		c-0.7-0.5-1-0.7-1.7-1.1c-0.2,0.4-0.3,0.5-0.5,0.9c0.8,0.4,1.1,0.6,1.8,1.1c-0.1,0.2-0.2,0.3-0.4,0.5
		C39.5,212.8,39.1,212.5,38.1,212L38.1,212z M41.5,212.7c0.2,0.2,0.4,0.2,0.7,0.4c-0.2,0.4-0.2,0.8,0.2,1.1c0.2,0.2,0.4,0.2,0.5,0.3
		c0.2,0,0.3,0,0.4-0.1c0.1-0.1,0.1-0.1,0.1-0.2c0-0.1,0-0.2-0.1-0.2c-0.1-0.1-0.2-0.3-0.4-0.7c-0.2-0.3-0.4-0.5-0.4-0.7
		c-0.1-0.2-0.1-0.4-0.1-0.5c0-0.2,0.1-0.4,0.2-0.5c0.1-0.2,0.3-0.2,0.5-0.3c0.2-0.1,0.4,0,0.7,0.1c0.2,0.1,0.5,0.2,0.7,0.5
		c0.4,0.4,0.6,0.7,0.7,1.1s-0.1,0.7-0.3,0.9l-0.6-0.6c0.1-0.2,0.2-0.3,0.1-0.5c-0.1-0.1-0.1-0.3-0.3-0.5c-0.2-0.2-0.4-0.2-0.5-0.3
		c-0.1-0.1-0.2,0-0.3,0.1s-0.1,0.2-0.1,0.3c0.1,0.1,0.2,0.4,0.4,0.7c0.2,0.4,0.4,0.7,0.4,0.8s0.1,0.4,0,0.5
		c-0.1,0.2-0.2,0.4-0.3,0.5c-0.2,0.2-0.5,0.3-0.8,0.3s-0.7-0.2-1-0.5C41.2,214.1,41.1,213.5,41.5,212.7L41.5,212.7z M43.4,216.1
		c1.1-1,1.7-1.4,2.9-2.3c0.8,1,1.3,1.6,1.8,2.8c-0.2,0.1-0.3,0.2-0.5,0.3c-0.5-0.8-0.7-1.3-1.3-2c-0.2,0.2-0.4,0.3-0.7,0.5
		c0.5,0.7,0.7,1,1.1,1.8c-0.2,0.1-0.3,0.2-0.5,0.3c-0.4-0.7-0.6-1.1-1.1-1.7c-0.3,0.2-0.5,0.4-0.8,0.6c0.5,0.7,0.7,1,1.1,1.8
		c-0.2,0.1-0.4,0.2-0.5,0.3C44.4,217.5,44,217,43.4,216.1z M45.5,219.8c1.1-0.5,1.7-0.7,2.8-1.2c-0.2-0.5-0.3-0.7-0.5-1.2
		c0.2-0.1,0.4-0.2,0.5-0.3c0.7,1.3,1,2,1.4,3.4c-0.2,0.1-0.4,0.1-0.6,0.2c-0.1-0.5-0.2-0.8-0.4-1.3c-1.1,0.4-1.7,0.7-2.9,1.1
		C45.7,220.2,45.6,220,45.5,219.8L45.5,219.8z M202.6,221.4c-0.4-0.1-0.7-0.2-0.8-0.4c-0.2-0.2-0.4-0.5-0.4-0.8
		c-0.1-0.3-0.1-0.7,0.1-1.1c0.2-0.6,0.5-1.1,0.8-1.3c0.4-0.2,0.8-0.3,1.3-0.1c0.5,0.2,0.7,0.5,0.9,1c0.1,0.4,0.1,0.8,0,1.3
		c-0.1,0.5-0.3,0.9-0.6,1.1C203.5,221.3,203.1,221.4,202.6,221.4L202.6,221.4z M202.7,220.6c0.4,0.1,0.6,0,0.8-0.2
		c0.2-0.2,0.4-0.4,0.4-0.7c0.1-0.3,0.1-0.5-0.1-0.8c-0.1-0.2-0.3-0.4-0.7-0.5c-0.3-0.1-0.6-0.1-0.8,0.1c-0.2,0.2-0.4,0.4-0.5,0.7
		c-0.1,0.4-0.1,0.7,0.1,0.9C202.1,220.4,202.4,220.5,202.7,220.6L202.7,220.6z M205.2,217.7c-1.1-0.5-1.6-0.8-2.7-1.3
		c0.2-0.5,0.4-0.8,0.7-1.3c0.3-0.5,0.5-0.7,0.6-0.8c0.2-0.2,0.4-0.3,0.6-0.4c0.2-0.1,0.4,0,0.6,0.2c0.2,0.1,0.3,0.3,0.3,0.5
		c0.1,0.2,0,0.4-0.1,0.6c-0.1,0.2-0.2,0.5-0.5,0.9c-0.1,0.2-0.2,0.2-0.2,0.4c0.4,0.2,0.6,0.3,1,0.5L205.2,217.7L205.2,217.7z
		 M203.3,216c0.3,0.2,0.4,0.2,0.7,0.4c0.1-0.2,0.1-0.2,0.2-0.4c0.2-0.2,0.2-0.4,0.3-0.5c0.1-0.1,0.1-0.2,0.1-0.3s-0.1-0.2-0.1-0.2
		c-0.1-0.1-0.2-0.1-0.3-0.1s-0.2,0.1-0.2,0.2c-0.1,0.1-0.2,0.2-0.4,0.6C203.5,215.7,203.4,215.8,203.3,216L203.3,216z M206.9,215.1
		c-0.9-0.8-1.4-1.2-2.3-2c0.8-1,1.3-1.4,2.3-2.2c0.1,0.2,0.2,0.2,0.3,0.4c-0.7,0.5-1.1,0.8-1.7,1.5l0.5,0.5c0.5-0.6,0.8-0.8,1.5-1.3
		c0.1,0.2,0.2,0.2,0.3,0.4c-0.6,0.5-0.9,0.7-1.4,1.3c0.2,0.2,0.4,0.4,0.6,0.5c0.5-0.6,0.9-0.8,1.5-1.3c0.1,0.2,0.2,0.2,0.3,0.4
		C208,213.9,207.6,214.2,206.9,215.1z M209.3,212.9c-0.7-1-1-1.5-1.7-2.4c0.3-0.2,0.4-0.3,0.7-0.5c1,0.3,1.5,0.5,2.4,1
		c-0.3-0.7-0.5-1.1-0.8-1.8c0.3-0.1,0.5-0.2,0.8-0.3c0.4,1.1,0.6,1.7,1,2.8c-0.3,0.1-0.4,0.2-0.7,0.3c-0.8-0.5-1.3-0.7-2.3-1
		c0.4,0.7,0.6,1,1,1.7C209.7,212.7,209.6,212.7,209.3,212.9L209.3,212.9z"/>
	<path class="st11" d="M220.1,267.1H28.9c-1.5,0-2.7-1.2-2.7-2.7h196.5C222.7,265.9,221.6,267.1,220.1,267.1z"/>
	<path class="st12" d="M497.3,179c0,47.2-38.3,85.5-85.5,85.5s-85.6-38.3-85.6-85.5s38.4-85.6,85.6-85.6S497.3,131.6,497.3,179
		L497.3,179z M423.5,154c-3.6-1.7-7.6-2.7-11.7-2.7c-15.2,0-27.5,12.4-27.5,27.5c0,15.2,12.4,27.7,27.5,27.7
		c15.2,0,27.5-12.4,27.5-27.5C439.4,167.9,432.9,158.5,423.5,154"/>
	<path class="st13" d="M411.8,267.1c-48.7,0-88.2-39.6-88.2-88.2s39.5-88.2,88.2-88.2S500,130.3,500,179S460.4,267.1,411.8,267.1z
		 M411.8,90.9c-48.5,0-88,39.5-88,88s39.5,88,88,88s88-39.5,88-88S460.4,90.9,411.8,90.9z"/>
	<path class="st14" d="M411.8,194.3c-8.4,0-15.3-6.9-15.3-15.3s6.9-15.3,15.3-15.3s15.3,6.9,15.3,15.3S420.2,194.3,411.8,194.3z
		 M411.8,164.7c-7.8,0-14.2,6.4-14.2,14.2s6.4,14.2,14.2,14.2s14.2-6.4,14.2-14.2S419.7,164.7,411.8,164.7z"/>
	<path class="st14" d="M411.8,191.3c-6.8,0-12.4-5.6-12.4-12.4s5.6-12.4,12.4-12.4s12.4,5.6,12.4,12.4S418.6,191.3,411.8,191.3z
		 M411.8,167.7c-6.2,0-11.3,5.1-11.3,11.3s5.1,11.3,11.3,11.3s11.3-5.1,11.3-11.3S418.1,167.7,411.8,167.7z"/>
	<path class="st1" d="M439,179c0,15-12.1,27.1-27.1,27.1S384.7,194,384.7,179s12.1-27.1,27.1-27.1S439,163.9,439,179z M411.8,155.3
		c-13,0-23.7,10.5-23.7,23.7s10.6,23.5,23.7,23.5s23.5-10.5,23.5-23.5S424.9,155.3,411.8,155.3z"/>
	<path d="M411.8,206.5c-15.2,0-27.5-12.4-27.5-27.5c0-15.2,12.4-27.5,27.5-27.5c15.2,0,27.5,12.4,27.5,27.5
		C439.4,194.1,427,206.5,411.8,206.5z M411.8,152.2c-14.8,0-26.7,12-26.7,26.7s12,26.7,26.7,26.7c14.8,0,26.7-12,26.7-26.7
		S426.6,152.2,411.8,152.2z"/>
	<path d="M392.2,198.1c5.1,5.2,12,8.4,19.7,8.4c7.7,0,14.8-3.2,19.7-8.4h63.7c-8.8,38-42.8,66.4-83.4,66.4
		c-40.7,0-74.7-28.3-83.4-66.4"/>
	<g>
		<path class="st15" d="M402.1,215.7l-2.9,5.3h3.7v-1.2h-1.7l1.6-2.7l2.1,3.9h1.6l-3.1-5.3H402.1"/>
		<path class="st15" d="M412.9,215.7h-1.3l-2.1,3.9l-2.1-3.9H406v5.3h1.3v-2.8l1.6,2.8h1.1l1.6-2.8v2.8h1.3 M399.3,217.8H396v1.1
			h1.9v0.9h-3.5v-2.9h4.8v-1.2h-4.8c-1.1,0-1.3,0.3-1.3,1.3v2.7c0,0.9,0.3,1.3,1.3,1.3h3.5c1.1,0,1.3-0.3,1.3-1.3v-1.9H399.3
			L399.3,217.8z M424.5,215.7h-3.1c-1.1,0-1.3,0.3-1.3,1.3v2.7c0,0.9,0.3,1.3,1.3,1.3h3.1c1.1,0,1.3-0.3,1.3-1.3v-0.9h-1.5v1.1h-3.1
			v-2.9h3.1v0.9h1.5V217C425.8,216.1,425.4,215.7,424.5,215.7L424.5,215.7z M430.9,219.8h-3.1v-4.1h-1.5v4c0,0.9,0.3,1.3,1.3,1.3
			h3.2c1.1,0,1.3-0.3,1.3-1.3v-4h-1.5v4.1H430.9z M438,218.3c0.4-0.1,0.5-0.4,0.5-0.8v-0.7c0-0.8-0.4-1.1-1.2-1.1H433v5.3h4.1
			c1.1,0,1.6-0.4,1.6-1.1v-0.7C438.6,218.9,438.4,218.5,438,218.3z M434.3,216.7h2.5c0.4,0,0.4,0.1,0.4,0.3v0.5c0,0.1,0,0.3-0.4,0.3
			h-2.5V216.7L434.3,216.7z M437.2,219.5c0,0.3,0,0.3-0.4,0.3h-2.5v-1.1h2.5c0.4,0,0.4,0.1,0.4,0.3V219.5L437.2,219.5z M440.6,218.9
			h2.3v-1.2h-2.3v-0.8h4v-1.2h-5.5v5.3h5.5v-1.2h-4V218.9 M414.9,218.9h2.4v-1.2h-2.4v-0.8h4v-1.2h-5.5v5.3h5.5v-1.2h-4V218.9
			 M429.1,214.3h0.8v-4.1h-0.8v2.7l-1.3-2.7h-1.1v4.1h0.8v-3.2 M407.6,214.3v-3.2l1.6,3.2h0.8v-4.1h-0.8v2.7l-1.3-2.7h-1.1v4.1
			 M395,214.3v-3.2l1.6,3.2h0.8v-4.1h-0.8v2.7l-1.3-2.7h-1.1v4.1 M402.5,210.2h-0.9v4.1h0.9V210.2 M416.8,210.2h-3.3v0.7h1.3v3.5
			h0.8v-3.5h1.2 M435.5,214.3c0.7,0,1.3-0.5,1.3-1.1v-2c0-0.5-0.5-1.1-1.3-1.1h-1.9v4h1.9L435.5,214.3L435.5,214.3z M434.4,210.9
			h1.1c0.3,0,0.5,0.3,0.5,0.4v1.9c0,0.3-0.3,0.4-0.5,0.4h-1.1V210.9L434.4,210.9z M443.6,211.3c0-0.5-0.5-1.1-1.3-1.1h-0.7
			c-0.7,0-1.3,0.5-1.3,1.1v2c0,0.5,0.5,1.1,1.3,1.1h0.7c0.7,0,1.3-0.5,1.3-1.1V211.3z M442.8,213.3c0,0.3-0.3,0.4-0.5,0.4h-0.7
			c-0.3,0-0.5-0.3-0.5-0.4v-2c0-0.3,0.3-0.4,0.5-0.4h0.7c0.3,0,0.5,0.1,0.5,0.4V213.3z M420,213.3c0,0.5,0.5,1.1,1.2,1.1h1.7v-0.7
			h-1.7c-0.3,0-0.5-0.1-0.5-0.4v-0.8h2.3v-0.7h-2.1v-0.5c0-0.3,0.3-0.4,0.5-0.4h1.7v-0.7h-1.7c-0.7,0-1.2,0.5-1.2,1.1L420,213.3
			L420,213.3z M445.2,219.8h1.1v0.3h-0.4v0.9h-0.3V220h-0.4 M446.7,219.8l0.3,0.9l0.3-0.9h0.3v1.2h-0.1V220h-0.1l-0.1,0.9h-0.3
			l-0.3-0.9v0.9h-0.1v-1.2 M379.5,217.9l3.1,1.7v-3.5l-3.1-1.7V217.9"/>
		<path class="st15" d="M376.2,212.5l2.1,1.2v4.9l4.3,2.5v2.5l-6.4-3.7 M382.9,212.1l-2.9,1.7l2.9,1.9l3.1-1.9L382.9,212.1"/>
		<path class="st15" d="M376.5,211.9l2.1,1.2l4.3-2.5l3.7,2.1l2.1-1.2l-5.9-3.3 M387.5,218.6v-2.5l-1.3,0.8v1.1l-2.9,1.7v-3.5
			l6.4-3.7v7.4l-6.4,3.7v-2.5L387.5,218.6"/>
	</g>
	<path class="st16" d="M354.5,220.2h0.4c0,0.1,0,0.1,0.1,0.3c0,0,0.1,0.1,0.3,0.1h0.3l0.1-0.1v-0.1c0,0-0.1,0-0.3-0.1h-0.3
		c-0.1,0-0.3-0.1-0.4-0.1c-0.1-0.1-0.1-0.3-0.1-0.4c0-0.1,0-0.4,0.1-0.4c0.1-0.1,0.3-0.1,0.5-0.1s0.4,0,0.5,0.1s0.1,0.3,0.1,0.4
		h-0.4c0-0.1,0-0.1-0.1-0.3c0,0-0.1-0.1-0.3-0.1h-0.3l-0.1,0.1v0.1h0.5c0.1,0,0.3,0.1,0.4,0.1c0.1,0.1,0.1,0.3,0.1,0.4
		c0,0.3,0,0.4-0.1,0.5s-0.3,0.1-0.5,0.1s-0.4,0-0.5-0.1C354.7,220.6,354.5,220.4,354.5,220.2z M357.3,220.4c0,0.1-0.1,0.3-0.3,0.4
		s-0.3,0.1-0.4,0.1s-0.3-0.1-0.4-0.3s-0.1-0.3-0.1-0.5c0-0.3,0-0.4,0.1-0.5s0.3-0.3,0.4-0.3s0.4,0.1,0.4,0.3
		c0.1,0.1,0.1,0.4,0.1,0.5L357.3,220.4l-0.8-0.1c0,0.1,0,0.1,0.1,0.3l0.1,0.1h0.1l0.1-0.1L357.3,220.4z M356.5,220h0.5
		c0-0.1,0-0.1-0.1-0.3l-0.1-0.1c-0.1,0-0.1,0-0.1,0.1C356.5,219.8,356.5,219.9,356.5,220z M358.7,220.6
		C358.7,220.7,358.7,220.7,358.7,220.6v0.1h-0.4v-0.1c0,0.1-0.1,0.1-0.1,0.1h-0.3c-0.1,0-0.3,0-0.3-0.1c-0.1-0.1-0.1-0.1-0.1-0.4
		c0-0.1,0-0.3,0.1-0.3s0.1-0.1,0.4-0.1h0.1c0.1,0,0.3-0.1,0.3-0.1v-0.1h-0.3v0.1h-0.3c0-0.1,0-0.3,0.1-0.4c0.1-0.1,0.3-0.1,0.4-0.1
		h0.3c0.1,0,0.1,0,0.1,0.1c0,0,0,0.1,0.1,0.1v0.3L358.7,220.6L358.7,220.6z M358.3,220.2c0,0-0.1,0-0.3,0.1h-0.3v0.3h0.1
		c0.1,0,0.1,0,0.3-0.1C358.3,220.4,358.3,220.3,358.3,220.2L358.3,220.2z M358.9,220.8V219h0.3v1.9H358.9z"/>
	<path class="st16" d="M369.3,215.7l1.3,1.5l-1.9,1.1l0.5,2.1h-2l-0.1,2.4l-2.3-0.7l-0.4,2.3l-2.1-0.8l-1.1,2l-1.6-1.5l-1.5,2
		l-1.6-1.7l-1.7,1.6l-1.1-1.9l-2,1.2l-0.7-2.1l-2.4,0.9l-0.4-2.1l-2.1,0.4l0.3-2.1h-2.1l0.5-2.3l-1.6-0.9l1.3-1.5l-1.2-2.1l1.9-0.7
		l-0.5-2.3h2.1l0.3-2.3l1.9,0.7l0.7-2.1l2,1.1l0.8-1.9l1.7,1.2l1.2-1.9l1.6,1.6l1.3-1.5l1.2,1.9l1.9-1.2l0.8,2l1.9-0.9l0.5,2.1
		l2.3-0.4l-0.1,2l2.3,0.3l-0.7,2l2,0.8L369.3,215.7L369.3,215.7z M368,215.7c0-4.3-4.9-7.7-11-7.7s-11,3.5-11,7.7
		c0,4.3,4.9,7.7,11,7.7S368,219.9,368,215.7z"/>
	<path class="st16" d="M353.3,211.8c0-0.5,0.3-0.7,0.5-0.7s0.5,0.1,0.5,0.7c0,0.5-0.3,0.7-0.5,0.7
		C353.6,212.3,353.3,212.2,353.3,211.8z M352.9,211.8c0,0.8,0.7,0.9,0.9,0.9s0.9-0.1,0.9-0.9s-0.7-0.9-0.9-0.9
		S352.9,210.9,352.9,211.8z M355.3,212.6h-0.4v-1.1h-0.1v-0.3h0.1v-0.1c0-0.3,0.1-0.4,0.4-0.4h0.1v0.3h-0.1c-0.1,0-0.1,0-0.1,0.1
		h0.3v0.3h-0.3L355.3,212.6z M356.1,212.6h-0.4v-1.1h-0.1v-0.3h0.1v-0.1c0-0.3,0.1-0.4,0.4-0.4h0.1v0.3h-0.1c-0.1,0-0.1,0-0.1,0.1
		h0.3v0.3H356L356.1,212.6z M356.8,211.3v1.3h-0.4v-1.3H356.8z M356.8,211.1h-0.4v-0.3h0.4V211.1z M358.3,212.2
		c0,0.1-0.1,0.5-0.7,0.5s-0.7-0.4-0.7-0.7c0-0.4,0.1-0.8,0.7-0.8c0.3,0,0.5,0.1,0.5,0.5h-0.4c0-0.1-0.1-0.3-0.3-0.3
		c-0.3,0-0.3,0.3-0.3,0.4s0,0.4,0.3,0.4c0.1,0,0.3-0.1,0.3-0.3L358.3,212.2z M358.8,211.3v1.3h-0.4v-1.3H358.8z M358.8,211.1h-0.4
		v-0.3h0.4V211.1z M359.9,212.2c0,0.1-0.1,0.3-0.3,0.3s-0.1,0-0.1-0.1s0.1-0.1,0.3-0.3c0.1,0,0.3,0,0.3-0.1v0.3L359.9,212.2
		L359.9,212.2z M360.3,211.7c0-0.3-0.4-0.4-0.5-0.4c-0.3,0-0.5,0-0.7,0.5h0.4c0-0.1,0-0.1,0.3-0.1c0.1,0,0.3,0,0.3,0.1
		s-0.1,0.1-0.1,0.1h-0.3c-0.3,0-0.4,0.1-0.4,0.4s0.3,0.4,0.4,0.4c0.3,0,0.4-0.1,0.4-0.1v0.1h0.4c0,0-0.1,0-0.1-0.3V211.7
		L360.3,211.7z M360.5,210.9h0.3v1.7h-0.3"/>
	<path class="st16" d="M356.9,222.7c5.7,0,10.4-3.2,10.4-7s-4.7-7-10.4-7s-10.4,3.2-10.4,7S351.2,222.7,356.9,222.7z M346.8,215.7
		c0-3.7,4.5-6.8,10.1-6.8s10.1,3.1,10.1,6.8c0,3.7-4.5,6.8-10.1,6.8S346.8,219.4,346.8,215.7z"/>
	<g>
		<path class="st16" d="M363.4,218.1c1.2,0,2.1-0.9,2.1-2.1s-0.9-2.1-2.1-2.1h-13.2c-1.2,0-2.1,0.9-2.1,2.1s0.9,2.1,2.1,2.1H363.4z
			 M350.3,217.5c-0.9,0-1.6-0.7-1.6-1.6s0.7-1.6,1.6-1.6h13c0.9,0,1.6,0.7,1.6,1.6s-0.7,1.6-1.6,1.6H350.3z"/>
		<path class="st16" d="M349.7,216.9v-2h0.7l0.8,1.3v-1.3h0.7v2h-0.7c0-0.1-0.8-1.3-0.8-1.3v1.3H349.7z M353.9,215.5h0.3
			c0.5-0.1,0.8,0.1,0.8,0.1c0.3,0.3,0.1,0.8,0.1,1.2h-0.7v-0.9c0-0.1-0.1-0.3-0.3-0.3s-0.3,0.1-0.3,0.3v0.9h-0.7v-1.3H353.9z
			 M355.1,215.5v-0.1h0.3v-0.3h0.7v0.3h0.4v0.1H356v1.3h-0.7v-1.3 M356.3,216.2c0-0.4,0.4-0.8,0.8-0.8h0.5c0.1,0,0.3,0,0.3,0.1
			c0.1,0.1,0.3,0.4,0.3,0.5h-1.1c0,0.1-0.1,0.5,0.3,0.5c0.1,0,0.1,0,0.3-0.1v-0.3h0.7c-0.1,0.4-0.5,0.5-0.9,0.5
			C357.1,217,356.4,216.9,356.3,216.2L356.3,216.2z M356.9,216.1h0.4v-0.1c0-0.1-0.1-0.3-0.3-0.3l-0.1,0.1V216.1z M362.5,216.5
			c-0.1-0.1-0.1-0.4,0-0.7c0.1-0.1,0.4-0.4,0.5-0.4s0.4-0.1,0.7,0c0.1,0,0.4,0.1,0.5,0.4c0.1,0.1,0.1,0.5,0,0.7l-0.4,0.4
			c-0.1,0-0.5,0.1-0.7,0C362.8,216.9,362.6,216.7,362.5,216.5z M363.3,216.7c0.1,0,0.3-0.1,0.3-0.3v-0.7c0-0.1,0-0.3-0.3-0.3
			s-0.3,0.1-0.3,0.3v0.7C363,216.6,363,216.7,363.3,216.7z M362.1,216.9h-0.5v-0.1c-0.1,0.1-0.8,0.1-1.1-0.4c0,0-0.1-0.4,0-0.7
			c0.1-0.4,0.5-0.4,0.8-0.4c0.1,0,0.3,0.1,0.3,0.1v-0.8h0.7C362.1,214.9,362.1,216.9,362.1,216.9z M361.6,216.6v-0.8l-0.1-0.1
			c-0.1,0-0.3,0.1-0.3,0.1v0.7c0,0,0,0.1,0.1,0.1C361.3,216.7,361.4,216.7,361.6,216.6L361.6,216.6z M352.3,215.5v1.3h0.7v-1.3
			 M352.3,214.9v0.4h0.7v-0.4 M358.9,215.5C359.1,215.5,359.1,215.5,358.9,215.5h0.3c0.5-0.1,0.8,0.1,0.8,0.1
			c0.3,0.3,0.1,0.8,0.1,1.2h-0.7v-0.9c0-0.1-0.1-0.3-0.3-0.3s-0.3,0.1-0.3,0.3v0.9h-0.7v-1.3H358.9z M363.8,215.3V215h0.3
			C364,215.1,364,215.3,363.8,215.3z M363.8,215.4c-0.1,0-0.1-0.1-0.1-0.1c0-0.1,0.1-0.1,0.1-0.1c0.1,0,0.1,0.1,0.1,0.1
			C364.1,215.3,364,215.4,363.8,215.4z M363.8,215c-0.1,0-0.1,0-0.1,0.1s0,0.1,0.1,0.1s0.1,0,0.1-0.1C364,215.1,364,215,363.8,215z"
			/>
	</g>
	<path class="st16" d="M473.3,203H454v27.5h19.4V203"/>
	<path d="M454.5,203.6H473V230h-18.5V203.6z"/>
	<path class="st16" d="M455.5,207.9h16.5v16.4h-16.5V207.9z M456.3,226c0,0.4-0.1,0.5-0.4,0.5c-0.5,0-0.5-0.3-0.5-0.7v-0.3
		c0-0.4,0-0.7,0.5-0.7c0.3,0,0.4,0.1,0.4,0.4v0.1H456c0-0.1,0-0.3-0.1-0.3c-0.3,0-0.3,0.3-0.3,0.4v0.4c0,0.1,0,0.3,0.3,0.3
		c0.1,0,0.1-0.3,0.1-0.4L456.3,226z M456.5,225.6c0-0.4,0-0.7,0.5-0.7s0.5,0.3,0.5,0.7v0.3c0,0.4,0,0.7-0.5,0.7
		c-0.4,0-0.5-0.3-0.5-0.7V225.6z M456.8,226c0,0.1,0,0.3,0.3,0.3s0.3-0.3,0.3-0.4v-0.4c0-0.1,0-0.4-0.3-0.4s-0.3,0.3-0.3,0.4V226
		L456.8,226z M458.5,225h0.3v1.5h-0.3l-0.3-0.5c-0.1-0.1-0.1-0.4-0.3-0.5v1.1h-0.3V225h0.3l0.3,0.5c0.1,0.1,0.1,0.4,0.3,0.5V225z
		 M459.8,225.2h-0.3v1.2h-0.3v-1.2h-0.4V225h0.9 M460.9,226.3v0.1H460V225h0.9v0.3h-0.5v0.4h0.4v0.1h-0.4v0.5"/>
	<path class="st16" d="M461.7,225h0.3v1.5h-0.3l-0.3-0.5c-0.1-0.1-0.1-0.4-0.3-0.5v1.1h-0.3V225h0.3l0.3,0.5
		c0.1,0.1,0.1,0.4,0.3,0.5V225z M463.2,225.2h-0.4v1.2h-0.3v-1.2h-0.3V225h0.9 M464.1,225.9v0.7h-0.3v-1.5h0.5
		c0.3,0,0.4,0.1,0.4,0.4c0,0.1,0,0.3-0.3,0.4c0.1,0,0.3,0.1,0.3,0.3v0.4h-0.3v-0.4c0-0.1,0-0.3-0.1-0.3L464.1,225.9L464.1,225.9z
		 M464.1,225.6h0.3c0.1,0,0.1,0,0.1-0.3c0-0.1-0.1-0.1-0.1-0.1h-0.3V225.6z M464.9,226.4l0.4-1.5h0.4l0.4,1.5h-0.3l-0.1-0.4h-0.4
		l-0.1,0.4H464.9z M465.4,225.9h0.3l-0.1-0.4v-0.4v0.4L465.4,225.9z M467,225.2h-0.3v1.2h-0.3v-1.2h-0.4V225h0.9 M468.1,226.3v0.1
		h-0.9V225h0.9v0.3h-0.5v0.4h0.4v0.1h-0.4v0.5 M468.2,226.4V225h0.5c0.1,0,0.3,0,0.3,0.1s0.1,0.3,0.1,0.5c0,0.3,0,0.7-0.3,0.8H468.2
		z M468.6,226.3c0.3,0,0.3-0.1,0.3-0.5c0-0.4,0-0.5-0.3-0.5h-0.1L468.6,226.3L468.6,226.3z M469.9,226.4V225h0.4
		c0.1,0,0.3,0,0.3,0.1s0.1,0.1,0.1,0.3s0,0.3-0.1,0.3c0.1,0,0.3,0.1,0.3,0.4v0.1c0,0.1-0.1,0.3-0.4,0.3L469.9,226.4L469.9,226.4z
		 M470.3,226.3h0.1c0.1,0,0.1-0.1,0.1-0.3c0-0.1,0-0.3-0.3-0.3h-0.1L470.3,226.3z M470.3,225.6h0.3v-0.1c0-0.1,0-0.1-0.1-0.1h-0.1
		V225.6z M471.5,225.4v0.3c0-0.1,0-0.1,0.1-0.3l0.1-0.4h0.3l-0.4,0.8v0.7h-0.3v-0.7L471,225h0.3L471.5,225.4z M458.6,228.6v0.5h-3.2
		V227h3.1v0.5h-1.9v0.3h1.6v0.5h-1.6v0.3 M461.7,227.6c0-0.1-0.1-0.1-0.1-0.1h-0.3c-0.3,0-0.4,0-0.4,0.1c0,0.3,2.1,0.1,2.1,0.9
		c0,0.5-0.8,0.8-1.7,0.8c-0.9,0-1.6-0.4-1.7-0.7h1.2c0,0.1,0.1,0.1,0.3,0.1h0.4c0.3,0,0.5,0,0.5-0.1c0-0.3-2.1-0.1-2.1-0.9
		c0-0.4,0.7-0.7,1.6-0.7c1.1,0,1.5,0.3,1.6,0.7h-1.3V227.6L461.7,227.6z M465.2,228.3v0.8H464V227h1.7c1.2,0,1.7,0.1,1.7,0.7
		c0,0.3-0.1,0.4-0.7,0.5c0.4,0.1,0.7,0.1,0.7,0.5c0,0.3,0,0.4,0.1,0.4h-1.2v-0.4c0-0.3-0.1-0.4-0.7-0.4L465.2,228.3L465.2,228.3z
		 M465.2,227.9h0.5c0.4,0,0.5,0,0.5-0.3c0-0.1-0.3-0.3-0.5-0.3h-0.5V227.9z M468.6,229.1V227h1.9c0.8,0,1.5,0.1,1.5,0.5
		c0,0.3-0.3,0.4-0.5,0.5c0.4,0,0.7,0.3,0.7,0.5c0,0.5-0.7,0.7-1.6,0.7h-1.9L468.6,229.1z M469.8,228.2v0.4h0.5c0.3,0,0.5,0,0.5-0.1
		s-0.3-0.3-0.7-0.3H469.8z M469.8,227.5v0.4h0.5c0.3,0,0.4,0,0.4-0.1s-0.3-0.1-0.5-0.1h-0.4V227.5z"/>
	<path d="M456,209.4c0-0.5,0.4-0.8,0.9-0.8s0.9,0.4,0.9,0.8c0,0.5-0.4,0.9-0.9,0.9S456,209.9,456,209.4 M457.7,209.4
		c0-0.4-0.4-0.7-0.8-0.7s-0.8,0.3-0.8,0.7s0.4,0.7,0.8,0.7S457.7,209.8,457.7,209.4 M456.7,209.5v0.4h-0.1v-1.1h0.4
		c0.3,0,0.4,0,0.4,0.3c0,0.1-0.1,0.3-0.3,0.3c0.1,0,0.1,0.1,0.1,0.3v0.3h-0.3v-0.4H456.7 M456.9,209.3c0.1,0,0.3-0.1,0.3-0.1
		c0-0.1,0-0.1-0.1-0.1h-0.4v0.3H456.9z"/>
	<path class="st16" d="M471.3,206.4h-0.7V206h0.7v-0.8h0.4v0.8h0.7v0.4h-0.7v0.7h-0.4 M469.4,207l0.7-2.1h-0.8v-0.4h1.2v0.5l-0.5,2
		 M467.8,204.9c0.1-0.1,0.4-0.3,0.4-0.4h0.4v2.5h-0.5v-2c-0.1,0.1-0.3,0.3-0.4,0.3v-0.4H467.8z M466.8,207v-0.4h-0.9v-0.8h0.8v-0.4
		h-0.8v-0.7h0.9v-0.4h-1.3v2.7 M464.6,205.7c0.4,0,0.4-0.3,0.4-0.7s-0.3-0.7-0.5-0.7h-0.9v2.7h0.5V206h0.1c0.4,0,0.4,0.3,0.4,0.5
		v0.5h0.5v-0.8C465,205.8,464.8,205.7,464.6,205.7 M464.2,205.6H464v-0.8h0.3c0.1,0,0.3,0.1,0.3,0.4
		C464.5,205.3,464.5,205.6,464.2,205.6 M462.8,206.2c0,0.3-0.1,0.4-0.3,0.4s-0.3-0.1-0.3-0.4v-1.9h-0.5v1.9c0,0.5,0.3,0.8,0.8,0.8
		c0.7,0,0.8-0.4,0.8-0.8v-1.9h-0.5V206.2z M460.4,207h0.5v-2.1h0.5v-0.5h-1.7v0.5h0.7 M458.6,204.4L458,207h0.5l0.1-0.5h0.7l0.1,0.5
		h0.5l-0.7-2.7L458.6,204.4L458.6,204.4z M458.8,206.1l0.3-1.2l0.3,1.2H458.8z M456.3,204.4h-0.8v2.7h0.4v-2h0.1l0.4,2h0.5l0.4-2v2
		h0.5v-2.7h-0.8l-0.4,1.9"/>
	<path d="M464.1,217.1l-0.8-7.4l5.2-1.3l3.2,12l-3.2,0.8l-2.3-8.5l0.9,8.9l-3.5,0.9l-3.6-8.2l2.3,8.6l-3.1,0.8l-3.3-12l5.2-1.3"/>
</g>
</svg>
