<?xml version="1.0" encoding="utf-8"?>
<!-- Generator: Adobe Illustrator 23.1.0, SVG Export Plug-In . SVG Version: 6.00 Build 0)  -->
<svg version="1.1" id="Calque_1" xmlns="http://www.w3.org/2000/svg" xmlns:xlink="http://www.w3.org/1999/xlink" x="0px" y="0px"
	 viewBox="0 0 500 186.7" style="enable-background:new 0 0 500 186.7;" xml:space="preserve">
<style type="text/css">
	.st0{fill:#282424;}
	.st1{fill:#312F2F;}
	.st2{fill:#3F3F3F;}
	.st3{fill:#181515;}
	.st4{fill:#30302F;}
	.st5{fill:#2C2929;}
	.st6{fill:#241C1E;}
	.st7{fill:#EFF8FB;}
	.st8{fill:#010102;}
	.st9{fill:#363636;}
	.st10{fill:#464646;}
	.st11{fill:#424141;}
	.st12{fill:#3F4040;}
	.st13{fill:#333333;}
	.st14{fill:#631418;}
	.st15{fill:#212020;}
	.st16{fill:#5C5C5C;}
	.st17{fill:#F95D5D;}
	.st18{fill:#444546;}
	.st19{fill:#2B84C6;}
	.st20{fill:#0F1317;}
	.st21{fill:#9B877A;}
	.st22{fill:#4B96D2;}
	.st23{fill:#A299A1;}
	.st24{fill:#AB9986;}
	.st25{fill:none;stroke:#0F1317;stroke-width:7.600114e-02;stroke-miterlimit:10;}
</style>
<g>
	<g>
		<path class="st0" d="M178.4,0h35.8v186.7h-35.8V0z"/>
		<path class="st0" d="M214.2,182.5h16.6v4.2h-16.6V182.5z"/>
	</g>
	<g transform="scale(0.54442694,0.54442694)">
		<path class="st1" d="M24.7,0h10.1v1.9h287.4V0h10.1C354.7,0.9,357,20.4,357,20.4v286.8c0,0,0.6,5.7-2.1,8.5
			c-5.2,5.4-23.2,23.3-27.2,27.3H26.1c0,0-21.3-20.6-23.5-21.6c-1.5-2-2.6-5.4-2.6-13.7V20.3C0,20.3,2.4,1,24.7,0z"/>
		<path class="st2" d="M327.9,342.3c-0.1,0.3-0.1,0.5-0.2,0.6H28.1c0,0-8.2-138.1,41.8-144.9c9.2-1.1,20.8,1.3,46.9,7.6
			c26.2,6.2,95.9,6.2,122.1,0c26.2-6.2,37.6-7.6,46.9-7.6c17.3,0,28,16.9,34.5,39.2C332,277.3,329.9,334.8,327.9,342.3z"/>
		<path class="st3" d="M178.6,215.1c-35.4,0-42.4-1.7-48.5-2.5c-6-0.8-4.2,4.7-4.2,4.7s3.1,20.4,3.5,28.1c0.4,7.7,8.7,6.7,8.7,6.7
			h81c0,0,8.3,1.1,8.7-6.7s3.5-28.1,3.5-28.1s1.8-5.5-4.2-4.7C221,213.4,213.9,215.1,178.6,215.1z"/>
		<ellipse class="st4" cx="178.6" cy="106" rx="152.1" ry="87.4"/>
		<ellipse class="st3" cx="178.6" cy="105.8" rx="150.5" ry="85.7"/>
		<ellipse class="st5" cx="178.6" cy="103.8" rx="123.7" ry="69.5"/>
		<path class="st6" d="M186.3,140.3l-7.9-8l-7.6,8"/>
		<g>
			<path class="st7" d="M202.3,239h-7.6v-1.8h5.2c-0.4-1.1-0.7-2.1-1-3c-0.8-2.3-1.5-4.7-2.3-7c-0.2-0.6-0.7-1.2-1.2-1.4
				c-0.8-0.2-1.1,0.7-1.3,1.4c-1.2,3.6-2.3,7.1-3.5,10.7c-0.3,0.8-0.6,1.1-1.5,1.1c-2.3-0.1-4.7,0-7,0c-2.4,0-3.9-1.6-3.9-4
				c0-2.2-0.1-4.4,0-6.6c0.1-2.5,1.5-4,3.9-4h6.4v1.9h-5.4c-2.5,0-3.1,0.6-3.1,3.3v5c0,1.8,0.8,2.6,2.5,2.7h4.1v-5.8h-3.4v-1.8h5.4
				v7.6h0.3c1.1-3.5,2.3-7,3.4-10.5c0.6-2,1.8-2.8,3.8-2.5c1.1,0.2,1.9,0.8,2.2,1.8c1.4,4.2,2.7,8.4,4.1,12.6
				C202.4,238.8,202.3,238.9,202.3,239z M154.8,239v-1.8h6c1.7,0,2.9-1.2,3-2.8c0.1-1.5-1.2-2.9-2.8-3c-0.7,0-1.3,0-2-0.1
				c-1-0.1-1.8-1.1-1.8-2.2s0.7-2.1,1.8-2.1c2.2-0.1,4.3,0,6.6,0v1.8h-6.4v0.6c0.6,0,1.2,0.1,1.8,0.1c2.3,0.1,3.9,1.4,4.5,3.7
				c0.7,2.8-1.3,5.7-4,5.8C159.3,239.1,157.2,239,154.8,239z"/>
			<path class="st7" d="M154.8,236.5v-1.9h6.4v-0.5c-0.7,0-1.3-0.1-2-0.1c-1.8,0-3.2-0.9-4-2.6c-0.8-1.7-0.7-3.4,0.4-5
				c0.7-1.1,1.8-1.8,3-1.9c2.2-0.1,4.5,0,6.8,0v1.8h-6.1c-2,0-3.3,1.9-2.7,3.8c0.4,1.1,1.4,1.9,2.7,2c0.6,0,1.3,0,1.9,0.1
				c1,0.1,1.8,1.1,1.8,2.1c0,1.1-0.8,2.1-1.7,2.2C161.3,236.5,154.8,236.5,154.8,236.5z M177.3,224.5v1.8h-6c-2.1,0-2.8,0.7-2.8,2.9
				v5.2c0,2,0.8,2.8,2.7,2.8h6v1.9H170c-1.7-0.1-3.2-1.7-3.3-3.5c-0.1-2.5-0.1-5.1,0-7.6c0-1.6,1.4-3.3,3-3.4
				C172.2,224.4,174.7,224.5,177.3,224.5z M190.9,238.9c1.3-4,2.5-7.9,3.8-11.7c0.1-0.3,0.4-0.6,0.6-0.7c0.1-0.1,0.5,0.3,0.6,0.5
				c1,3.1,2.1,6.2,3.1,9.4h-4.3c0-0.5-0.1-0.9-0.1-1.3c-0.1,0-0.1,0-0.2-0.1c-0.2,0.7-0.5,1.4-0.7,2.2
				C193,239.2,193,239.2,190.9,238.9z M194.6,234.4h1.5c-0.2-0.7-0.4-1.4-0.6-2h-0.3C195.1,233,194.9,233.6,194.6,234.4z
				 M184.5,234.2c-0.6-0.2-0.9-0.3-1.3-0.4v-1.6h2.8v4.3c-1.4,0-2.9,0.1-4.3-0.1c-0.4,0-0.9-0.7-1-1.2c-0.1-2.3-0.1-4.6,0-6.9
				c0-0.8,0.5-1.3,1.3-1.3h6.5v1.8h-4.8c-1,0-1.3,0.3-1.3,1.3c0.1,1.1,0,2.2,0,3.2C182.5,234.7,183.1,235,184.5,234.2z"/>
			<path class="st7" d="M171.1,234.5c2,0.4,4,0,6.1,0.2v1.7c-2.4,0-4.7,0.1-7-0.1c-0.4,0-0.9-0.8-1-1.3c-0.2-0.9,0-1.9,0-3h6.6v1.7
				h-4.6C171.2,234.1,171.1,234.3,171.1,234.5z M177.3,227v1.7c-2,0.3-4.1-0.2-6.1,0.3v0.5h4.6v1.8h-6.5c0-1.1-0.1-2.2,0-3.3
				c0.1-0.4,0.7-1,1-1H177.3z"/>
		</g>
		<path class="st6" d="M152.6,144.9l-1.3,0.1c0-0.9-0.3-1.4-0.9-1.4c-0.7,0-1,0.7-1,2.1c0,0.8,0.1,1.4,0.3,1.6
			c0.2,0.3,0.4,0.4,0.8,0.4c0.5,0,0.8-0.4,1-1.2l1.2,0.1c-0.1,0.8-0.3,1.4-0.7,1.8c-0.4,0.4-0.9,0.6-1.5,0.6c-0.7,0-1.3-0.3-1.8-0.9
			c-0.4-0.6-0.7-1.4-0.7-2.4s0.2-1.8,0.7-2.4c0.4-0.6,1-0.9,1.8-0.9C151.7,142.4,152.4,143.2,152.6,144.9L152.6,144.9z M155.5,142.5
			l1.7,6.4h-1.4l-0.3-1.3h-1.8l-0.3,1.3h-1.1l1.7-6.4C154,142.5,155.5,142.5,155.5,142.5z M154.1,146.4h1.2l-0.6-2.3
			C154.7,144.1,154.1,146.4,154.1,146.4z M158.8,146.4v2.5h-1.3v-6.4h2.4c0.4,0,0.8,0.1,1.1,0.2c0.3,0.1,0.5,0.3,0.7,0.7
			c0.2,0.3,0.3,0.7,0.3,1.1c0,0.8-0.3,1.3-0.9,1.7l1,2.8h-1.4l-0.8-2.5h-1.1V146.4z M158.8,143.7v1.6h0.8c0.3,0,0.4,0,0.6-0.1
			c0.1,0,0.2-0.1,0.3-0.3c0.1-0.1,0.1-0.3,0.1-0.5s0-0.3-0.1-0.5s-0.2-0.2-0.3-0.3h-1.4L158.8,143.7z M166.1,142.5v1.3h-1.3v5.2
			h-1.3v-5.2h-1.4v-1.3H166.1z M167.8,146.4v2.5h-1.3v-6.4h2.4c0.4,0,0.8,0.1,1.1,0.2c0.3,0.1,0.5,0.3,0.7,0.7
			c0.2,0.3,0.3,0.7,0.3,1.1c0,0.8-0.3,1.3-0.9,1.7l1,2.8h-1.4l-0.8-2.5h-1.1V146.4z M167.8,143.7v1.6h0.8c0.3,0,0.4,0,0.6-0.1
			c0.1,0,0.2-0.1,0.3-0.3c0.1-0.1,0.1-0.3,0.1-0.5s0-0.3-0.1-0.5l-0.3-0.3h-1.4L167.8,143.7z M172.5,142.5v6.4h-1.3v-6.4H172.5z
			 M172.9,142.5h1.7c0.7,0,1.2,0.1,1.5,0.3s0.6,0.6,0.9,1.1c0.3,0.5,0.4,1.1,0.4,1.8c0,0.9-0.2,1.7-0.7,2.3s-1.1,0.9-1.9,0.9h-1.9
			C172.9,148.9,172.9,142.5,172.9,142.5z M174.2,143.7v4h0.5c0.5,0,0.8-0.2,1-0.6c0.2-0.4,0.3-0.9,0.3-1.4c0-0.4-0.1-0.7-0.2-1.1
			c-0.1-0.3-0.3-0.6-0.5-0.7c-0.2-0.1-0.4-0.2-0.7-0.2C174.6,143.7,174.2,143.7,174.2,143.7z M182.1,145.5c0,0,0,2-0.7,2.8
			c-0.7,0.7-0.9,0.8-1.5,0.8c-0.7,0-1.3-0.3-1.7-0.9c-0.4-0.6-0.6-1.4-0.6-2.3c0-1,0.2-1.8,0.6-2.5c0.4-0.6,1-0.9,1.7-0.9
			c0.6,0,1.1,0.2,1.5,0.6c0.4,0.4,0.6,0.9,0.7,1.6l-1.2,0.2c-0.1-0.8-0.4-1.2-0.9-1.2c-0.3,0-0.6,0.2-0.8,0.6
			c-0.2,0.4-0.3,0.9-0.3,1.6c0,0.7,0.1,1.2,0.3,1.5s0.5,0.5,0.8,0.5c0.2,0,0.4-0.1,0.6-0.3c0.2-0.2,0.3-0.5,0.3-0.8h-1v-1.2h2.2
			L182.1,145.5z M186.3,143.7h-2.6v1.3h2v1.2h-2v1.4h2.6v1.3h-3.9v-6.4h3.9V143.7z M191.3,142.5v6.4H190v-6.4
			C190,142.5,191.3,142.5,191.3,142.5z M195.8,142.5v6.4h-1.1l-2.1-4.3v4.3h-1v-6.4h1.4l1.8,3.8v-3.8
			C194.8,142.5,195.8,142.5,195.8,142.5z M197.3,146.6v2.4H196v-6.4h2.1c0.5,0,0.8,0.1,1.1,0.2c0.3,0.1,0.5,0.3,0.7,0.6
			s0.3,0.7,0.3,1.1c0,0.3-0.1,0.6-0.2,0.9c-0.1,0.3-0.3,0.5-0.4,0.7c-0.2,0.2-0.4,0.3-0.6,0.3c-0.2,0.1-0.5,0.1-0.9,0.1L197.3,146.6
			L197.3,146.6z M197.3,145.4h0.8c0.3,0,0.5-0.1,0.7-0.3s0.2-0.4,0.2-0.6c0-0.3-0.1-0.5-0.2-0.6c-0.1-0.2-0.4-0.2-0.6-0.2h-0.8
			L197.3,145.4L197.3,145.4z M204.8,142.5v4c0,0.6-0.1,1.1-0.2,1.4c-0.1,0.3-0.4,0.6-0.7,0.8s-0.8,0.3-1.3,0.3s-0.9-0.1-1.2-0.3
			s-0.5-0.4-0.7-0.8c-0.2-0.4-0.2-0.8-0.2-1.5v-4h1.4v4c0,0.3,0,0.6,0.1,0.8c0,0.2,0.1,0.3,0.3,0.4c0.2,0.1,0.3,0.1,0.5,0.1
			s0.4,0,0.6-0.1c0.2-0.1,0.2-0.2,0.3-0.4c0-0.2,0.1-0.4,0.1-0.8v-4h1L204.8,142.5z M209.1,142.5v1.3h-1.3v5.2h-1.3v-5.2h-1.4v-1.3
			H209.1z"/>
		<path class="st3" d="M272.3,122.3H84.8c-10.3,0-18.8-8.5-18.8-18.8V101c0-10.3,8.5-18.8,18.8-18.8h187.4
			c10.3,0,18.8,8.5,18.8,18.8v2.5C291.1,113.8,282.6,122.3,272.3,122.3z"/>
		<path d="M178.2,117.8H267c5.9,0,10.8-4.6,10.8-20.3H267v-8.1h0.4H89.8h0.4v8.1H79.4c0,15.6,4.8,20.3,10.8,20.3H179"/>
		<path class="st0" d="M178.2,116.7h87.9c5.9,0,10.7-4.3,10.7-18.8h-10.7v-7.5h0.4H90.6H91V98H80.3c0,14.5,4.8,18.8,10.7,18.8h87.9"
			/>
		<path class="st8" d="M80.9,104.9h195.4v1H80.9V104.9z"/>
		<path class="st9" d="M103.7,93.3h-1.9c0-0.4,0.4-0.8,0.9-0.8S103.7,92.9,103.7,93.3z"/>
		<path class="st10" d="M103.7,101.8h-1.9c0,0.4,0.4,0.8,0.9,0.8S103.7,102.3,103.7,101.8z"/>
		<path class="st11" d="M101.8,93.3h1.9v8.6h-1.9V93.3z"/>
		<path class="st9" d="M103.7,108.2h-1.9c0-0.3,0.4-0.6,0.9-0.6S103.7,107.8,103.7,108.2z"/>
		<path class="st10" d="M103.7,115.1h-1.9c0,0.3,0.4,0.6,0.9,0.6S103.7,115.4,103.7,115.1z"/>
		<path class="st11" d="M101.8,108.2h1.9v6.9h-1.9V108.2z"/>
		<path class="st9" d="M253.4,93.3h1.9c0-0.4-0.4-0.8-0.9-0.8S253.4,92.9,253.4,93.3z"/>
		<path class="st10" d="M253.4,101.8h1.9c0,0.4-0.4,0.8-0.9,0.8S253.4,102.3,253.4,101.8z"/>
		<path class="st11" d="M253.4,93.3h1.9v8.6h-1.9V93.3z"/>
		<path class="st9" d="M253.4,108.2h1.9c0-0.3-0.4-0.6-0.9-0.6S253.4,107.8,253.4,108.2z"/>
		<path class="st10" d="M253.4,115.1h1.9c0,0.3-0.4,0.6-0.9,0.6S253.4,115.4,253.4,115.1z"/>
		<path class="st11" d="M253.4,108.2h1.9v6.9h-1.9V108.2z"/>
		<path class="st3" d="M43.5,220.3c6.2-12.2,16-18.4,27.5-20c9.2-1.1,22.7,3.9,48.9,10.1c13.1,3.1,33.9,4.7,58,4.6
			c24.1,0,44.9-1.5,58-4.6c26.2-6.2,39.6-11.2,48.9-10.1c11.5,1.6,22.5,7.4,28.6,19.6c-6.5-13.2-15.5-21.9-28-21.9
			c-9.3,0-20.8,1.3-46.9,7.6c-13,3.1-36.8,4.7-60.6,4.7c-24.1,0-48.3-1.5-61.4-4.7c-26.2-6.2-37.7-8.7-46.9-7.6
			C58.1,199.6,49.7,208.1,43.5,220.3z"/>
		<path class="st12" d="M286.3,277.2c0,13.2-15.2,15.5-15.2,15.5h-185c-2.7,0-15.2-2.2-15.2-15.5c0-13.2,15.2-15.5,15.2-15.5h185
			C271.1,261.7,286.3,264,286.3,277.2z"/>
		<path class="st13" d="M274,289.1H83.4c-4.8,0-8.8-3.9-8.8-8.8v-6.1c0-4.8,3.9-8.8,8.8-8.8H274c4.8,0,8.8,3.9,8.8,8.8v6.1
			C282.8,285.2,278.9,289.1,274,289.1z"/>
		<path class="st14" d="M174.3,284h-2.6c-0.3,0-0.6-0.3-0.6-0.6v-11.5c0-0.3,0.3-0.6,0.6-0.6h2.6c0.3,0,0.6,0.3,0.6,0.6v11.5
			C174.9,283.7,174.6,284,174.3,284z M179.8,284h-2.6c-0.3,0-0.6-0.3-0.6-0.6v-11.5c0-0.3,0.3-0.6,0.6-0.6h2.6
			c0.3,0,0.6,0.3,0.6,0.6v11.5C180.5,283.7,180.2,284,179.8,284z M185.4,284h-2.6c-0.3,0-0.6-0.3-0.6-0.6v-11.5
			c0-0.3,0.3-0.6,0.6-0.6h2.6c0.3,0,0.6,0.3,0.6,0.6v11.5C186,283.7,185.7,284,185.4,284z"/>
		<path class="st15" d="M271.8,285.4h-35.7c-3.4,0-6.1-2.7-6.1-6.1V275c0-3.4,2.7-6.1,6.1-6.1h35.7c3.4,0,6.1,2.7,6.1,6.1v4.3
			C277.9,282.7,275.1,285.4,271.8,285.4z M121.7,285.4H86c-3.4,0-6.1-2.7-6.1-6.1V275c0-3.4,2.7-6.1,6.1-6.1h35.7
			c3.4,0,6.1,2.7,6.1,6.1v4.3C127.8,282.7,125.1,285.4,121.7,285.4z"/>
		<path class="st16" d="M116.3,280.6H92c-1,0-1.8-0.8-1.8-1.8v-3.2c0-1,0.8-1.8,1.8-1.8h24.3c1,0,1.8,0.8,1.8,1.8v3.2
			C118.1,279.8,117.3,280.6,116.3,280.6z"/>
		<path class="st6" d="M93.9,275.3h1.9c0.1,0,0.3,0,0.4,0.1c0.1,0,0.2,0.1,0.3,0.1c0.1,0.1,0.2,0.1,0.2,0.2c0.1,0.1,0.1,0.2,0.2,0.3
			c0,0.1,0.1,0.3,0.1,0.4c0,0.4-0.1,0.7-0.4,0.9c-0.3,0.2-0.6,0.3-1.1,0.3h-0.8v1.5H94L93.9,275.3L93.9,275.3z M94.6,277.1h1.1
			l0.2-0.1c0.1,0,0.1-0.1,0.1-0.2v-0.2c0-0.1,0-0.2-0.1-0.3c0-0.1-0.1-0.1-0.2-0.2c-0.1,0-0.2-0.1-0.2-0.1h-1.1v1.1L94.6,277.1z
			 M99.4,275.2c0.3,0,0.5,0,0.8,0.1s0.4,0.2,0.6,0.4c0.2,0.2,0.3,0.4,0.4,0.6c0.1,0.3,0.1,0.5,0.1,0.8s0,0.6-0.1,0.8
			c-0.1,0.3-0.2,0.5-0.4,0.6c-0.2,0.2-0.4,0.3-0.6,0.4s-0.5,0.1-0.8,0.1s-0.5,0-0.8-0.1c-0.2-0.1-0.4-0.2-0.6-0.4
			c-0.2-0.2-0.3-0.4-0.4-0.6c-0.1-0.3-0.1-0.5-0.1-0.8s0-0.6,0.1-0.8c0.1-0.3,0.2-0.5,0.4-0.6c0.2-0.2,0.4-0.3,0.6-0.4
			C98.9,275.3,99.2,275.2,99.4,275.2z M99.4,278.7c0.2,0,0.3,0,0.5-0.1c0.1-0.1,0.3-0.2,0.4-0.3c0.1-0.1,0.2-0.3,0.2-0.4
			c0.1-0.2,0.1-0.4,0.1-0.6s0-0.4-0.1-0.6s-0.1-0.3-0.2-0.4s-0.2-0.2-0.4-0.3c-0.1-0.1-0.3-0.1-0.5-0.1s-0.3,0-0.5,0.1
			c-0.1,0.1-0.3,0.2-0.4,0.3c-0.1,0.1-0.2,0.3-0.2,0.4c-0.1,0.2-0.1,0.4-0.1,0.6s0,0.4,0.1,0.6s0.1,0.3,0.2,0.4s0.2,0.2,0.4,0.3
			C99.1,278.6,99.3,278.7,99.4,278.7z M106.9,275.3l-1.1,4h-0.7l-0.8-2.9l-0.8,2.9h-0.7l-1.1-4h0.8l0.7,2.7l0.7-2.7h0.8l0.7,2.7
			l0.7-2.7H106.9z M110.5,279.3h-3v-4h2.9v0.7h-2.2v0.9h2.1v0.7h-2.1v1h2.3L110.5,279.3L110.5,279.3z M114.7,279.3h-0.8l-0.4-1.1
			c0-0.1-0.1-0.1-0.1-0.2s-0.1-0.1-0.2-0.2c-0.1,0-0.1-0.1-0.2-0.1h-1v1.6h-0.7v-4h2.4c0.1,0,0.2,0,0.3,0.1c0.1,0,0.2,0.1,0.2,0.1
			l0.2,0.2c0,0.1,0.1,0.1,0.1,0.2s0.1,0.2,0.1,0.2v0.2c0,0.2-0.1,0.4-0.2,0.6s-0.3,0.3-0.5,0.4c0.2,0.1,0.3,0.3,0.4,0.6L114.7,279.3
			L114.7,279.3z M112,277h1.3c0.1,0,0.2,0,0.2-0.1c0.1,0,0.1-0.1,0.1-0.2v-0.2c0-0.2-0.1-0.3-0.2-0.4s-0.3-0.1-0.5-0.1H112V277
			L112,277z"/>
		<path class="st16" d="M266.1,280.6h-24.3c-1,0-1.8-0.8-1.8-1.8v-3.2c0-1,0.8-1.8,1.8-1.8h24.3c1,0,1.8,0.8,1.8,1.8v3.2
			C267.9,279.8,267.1,280.6,266.1,280.6z"/>
		<path class="st6" d="M248.3,279.3h-0.8l-0.4-1.1c0-0.1-0.1-0.1-0.1-0.2s-0.1-0.1-0.2-0.2c-0.1,0-0.1-0.1-0.2-0.1h-1v1.6h-0.7v-4
			h2.4c0.1,0,0.2,0,0.3,0.1c0.1,0,0.2,0.1,0.2,0.1l0.2,0.2c0,0.1,0.1,0.1,0.1,0.2s0.1,0.2,0.1,0.2v0.2c0,0.2-0.1,0.4-0.2,0.6
			c-0.1,0.2-0.3,0.3-0.5,0.4c0.2,0.1,0.3,0.3,0.4,0.6L248.3,279.3L248.3,279.3z M245.6,277h1.3c0.1,0,0.2,0,0.2-0.1
			c0.1,0,0.1-0.1,0.1-0.2v-0.2c0-0.2-0.1-0.3-0.2-0.4c-0.1-0.1-0.3-0.1-0.5-0.1h-1.1v1L245.6,277z M252,279.3h-3v-4h2.9v0.7h-2.2
			v0.9h2.1v0.7h-2.1v1h2.3V279.3L252,279.3z M254.3,279.3c-0.3,0-0.5,0-0.7-0.1s-0.4-0.2-0.5-0.3c-0.1-0.1-0.3-0.3-0.3-0.5
			c-0.1-0.2-0.1-0.4-0.1-0.6h0.7c0,0.1,0,0.3,0.1,0.4s0.1,0.2,0.2,0.3c0.1,0.1,0.2,0.1,0.3,0.1h0.7c0.1,0,0.2-0.1,0.3-0.1
			s0.1-0.1,0.2-0.2c0-0.1,0.1-0.1,0.1-0.2s0-0.2-0.1-0.2c0-0.1-0.1-0.1-0.2-0.2c-0.1,0-0.2-0.1-0.3-0.1s-0.3-0.1-0.5-0.1
			c-0.2-0.1-0.4-0.1-0.6-0.2c-0.2-0.1-0.3-0.1-0.4-0.2c-0.1-0.1-0.2-0.2-0.2-0.3c-0.1-0.1-0.1-0.3-0.1-0.4c0-0.2,0-0.3,0.1-0.5
			c0.1-0.1,0.2-0.3,0.3-0.4c0.1-0.1,0.3-0.2,0.5-0.2c0.2-0.1,0.4-0.1,0.6-0.1c0.2,0,0.4,0,0.6,0.1c0.2,0.1,0.3,0.1,0.5,0.3
			c0.2,0.2,0.2,0.3,0.3,0.4c0.1,0.2,0.1,0.4,0.1,0.6H255c-0.1-0.4-0.3-0.7-0.8-0.7c-0.2,0-0.4,0-0.5,0.1s-0.2,0.2-0.2,0.3v0.1
			l0.1,0.1c0.1,0,0.1,0.1,0.2,0.1s0.2,0.1,0.3,0.1s0.2,0.1,0.4,0.1c0.1,0,0.2,0.1,0.4,0.1c0.1,0,0.2,0.1,0.3,0.2s0.2,0.1,0.3,0.2
			s0.1,0.2,0.2,0.3c0,0.1,0.1,0.3,0.1,0.4c0,0.2,0,0.3-0.1,0.5s-0.2,0.3-0.3,0.4s-0.3,0.2-0.5,0.3
			C254.7,279.3,254.5,279.3,254.3,279.3L254.3,279.3z M259.6,279.3h-3v-4h2.9v0.7h-2.2v0.9h2.1v0.7h-2.1v1h2.3L259.6,279.3
			L259.6,279.3z M263.3,276h-1.2v3.3h-0.7V276h-1.2v-0.7h3.2L263.3,276L263.3,276z"/>
		<path class="st17" d="M184.7,282.8h-1.2c-0.3,0-0.6-0.3-0.6-0.6v-9.1c0-0.3,0.3-0.6,0.6-0.6h1.2c0.3,0,0.6,0.3,0.6,0.6v9.1
			C185.3,282.5,185,282.8,184.7,282.8z M179.2,282.8H178c-0.3,0-0.6-0.3-0.6-0.6v-9.1c0-0.3,0.3-0.6,0.6-0.6h1.2
			c0.3,0,0.6,0.3,0.6,0.6v9.1C179.8,282.5,179.5,282.8,179.2,282.8z M173.6,282.8h-1.2c-0.3,0-0.6-0.3-0.6-0.6v-9.1
			c0-0.3,0.3-0.6,0.6-0.6h1.2c0.3,0,0.6,0.3,0.6,0.6v9.1C174.2,282.5,173.9,282.8,173.6,282.8z"/>
		<g>
			<path class="st7" d="M235.9,73.1H121.2l-8.4-4.9v-11l7.9-4.6h115.7l8,4.7v11C244.4,68.3,235.9,73.1,235.9,73.1z M121.5,72.1
				h114.2l7.6-4.5v-9.8l-7.2-4.2H121l-7.2,4.2v9.8C113.8,67.6,121.5,72.1,121.5,72.1z"/>
			<path class="st7" d="M197,66h7.6v-1.7h-11.7v-4.6l4.3-3h12.9l-4.3,2.9h-7.7v1.8h11.7v4.7l-4.2,2.8h-12.9 M211.4,56.7h5.3v12.2
				h-5.3 M222.8,66h7.6v-1.7h-11.7v-4.6l4.3-3h12.9l-4.3,2.9h-7.7v1.8h11.7v4.7l-4.2,2.8h-12.8"/>
			<path class="st7" d="M181.5,59.6h7.6l4.2-2.9h-12.5l-4.5,2.9v9.3H189l4.3-2.9h-11.8v-1.7h5l4.3-2.9h-9.3 M144.8,59.6h7.6l4.2-2.9
				h-12.4l-4.6,2.9v9.3h12.7l4.3-2.9h-11.8v-1.7h5l4.3-2.9h-9.3 M163.1,56.7l6.5,3.6v-3.6h5.2v12.2h-5.2v-4l-6.5-4.1v8.1h-5.3V56.7
				 M131.9,61.4h6.3v4.8l-4,2.7h-13v-9.2l4.4-3h14.2l-4.2,2.9h-9.1V66h6.5v-1.7h-5.3"/>
		</g>
		<path class="st18" d="M322.2,1.9v12c0,0-0.1,1.5-2.1,1.5H37c-2,0-2.1-1.5-2.1-1.5v-12L178.6,2C178.6,2,322.2,1.9,322.2,1.9z"/>
		<path class="st0" d="M36.1,0h2.6v13.7h-2.6V0z M40.1,0h2.6v13.7h-2.6V0z M44.1,0h2.6v13.7h-2.6V0z M48.1,0h2.6v13.7h-2.6V0z
			 M52.1,0h2.6v13.7h-2.6V0z M56.1,0h2.6v13.7h-2.6V0z M60.2,0h2.6v13.7h-2.6V0z M64.2,0h2.6v13.7h-2.6V0z M68.3,0h2.6v13.7h-2.6V0z
			 M72.3,0h2.6v13.7h-2.6V0z M76.4,0H79v13.7h-2.6V0z M80.4,0H83v13.7h-2.6V0z M84.3,0h2.6v13.7h-2.6V0z M88.3,0h2.6v13.7h-2.6V0z
			 M92.4,0H95v13.7h-2.6V0z M96.4,0H99v13.7h-2.6V0z M100.5,0h2.6v13.7h-2.6V0z M104.5,0h2.6v13.7h-2.6V0z M108.5,0h2.6v13.7h-2.6V0
			z M112.5,0h2.6v13.7h-2.6V0z M116.5,0h2.6v13.7h-2.6V0z M120.5,0h2.6v13.7h-2.6V0z M124.6,0h2.6v13.7h-2.6V0z M128.6,0h2.6v13.7
			h-2.6V0z M132.6,0h2.6v13.7h-2.6V0z M136.6,0h2.6v13.7h-2.6V0z M140.7,0h2.6v13.7h-2.6V0z M144.7,0h2.6v13.7h-2.6V0z M148.6,0h2.6
			v13.7h-2.6V0z M152.7,0h2.6v13.7h-2.6V0z M156.7,0h2.6v13.7h-2.6V0z M160.7,0h2.6v13.7h-2.6V0z M165,0h2.6v13.7H165V0z M169.1,0
			h2.6v13.7h-2.6V0z M173.1,0h2.6v13.7h-2.6V0z M177,0h2.6v13.7H177V0z M181,0h2.6v13.7H181V0z M185.1,0h2.6v13.7h-2.6V0z M189.1,0
			h2.6v13.7h-2.6V0z M193.2,0h2.6v13.7h-2.6V0z M197.2,0h2.6v13.7h-2.6V0z M201.3,0h2.6v13.7h-2.6V0z M205.3,0h2.6v13.7h-2.6V0z
			 M209.2,0h2.6v13.7h-2.6V0z M213.2,0h2.6v13.7h-2.6V0z M217.3,0h2.6v13.7h-2.6V0z M221.3,0h2.6v13.7h-2.6V0z M225.7,0h2.6v13.7
			h-2.6V0z M229.8,0h2.6v13.7h-2.6V0z M233.8,0h2.6v13.7h-2.6V0z M237.7,0h2.6v13.7h-2.6V0z M241.7,0h2.6v13.7h-2.6V0z M245.8,0h2.6
			v13.7h-2.6V0z M249.8,0h2.6v13.7h-2.6V0z M253.9,0h2.6v13.7h-2.6V0z M257.9,0h2.6v13.7h-2.6V0z M262,0h2.6v13.7H262V0z M266,0h2.6
			v13.7H266V0z M269.9,0h2.6v13.7h-2.6V0z M273.9,0h2.6v13.7h-2.6V0z M278,0h2.6v13.7H278V0z M282,0h2.6v13.7H282V0z M286.2,0h2.6
			v13.7h-2.6V0z M290.3,0h2.6v13.7h-2.6V0z M294.3,0h2.6v13.7h-2.6V0z M298.2,0h2.6v13.7h-2.6V0z M302.2,0h2.6v13.7h-2.6V0z
			 M306.3,0h2.6v13.7h-2.6V0z M310.3,0h2.6v13.7h-2.6V0z M314.4,0h2.6v13.7h-2.6V0z M318.4,0h2.6v13.7h-2.6V0z"/>
	</g>
	<g transform="scale(0.54442694,0.54442694)">
		<path class="st2" d="M364.5,309.1V14.2C364.5,6.4,370,0,376.6,0h17v1.9h223.8V0h17.9c6.6,0,12.1,6.4,12.1,14.2V217
			c0,69.3-48.2,126-107,126H422.2c-18,0-35.4-9.5-46.7-22.1"/>
		<path class="st1" d="M540.3,291H421.6c-9.5,0-19,1.5-28.1,4.4l-29,13.7V12c0-6.6,5.4-12,12.1-12h17v1.9l223.8,0.4V0h17.9
			c6.6,0,12.1,5.4,12.1,12v172.1C647.3,242.9,599.2,291,540.3,291L540.3,291z"/>
		<path class="st3" d="M526.4,277.4h-85.2c-31.6,0-57.4-25.7-57.4-57.3V66.6c0-14.5,11.8-26.3,26.3-26.3h196.8
			c14.5,0,26.3,11.8,26.3,26.3v104.1C633.2,229.6,585.3,277.4,526.4,277.4z M410.1,41.3c-14,0-25.3,11.3-25.3,25.3v153.5
			c0,31.1,25.3,56.3,56.4,56.3h85.2c58.3,0,105.8-47.4,105.8-105.7V66.6c0-13.9-11.4-25.3-25.3-25.3H410.1z"/>
		<path class="st3" d="M384.3,94.8h248.4v1.8H384.3V94.8z"/>
		<path class="st7" d="M470.4,70.7l-0.3-0.2v-0.3c0-0.3-1.9-1.7-5.1-1.7c-3.1,0-4.4,1-4.4,2.3c0,3.4,11.7-1.6,11.7,5.9
			c0,2.7-2.5,4.8-7.6,4.8c-4.9,0-6.3-1.6-6.7-1.6c-0.1,0-0.2,0.1-0.3,0.2l-0.3-0.1l1.7-3.5l0.3,0.2V77c0,1.2,2.6,2.1,5.1,2.1
			c3.6,0,4.9-1.1,4.9-2.2c0-4.1-11.6,1-11.6-5.9c0-3.5,3.5-4.9,7.4-4.9c3.5,0,5.9,1.6,6.1,1.6c0.3,0,0.3-0.1,0.4-0.1l0.3,0.1
			C472,67.7,470.4,70.7,470.4,70.7z M473.9,81c0.4,0,0.5-0.2,0.5-0.6V67.2c0-0.5-0.1-0.6-0.5-0.6v-0.3h12.9c0.5,0,0.7-0.2,0.7-0.5
			h0.3v3.4h-0.3c0-0.4-0.2-0.5-0.7-0.5h-9.6v3.7h6.3c0.5,0,0.7-0.2,0.7-0.5h0.3v3.5h-0.3c0-0.2,0-0.3-0.2-0.4
			c-0.1-0.1-0.3-0.1-0.5-0.1h-6.3V79h9.8c0.5,0,0.7-0.2,0.7-0.5h0.3v3.4h-0.3c0-0.3-0.2-0.5-0.7-0.5h-13.1L473.9,81L473.9,81z
			 M505.6,73.4v0.3c-0.2,0-0.4,0.2-0.4,0.7v4.1c0,0.3,0.1,0.5,0.4,0.5v0.3c-1.3,0.7-4.3,2.3-7.8,2.3c-4.6,0-8.6-2.4-8.6-7.7
			c0-5.4,4.7-7.7,8.8-7.7c1.6,0,3.2,0.4,4.3,0.8c1.1,0.5,1.8,0.8,2,0.8s0.4-0.1,0.4-0.2l0.3,0.1l-1.9,3.4l-0.3-0.2v-0.4
			c0-0.6-2.2-1.9-4.8-1.9c-3.3,0-6.1,1.7-6.1,5.2c0,3.7,2.7,5.4,5.8,5.4c2.5,0,4-0.9,4.6-1.3V76H499c-0.4,0-0.6,0.2-0.6,0.5H498
			v-3.6h0.3c0,0.3,0.2,0.5,0.6,0.5H505.6z M506.6,81.3V81c0.4,0,0.5-0.1,0.8-0.8l5.4-12.7c0.1-0.2,0.2-0.4,0.2-0.6s-0.2-0.3-0.4-0.4
			v-0.3h4.3v0.3c-0.3,0-0.4,0.2-0.4,0.3c0,0.2,0.1,0.3,0.2,0.5l5.8,12.9c0.3,0.6,0.4,0.8,0.8,0.8v0.3h-4V81c0.3,0,0.4-0.1,0.4-0.2
			c0-0.2-0.2-0.5-1.5-3.5h-6.8c-1.2,2.7-1.5,3.1-1.5,3.4c0,0.2,0.1,0.3,0.3,0.3v0.3L506.6,81.3L506.6,81.3z M517,75l-2.4-5.4
			l-2.4,5.4H517L517,75z"/>
		<path class="st7" d="M566.8,83.8H454.7v-20h112.1V83.8z M455.8,82.5h110.1V65.1H455.8V82.5z M568.9,64.2v-0.4h-1.7v0.4h0.7v2.3
			h0.3v-2.3 M569.3,66.5v-2l0.6,2h0.2l0.6-2v2h0.3v-2.7h-0.4l-0.6,2.1l-0.6-2.1h-0.5v2.7"/>
		<path class="st7" d="M526.7,66.3v15.1H565V66.3H526.7z M528.3,76.8c-0.3-2.7,6.7-6.3,15.9-8.1c-0.2,0.1-0.6,0.2-0.6,0.2l-1.2,0.4
			c-4.7,1.4-8,4.1-7.7,6.4c0.3,2.4,4.2,3.6,9.2,3.2c0.3,0,1.3-0.1,1.5-0.1C536.2,80.3,528.6,79.5,528.3,76.8L528.3,76.8z
			 M551.3,77.4c-2,0.6-4.6,1.1-4.6,1.1v-6.7l1.3,5.5c0,0,3.1-0.6,5.5-1.9c2.1-1.1,3.4-2.5,3.3-3.9c-0.1-2.4-4.1-3.6-9-3.2
			c-0.3,0-1.4,0.1-1.6,0.1c9.2-1.6,16.8-0.8,17.1,1.9C563.5,72.5,558.5,75.4,551.3,77.4z"/>
		<g>
			<path class="st7" d="M463.4,223.6v0.2c0,0.2,0,0.3-0.7,0.3s-0.6-0.1-0.7-0.3v-1.4c0-0.2,0-0.3,0.7-0.3s0.6,0.1,0.7,0.3v0.2h0.9
				v-0.5c-0.1-0.5,0.1-0.9-1.5-0.9c-1.7,0-1.5,0.4-1.5,0.9v1.8c0.1,0.5-0.1,0.9,1.5,0.9c1.7,0,1.5-0.4,1.5-0.9v-0.4L463.4,223.6
				C463.4,223.5,463.4,223.6,463.4,223.6z M450.7,224.8v-2.5l0.9,2.5h0.8l0.9-2.5v2.5h0.9v-3.4h-1.3L452,224l-0.9-2.6h-1.3v3.4
				 M465.3,224.8v-2.5h-0.8v-0.9h2.5v0.9h-0.8v2.5 M460,224.1h-1.1l0.2-0.5h0.8l-0.4-1.4l-0.8,2.6h-0.9l1-3.4h1.3l1,3.4h-0.9
				 M447.7,222.1c0.7,0,0.6,0.1,0.7,0.3v1.4c0,0.2,0,0.3-0.7,0.3s-0.6-0.1-0.7-0.3v-1.4C447.1,222.2,447.1,222.1,447.7,222.1v-0.8
				c-1.7,0-1.5,0.4-1.5,0.9v1.8c0.1,0.5-0.1,0.9,1.5,0.9s1.5-0.4,1.5-0.9v-1.8c-0.1-0.5,0.1-0.9-1.5-0.9V222.1z M444.8,223.6v0.2
				c0,0.2,0,0.3-0.7,0.3s-0.6-0.1-0.7-0.3v-1.4c0-0.2,0-0.3,0.7-0.3s0.6,0.1,0.7,0.3v0.2h0.9v-0.5c-0.1-0.5,0.1-0.9-1.5-0.9
				c-1.7,0-1.5,0.4-1.5,0.9v1.8c0.1,0.5-0.1,0.9,1.5,0.9c1.7,0,1.5-0.4,1.5-0.9v-0.4L444.8,223.6L444.8,223.6z M456.3,224.1h-0.5
				v-0.8h0.5c0.7,0,0.6-0.1,0.7-0.3v-0.4c0-0.2,0-0.3-0.7-0.3h-0.5v2.6h-0.9v-3.4h1.4c1.7,0,1.5,0.4,1.5,0.9v0.8
				C457.8,223.6,457.9,224.1,456.3,224.1z M439.4,237.7H434c-0.8,0-1.4-0.6-1.4-1.4V228c0-0.8,0.6-1.4,1.4-1.4h3.4
				c0.4,0,0.7-0.3,0.7-0.7v-3.3c0-0.2,0.1-0.3,0.3-0.3h2c0.2,0,0.3,0.1,0.3,0.3v14.9c0,0.2-0.1,0.3-0.3,0.3L439.4,237.7l0,0.7h1.4
				c0.4,0,0.7-0.3,0.7-0.7v-15.5c0-0.4-0.3-0.7-0.7-0.7h-2.6c-0.4,0-0.7,0.3-0.7,0.7v3.3c0,0.2-0.1,0.3-0.3,0.3h-3.1
				c-1.2,0-2.2,1-2.2,2.2v8.3c0,1.2,1,2.2,2.2,2.2h5.4L439.4,237.7L439.4,237.7z"/>
			<path class="st7" d="M437.3,234.6v-5.4c0-0.4-0.4-0.8-0.8-0.8s-0.8,0.4-0.8,0.8v5.8c0,0.4,0.4,0.8,0.8,0.8s0.8-0.4,0.8-0.8V234.6
				l0.7,0v0.4c0,0.9-0.7,1.6-1.6,1.6s-1.6-0.7-1.6-1.6v-5.8c0-0.9,0.7-1.6,1.6-1.6s1.6,0.7,1.6,1.6v5.4H437.3z M444.5,237.7h-1
				c-0.2,0-0.3-0.1-0.3-0.3v-10.5c0-0.2,0.1-0.3,0.3-0.3h2c0.2,0,0.3,0.1,0.3,0.3v10.5c0,0.2-0.1,0.3-0.3,0.3H444.5v0.7h1.3
				c0.4,0,0.7-0.3,0.7-0.7v-11.1c0-0.4-0.3-0.7-0.7-0.7h-2.6c-0.4,0-0.7,0.3-0.7,0.7v11.1c0,0.4,0.3,0.7,0.7,0.7h1.3L444.5,237.7
				L444.5,237.7z M454,228.6h-2.2c-0.7,0-1.2,0.5-1.2,1.2s0.5,1.2,1.2,1.2h3c0.8,0,1.4,0.6,1.4,1.4v3.7c0,0.8-0.6,1.4-1.4,1.4h-6
				c-0.2,0-0.3-0.1-0.3-0.3v-1.4c0-0.2,0.1-0.3,0.3-0.3h4.1c0.7,0,1.2-0.5,1.2-1.2s-0.5-1.2-1.2-1.2H450c-0.8,0-1.4-0.6-1.4-1.4V228
				c0-0.8,0.6-1.4,1.4-1.4h5.5c0.2,0,0.3,0.1,0.3,0.3v1.5c0,0.2-0.1,0.3-0.3,0.3L454,228.6v0.7h1.8c0.4,0,0.7-0.3,0.7-0.7v-2.1
				c0-0.4-0.3-0.7-0.7-0.7H450c-1.2,0-2.2,1-2.2,2.2v3.7c0,1.2,1,2.2,2.2,2.2h2.9c0.3,0,0.5,0.2,0.5,0.5s-0.2,0.5-0.5,0.5h-4.4
				c-0.4,0-0.7,0.3-0.7,0.7v2.1c0,0.4,0.3,0.7,0.7,0.7h6.3c1.2,0,2.2-1,2.2-2.2v-3.7c0-1.2-1-2.2-2.2-2.2h-3c-0.3,0-0.5-0.2-0.5-0.5
				s0.2-0.5,0.5-0.5h2.2V228.6z M465,230.7h0.9c0.2,0,0.3-0.1,0.3-0.3V228c0-0.8-0.6-1.4-1.4-1.4h-4.7c-0.8,0-1.4,0.6-1.4,1.4v8.3
				c0,0.8,0.6,1.4,1.4,1.4h4.7c0.8,0,1.4-0.6,1.4-1.4V234c0-0.2-0.1-0.3-0.3-0.3h-1.8c-0.2,0-0.3,0.1-0.3,0.3v1.1
				c0,0.9-0.5,1.6-1.4,1.6s-1.4-0.7-1.4-1.6v-5.8c0-0.9,0.5-1.6,1.4-1.6s1.4,0.7,1.4,1.6v1.1c0,0.2,0.1,0.3,0.3,0.3H465v0.7h-1.1
				c-0.4,0-0.7-0.3-0.7-0.7v-1.4c0-0.4-0.2-0.8-0.7-0.8c-0.4,0-0.7,0.4-0.7,0.8v5.8c0,0.4,0.2,0.8,0.7,0.8c0.4,0,0.7-0.4,0.7-0.8
				v-1.4c0-0.4,0.3-0.7,0.7-0.7h2.4c0.4,0,0.7,0.3,0.7,0.7v2.6c0,1.2-1,2.2-2.2,2.2h-4.7c-1.2,0-2.2-1-2.2-2.2V228
				c0-1.2,1-2.2,2.2-2.2h4.7c1.2,0,2.2,1,2.2,2.2v2.7c0,0.4-0.3,0.7-0.7,0.7H465C465,231.4,465,230.7,465,230.7z"/>
		</g>
		<path class="st3" d="M543.1,186c-34.3,32.7-52.8,60.1-39.9,73.7c13,13.6,54,9.2,88.3-23.5c34.3-32.7,42.3-73.6,29.3-87.1
			C607.8,135.6,577.4,153.3,543.1,186z"/>
		<path class="st5" d="M549.5,194.4c-20.3,19.4-29.9,42.4-21.2,51.5c8.7,9.1,32.1,0.6,52.5-18.7c20.3-19.4,29.9-42.4,21.2-51.5
			C593.3,166.6,569.9,175,549.5,194.4z"/>
		<circle class="st3" cx="549.6" cy="225.3" r="2.9"/>
		<circle class="st3" cx="558.5" cy="216.2" r="2.9"/>
		<circle class="st3" cx="567.4" cy="207.1" r="2.9"/>
		<circle class="st3" cx="576.3" cy="198.4" r="2.9"/>
		<path class="st6" d="M446.3,325h-1l-0.5-1.9H443l-0.5,1.9h-1l1.9-6.7h0.9L446.3,325z M444.4,322l-0.6-2.1l-0.6,2.1H444.4z
			 M450,320.6c0-0.2,0-0.4-0.1-0.5c-0.1-0.2-0.1-0.3-0.2-0.4l-0.3-0.3c-0.1-0.1-0.3-0.1-0.4-0.1c-0.2,0-0.4,0.1-0.6,0.2
			s-0.3,0.3-0.4,0.4c-0.1,0.2-0.2,0.4-0.3,0.7c-0.1,0.3-0.1,0.6-0.1,1s0,0.7,0.1,1s0.2,0.5,0.3,0.7c0.1,0.2,0.3,0.3,0.4,0.5
			c0.2,0.1,0.4,0.2,0.6,0.2s0.3,0,0.4-0.1s0.2-0.1,0.3-0.3c0.1-0.1,0.2-0.3,0.2-0.4c0.1-0.2,0.1-0.4,0.1-0.6h0.9
			c0,0.4-0.1,0.8-0.2,1.1c-0.1,0.3-0.3,0.6-0.4,0.8c-0.2,0.2-0.4,0.4-0.6,0.5s-0.5,0.2-0.8,0.2c-0.4,0-0.7-0.1-1-0.2
			c-0.3-0.2-0.5-0.4-0.7-0.7c-0.2-0.3-0.4-0.7-0.5-1.1s-0.2-0.9-0.2-1.4s0.1-1,0.2-1.4s0.3-0.8,0.5-1.1c0.2-0.3,0.4-0.5,0.7-0.7
			c0.3-0.2,0.6-0.2,0.9-0.2s0.5,0.1,0.7,0.2s0.4,0.3,0.6,0.5s0.3,0.5,0.4,0.8s0.2,0.6,0.2,1H450V320.6z M455.1,320.6
			c0-0.2,0-0.4-0.1-0.5c-0.1-0.2-0.1-0.3-0.2-0.4l-0.3-0.3c-0.1-0.1-0.3-0.1-0.4-0.1c-0.2,0-0.4,0.1-0.6,0.2s-0.3,0.3-0.4,0.4
			c-0.1,0.2-0.2,0.4-0.3,0.7c-0.1,0.3-0.1,0.6-0.1,1s0,0.7,0.1,1s0.2,0.5,0.3,0.7c0.1,0.2,0.3,0.3,0.4,0.5c0.2,0.1,0.4,0.2,0.6,0.2
			s0.3,0,0.4-0.1s0.2-0.1,0.3-0.3c0.1-0.1,0.2-0.3,0.2-0.4c0.1-0.2,0.1-0.4,0.1-0.6h0.9c0,0.4-0.1,0.8-0.2,1.1
			c-0.1,0.3-0.3,0.6-0.4,0.8c-0.2,0.2-0.4,0.4-0.6,0.5s-0.5,0.2-0.8,0.2c-0.4,0-0.7-0.1-1-0.2c-0.3-0.2-0.5-0.4-0.7-0.7
			c-0.2-0.3-0.4-0.7-0.5-1.1s-0.2-0.9-0.2-1.4s0.1-1,0.2-1.4s0.3-0.8,0.5-1.1c0.2-0.3,0.4-0.5,0.7-0.7c0.3-0.2,0.6-0.2,0.9-0.2
			s0.5,0.1,0.7,0.2s0.4,0.3,0.6,0.5s0.3,0.5,0.4,0.8s0.2,0.6,0.2,1h-0.7V320.6z M460.7,325H457v-6.7h3.6v1.2h-2.7v1.5h2.5v1.1h-2.5
			v1.7h2.8L460.7,325L460.7,325z M463.6,325.1c-0.4,0-0.7-0.1-0.9-0.2c-0.3-0.1-0.5-0.3-0.7-0.5s-0.3-0.5-0.4-0.8s-0.1-0.7-0.2-1
			h0.9c0,0.2,0.1,0.4,0.1,0.6c0.1,0.2,0.2,0.3,0.3,0.4c0.1,0.1,0.2,0.2,0.4,0.3c0.1,0.1,0.3,0.1,0.4,0.1s0.3,0,0.4-0.1
			c0.1,0,0.2-0.1,0.3-0.2c0.1-0.1,0.2-0.2,0.2-0.3c0-0.1,0.1-0.2,0.1-0.4c0-0.1,0-0.3-0.1-0.4c0-0.1-0.1-0.2-0.2-0.3
			c-0.1-0.1-0.2-0.1-0.4-0.2s-0.4-0.1-0.6-0.2c-0.3-0.1-0.5-0.2-0.7-0.3c-0.2-0.1-0.4-0.2-0.5-0.4c-0.1-0.2-0.2-0.3-0.3-0.5
			c-0.1-0.2-0.1-0.4-0.1-0.7c0-0.3,0-0.5,0.1-0.8c0.1-0.2,0.2-0.4,0.4-0.6c0.2-0.2,0.3-0.3,0.6-0.4c0.2-0.1,0.5-0.1,0.7-0.1
			c0.3,0,0.5,0.1,0.8,0.2c0.2,0.1,0.4,0.3,0.6,0.4c0.2,0.2,0.3,0.4,0.4,0.7c0.1,0.3,0.1,0.6,0.2,1h-0.9c-0.1-0.8-0.4-1.1-1-1.1
			c-0.3,0-0.5,0.1-0.7,0.2s-0.2,0.3-0.2,0.6c0,0.1,0,0.2,0.1,0.3c0,0.1,0.1,0.1,0.2,0.2s0.2,0.1,0.3,0.2c0.1,0,0.3,0.1,0.4,0.1
			s0.3,0.1,0.5,0.1s0.3,0.1,0.5,0.2c0.1,0.1,0.3,0.2,0.4,0.3c0.1,0.1,0.2,0.2,0.3,0.4c0.1,0.2,0.2,0.3,0.2,0.5
			c0.1,0.2,0.1,0.4,0.1,0.7c0,0.3,0,0.6-0.1,0.8c-0.1,0.3-0.2,0.5-0.4,0.7c-0.2,0.2-0.4,0.3-0.6,0.4
			C464.1,325,463.8,325.1,463.6,325.1L463.6,325.1z M468.3,325.1c-0.4,0-0.7-0.1-0.9-0.2c-0.3-0.1-0.5-0.3-0.7-0.5s-0.3-0.5-0.4-0.8
			s-0.1-0.7-0.2-1h0.9c0,0.2,0.1,0.4,0.1,0.6c0.1,0.2,0.2,0.3,0.3,0.4c0.1,0.1,0.2,0.2,0.4,0.3c0.1,0.1,0.3,0.1,0.4,0.1
			s0.3,0,0.4-0.1c0.1,0,0.2-0.1,0.3-0.2c0.1-0.1,0.2-0.2,0.2-0.3c0-0.1,0.1-0.2,0.1-0.4c0-0.1,0-0.3-0.1-0.4c0-0.1-0.1-0.2-0.2-0.3
			c-0.1-0.1-0.2-0.1-0.4-0.2s-0.4-0.1-0.6-0.2c-0.3-0.1-0.5-0.2-0.7-0.3c-0.2-0.1-0.4-0.2-0.5-0.4c-0.1-0.2-0.2-0.3-0.3-0.5
			c-0.1-0.2-0.1-0.4-0.1-0.7c0-0.3,0-0.5,0.1-0.8c0.1-0.2,0.2-0.4,0.4-0.6c0.2-0.2,0.3-0.3,0.6-0.4c0.2-0.1,0.5-0.1,0.7-0.1
			c0.3,0,0.5,0.1,0.8,0.2c0.2,0.1,0.4,0.3,0.6,0.4c0.2,0.2,0.3,0.4,0.4,0.7c0.1,0.3,0.1,0.6,0.2,1h-0.9c-0.1-0.8-0.4-1.1-1-1.1
			c-0.3,0-0.5,0.1-0.7,0.2s-0.2,0.3-0.2,0.6c0,0.1,0,0.2,0.1,0.3c0,0.1,0.1,0.1,0.2,0.2s0.2,0.1,0.3,0.2c0.1,0,0.3,0.1,0.4,0.1
			s0.3,0.1,0.5,0.1s0.3,0.1,0.5,0.2c0.1,0.1,0.3,0.2,0.4,0.3c0.1,0.1,0.2,0.2,0.3,0.4c0.1,0.1,0.2,0.3,0.2,0.5
			c0.1,0.2,0.1,0.4,0.1,0.7c0,0.3,0,0.6-0.1,0.8c-0.1,0.2-0.2,0.5-0.4,0.7c-0.2,0.2-0.4,0.3-0.6,0.4
			C468.8,325,468.6,325.1,468.3,325.1L468.3,325.1z"/>
		<path class="st14" d="M422.7,323v-3.2c0-0.3,0.3-0.6,0.6-0.6h12.2c0.3,0,0.6,0.3,0.6,0.6v3.2c0,0.3-0.3,0.6-0.6,0.6h-12.2
			C423,323.6,422.7,323.4,422.7,323z"/>
		<path class="st17" d="M424,322.2v-1.6c0-0.3,0.3-0.6,0.6-0.6h9.7c0.3,0,0.6,0.3,0.6,0.6v1.6c0,0.3-0.3,0.6-0.6,0.6h-9.7
			C424.3,322.8,424,322.6,424,322.2z"/>
		<path class="st3" d="M620.1,270.6c-2.9-2.9-2.9-7.7,0-10.6l9.2-8.9c2.9-2.9,5.2-0.7,8.1,2.2c2.9,2.9,2,7,0,10.6l-6.5,12
			C627.9,278.8,623,273.5,620.1,270.6z"/>
		<path class="st6" d="M614.4,286.7c0.5-0.5,0.7-1.1,0.4-1.4l-7.3-7.2l1.6-1.6l8,8c0.7,0.7,0.1,2.4-1.2,3.8l2.3,2.3l-5.9-0.1
			l-0.1-5.9L614.4,286.7 M617.5,274.1c0.2,0.2,0.4,0.5,0.4,0.7c0.1,0.3,0.1,0.6,0,0.9s-0.2,0.6-0.4,1c-0.2,0.3-0.5,0.7-0.8,1
			s-0.6,0.6-1,0.8c-0.3,0.2-0.7,0.3-1,0.4s-0.6,0.1-0.9,0c-0.3-0.1-0.5-0.2-0.8-0.4c-0.2-0.2-0.4-0.5-0.4-0.8s-0.1-0.6,0-0.9
			s0.2-0.6,0.4-1c0.2-0.3,0.5-0.7,0.8-1s0.7-0.6,1-0.8c0.3-0.2,0.7-0.3,1-0.4s0.6,0,0.9,0C617,273.8,617.3,273.9,617.5,274.1
			L617.5,274.1z M613.8,277.8c0.1,0.1,0.3,0.2,0.5,0.3c0.2,0.1,0.4,0,0.6,0c0.2,0,0.4-0.1,0.6-0.3c0.2-0.2,0.5-0.3,0.7-0.6
			c0.2-0.2,0.4-0.5,0.6-0.7l0.3-0.6v-0.6c0-0.2-0.1-0.3-0.3-0.5c-0.1-0.1-0.3-0.2-0.5-0.3h-0.6c-0.2,0-0.4,0.1-0.6,0.3
			c-0.2,0.1-0.5,0.3-0.7,0.5s-0.4,0.5-0.6,0.7c-0.2,0.2-0.2,0.4-0.3,0.6c0,0.2-0.1,0.4,0,0.6C613.6,277.5,613.7,277.6,613.8,277.8z
			 M619.5,276.3l1.2,1.2l0.3,0.3c0.1,0.1,0.2,0.2,0.2,0.4c0,0.1,0.1,0.3,0.1,0.4v0.4c0,0.2-0.1,0.3-0.2,0.5s-0.2,0.3-0.4,0.5
			c-0.4,0.4-0.9,0.7-1.3,0.7s-0.8-0.2-1.2-0.5l-0.6-0.6l-1.6,1.6l-0.6-0.6L619.5,276.3z M618.2,278.8l0.6,0.6
			c0.1,0.1,0.2,0.2,0.3,0.2s0.2,0.1,0.3,0.1s0.2,0,0.3-0.1s0.2-0.1,0.3-0.2s0.2-0.2,0.2-0.3c0-0.1,0.1-0.2,0-0.3
			c-0.1-0.1,0-0.2-0.1-0.3c-0.1-0.1-0.1-0.2-0.2-0.2l-0.6-0.6L618.2,278.8L618.2,278.8z M620.6,285.8l-2.3-2.3l4.2-4.2l2.3,2.3
			l-0.7,0.7l-1.7-1.7l-0.9,0.9l1.6,1.6l-0.7,0.7l-1.6-1.6l-1.1,1.1l1.8,1.8L620.6,285.8L620.6,285.8z M623.6,288.8l-0.5-0.5l1.4-4.2
			l-2.8,2.8l-0.6-0.6l4.2-4.2l0.5,0.5l-1.5,4.2l2.8-2.8l0.6,0.6L623.6,288.8L623.6,288.8z"/>
		<path class="st5" d="M638.2,254.1l-1.3-1.4c-0.6-0.5-1.2-0.9-2-0.9c-1,0-1.9,0.4-2.4,1.1l-11.9,15.3c-0.8,1-0.6,2.4,0.4,3.2
			l2.3,2.2c1,0.8,2.5,0.2,3.3-0.7l11.9-15.3C639.3,256.6,638.9,255.1,638.2,254.1L638.2,254.1z"/>
		<path class="st18" d="M617.3,1.9v12c0,0-0.1,1.5-1.6,1.5H395.1c-1.6,0-1.6-1.5-1.6-1.5v-12L505.4,2C505.4,2,617.3,1.9,617.3,1.9z"
			/>
		<path class="st0" d="M394.7,0h2.7v13.7h-2.7V0z M398.8,0h2.7v13.7h-2.7V0z M402.9,0h2.7v13.7h-2.7V0z M406.9,0h2.7v13.7h-2.7V0z
			 M410.8,0h2.7v13.7h-2.7V0z M414.9,0h2.7v13.7h-2.7V0z M418.9,0h2.7v13.7h-2.7V0z M423,0h2.7v13.7H423V0z M427.1,0h2.7v13.7h-2.7
			V0z M431.1,0h2.7v13.7h-2.7V0z M435.2,0h2.7v13.7h-2.7V0z M439.2,0h2.7v13.7h-2.7V0z M443.2,0h2.7v13.7h-2.7V0z M447.2,0h2.7v13.7
			h-2.7V0z M451.3,0h2.7v13.7h-2.7V0z M455.3,0h2.7v13.7h-2.7V0z M459.4,0h2.7v13.7h-2.7V0z M463.4,0h2.7v13.7h-2.7V0z M467.5,0h2.7
			v13.7h-2.7V0z M471.5,0h2.7v13.7h-2.7V0z M475.5,0h2.7v13.7h-2.7V0z M479.5,0h2.7v13.7h-2.7V0z M483.6,0h2.7v13.7h-2.7V0z
			 M487.6,0h2.7v13.7h-2.7V0z M491.7,0h2.7v13.7h-2.7V0z M495.7,0h2.7v13.7h-2.7V0z M499.8,0h2.7v13.7h-2.7V0z M503.9,0h2.7v13.7
			h-2.7V0z M507.8,0h2.7v13.7h-2.7V0z M511.8,0h2.7v13.7h-2.7V0z M515.9,0h2.7v13.7h-2.7V0z M519.9,0h2.7v13.7h-2.7V0z M524.2,0h2.7
			v13.7h-2.7V0z M528.3,0h2.7v13.7h-2.7V0z M532.4,0h2.7v13.7h-2.7V0z M536.3,0h2.7v13.7h-2.7V0z M540.3,0h2.7v13.7h-2.7V0z
			 M544.4,0h2.7v13.7h-2.7V0z M548.4,0h2.7v13.7h-2.7V0z M552.5,0h2.7v13.7h-2.7V0z M556.6,0h2.7v13.7h-2.7V0z M560.6,0h2.7v13.7
			h-2.7V0z M564.7,0h2.7v13.7h-2.7V0z M568.6,0h2.7v13.7h-2.7V0z M572.6,0h2.7v13.7h-2.7V0z M576.7,0h2.7v13.7h-2.7V0z M580.8,0h2.7
			v13.7h-2.7V0z M585.2,0h2.7v13.7h-2.7V0z M589.3,0h2.7v13.7h-2.7V0z M593.3,0h2.7v13.7h-2.7V0z M597.3,0h2.7v13.7h-2.7V0z
			 M601.3,0h2.7v13.7h-2.7V0z M605.4,0h2.7v13.7h-2.7V0z M609.4,0h2.7v13.7h-2.7V0z M613.5,0h2.7v13.7h-2.7V0z"/>
	</g>
	<path class="st19" d="M498.1,122.4c0,34.5-28,62.5-62.5,62.5s-62.5-28-62.5-62.5s28-62.5,62.5-62.5S498.1,87.9,498.1,122.4z
		 M446.3,99.6c-3.3-1.5-6.9-2.4-10.7-2.4c-13.9,0-25.2,11.2-25.2,25.2s11.2,25.2,25.2,25.2s25.2-11.2,25.2-25.2
		C460.8,112.3,454.9,103.7,446.3,99.6"/>
	<path class="st20" d="M435.6,186.7c-35.5,0-64.4-28.9-64.4-64.4S400.1,58,435.6,58c35.5,0,64.4,28.9,64.4,64.4
		S471.1,186.7,435.6,186.7z M435.6,58.1c-35.4,0-64.3,28.9-64.3,64.3s28.8,64.2,64.2,64.2s64.2-28.8,64.2-64.2
		C499.8,86.9,471,58.1,435.6,58.1z"/>
	<path class="st20" d="M489.9,153.4c-10.8,18.8-31,31.5-54.3,31.5c-23.3,0-43.5-12.7-54.3-31.5H489.9"/>
	<path class="st21" d="M455.5,160.6l1.3,1.6l-0.2,0.1c-0.2-0.1-0.2-0.2-0.3-0.2c-0.1,0-0.3,0.1-0.7,0.3c-0.8,0.4-1.4,0.6-2,0.8
		c-0.5,0.2-1.1,0.2-1.9,0.2c-1.4,0-2.7-0.3-3.6-0.8c-0.5-0.3-1-0.8-1.3-1.2c-0.4-0.5-0.5-1.2-0.5-1.8c0-0.9,0.3-1.7,1-2.4
		c1-1,2.4-1.5,4.5-1.5c0.8,0,1.4,0.1,1.9,0.2c0.5,0.2,1.1,0.4,2,0.8c0.4,0.2,0.6,0.2,0.7,0.2c0.1,0,0.2-0.1,0.3-0.2l0.2,0.1
		l-1.3,1.6l-0.2-0.1v-0.2c0-0.1-0.1-0.2-0.2-0.3c-0.1-0.1-0.3-0.2-0.6-0.4c-0.8-0.4-1.7-0.5-2.5-0.5c-1.1,0-1.9,0.2-2.5,0.7
		c-0.8,0.5-1.1,1.1-1.1,2c0,0.8,0.4,1.5,1.1,2c0.6,0.5,1.4,0.7,2.5,0.7c0.9,0,1.7-0.2,2.5-0.5c0.3-0.2,0.5-0.2,0.6-0.4
		c0.1-0.1,0.2-0.2,0.2-0.3v-0.2L455.5,160.6L455.5,160.6z M458.5,162.6v-6.5c0-0.2,0-0.2-0.1-0.2c-0.1-0.1-0.2-0.1-0.3-0.2v-0.2h5.2
		c1.1,0,2,0.1,2.6,0.3c0.8,0.3,1.5,0.8,1.9,1.5c0.3,0.5,0.5,1.2,0.5,2c0,1.3-0.5,2.3-1.4,3c-0.4,0.3-0.9,0.5-1.4,0.6
		s-1.2,0.2-2.1,0.2H458v-0.2c0.2,0,0.3-0.1,0.3-0.2C458.5,162.8,458.5,162.7,458.5,162.6L458.5,162.6z M460.6,162h2.5
		c0.8,0,1.4-0.1,1.8-0.3c0.8-0.4,1.3-1.1,1.3-2.3c0-0.8-0.2-1.4-0.7-1.9c-0.2-0.2-0.6-0.4-0.9-0.5c-0.4-0.1-0.8-0.2-1.4-0.2h-2.5
		L460.6,162L460.6,162z M409.2,158.2l-0.2-0.1v-0.2c0-0.2-1.2-0.9-3.3-0.9c-2,0-2.8,0.5-2.8,1.1c0,1.7,7.5-0.8,7.5,3
		c0,1.4-1.6,2.5-4.9,2.5c-3.1,0-4-0.8-4.3-0.8c-0.1,0-0.2,0.1-0.2,0.1H401l1.1-1.8l0.2,0.1v0.2c0,0.6,1.7,1.1,3.3,1.1
		c2.3,0,3.1-0.5,3.1-1.1c0-2.1-7.4,0.5-7.4-3c0-1.8,2.3-2.6,4.7-2.6c2.2,0,3.8,0.8,4,0.8c0.2,0,0.2-0.1,0.2-0.1l0.2,0.1L409.2,158.2
		L409.2,158.2z M411.4,163.6c0.3,0,0.3-0.1,0.3-0.3v-6.8c0-0.2-0.1-0.3-0.3-0.3V156h8.3c0.3,0,0.5-0.1,0.5-0.2h0.2v1.7h-0.2
		c0-0.2-0.2-0.3-0.5-0.3h-6.1v1.9h4c0.3,0,0.5-0.1,0.5-0.3h0.2v1.8h-0.2c0-0.1,0-0.2-0.1-0.2c-0.1-0.1-0.2-0.1-0.3-0.1h-4v2.1h6.2
		c0.3,0,0.5-0.1,0.5-0.2h0.2v1.7h-0.2c0-0.2-0.2-0.2-0.5-0.2h-8.4v-0.2L411.4,163.6z M431.6,159.6v0.2c-0.2,0-0.2,0.1-0.2,0.4v2.1
		c0,0.2,0.1,0.2,0.2,0.3v0.2c-0.8,0.4-2.7,1.2-4.9,1.2c-2.9,0-5.5-1.2-5.5-4s3-4,5.6-4c1.1,0,2.1,0.2,2.7,0.4
		c0.7,0.2,1.1,0.5,1.3,0.5s0.2-0.1,0.3-0.2l0.2,0.1l-1.2,1.7l-0.2-0.1v-0.2c0-0.3-1.4-1-3-1c-2.1,0-3.9,0.9-3.9,2.7
		c0,1.9,1.7,2.8,3.7,2.8c1.6,0,2.5-0.5,2.9-0.7v-0.9h-2.2c-0.2,0-0.4,0.1-0.4,0.2h-0.2v-1.9h0.2c0,0.2,0.2,0.2,0.4,0.2L431.6,159.6
		L431.6,159.6z M432.2,163.7v-0.2c0.2,0,0.3-0.1,0.5-0.4l3.5-6.5c0.1-0.1,0.2-0.2,0.2-0.3c0-0.2-0.1-0.2-0.3-0.2V156h2.7v0.2
		c-0.2,0-0.3,0.1-0.3,0.2s0.1,0.2,0.2,0.3l3.7,6.6c0.2,0.3,0.2,0.4,0.5,0.4v0.2h-2.5v-0.2c0.2,0,0.2-0.1,0.2-0.1
		c0-0.2-0.2-0.3-1-1.8h-4.3c-0.8,1.4-0.9,1.6-0.9,1.7c0,0.1,0.1,0.2,0.2,0.2v0.2L432.2,163.7L432.2,163.7z M438.9,160.4l-1.5-2.8
		l-1.5,2.8H438.9z M468.2,156h0.4v0.8h0.2V156h0.4v-0.2h-1 M469.8,156.8l0.4-0.7v0.7h0.2v-1h-0.2l-0.4,0.8l-0.4-0.8h-0.2v1h0.2V156
		l0.3,0.8"/>
	<g>
		<path class="st21" d="M447.3,176.5h-3.7v-0.8h2.5c-0.2-0.5-0.3-1-0.5-1.4c-0.4-1.1-0.7-2.3-1.1-3.4c-0.1-0.3-0.4-0.6-0.6-0.7
			c-0.4-0.1-0.5,0.3-0.7,0.7c-0.5,1.7-1.1,3.5-1.7,5.2c-0.2,0.4-0.3,0.5-0.8,0.5h-3.4c-1.1,0-1.9-0.8-1.9-2v-3.2c0-1.2,0.8-2,1.9-2
			h3.1v0.9h-2.7c-1.2,0-1.5,0.3-1.5,1.6v2.4c0,0.8,0.4,1.3,1.2,1.3h2.1v-2.8h-1.7v-0.9h2.7v3.7h0.2c0.5-1.7,1.1-3.4,1.7-5.2
			c0.3-1,0.9-1.4,1.8-1.2c0.5,0.1,0.9,0.4,1.1,0.9c0.7,2.1,1.4,4.1,2,6.2C447.3,176.4,447.3,176.5,447.3,176.5L447.3,176.5z
			 M424,176.6v-0.9h3c0.8,0,1.4-0.6,1.4-1.4s-0.6-1.4-1.4-1.4h-1c-0.5-0.1-0.8-0.5-0.8-1.1s0.4-1.1,0.8-1.1h3.2v0.9h-3.1v0.3
			c0.3,0,0.6,0,0.9,0.1c1.1,0,1.9,0.7,2.2,1.8c0.3,1.4-0.6,2.8-2,2.9C426.2,176.6,425.1,176.6,424,176.6z"/>
		<path class="st21" d="M424,175.3v-0.9h3.1v-0.2h-1c-0.9,0-1.6-0.5-2-1.3s-0.3-1.7,0.2-2.4c0.4-0.5,0.8-0.9,1.5-0.9h3.3v0.9h-3
			c-1,0-1.6,0.9-1.3,1.8c0.2,0.5,0.7,0.9,1.4,1h0.9c0.5,0.1,0.8,0.5,0.9,1.1c0,0.5-0.4,1.1-0.8,1.1
			C426.2,175.3,425.1,175.3,424,175.3L424,175.3z M435,169.4v0.9h-2.9c-1,0-1.4,0.4-1.4,1.4v2.5c0,1,0.4,1.4,1.3,1.4h3v0.9h-3.5
			c-0.8-0.1-1.6-0.8-1.6-1.7v-3.7c0-0.8,0.7-1.6,1.4-1.7C432.5,169.3,433.7,169.4,435,169.4z M441.6,176.5c0.6-2,1.2-3.9,1.9-5.7
			c0.1-0.2,0.2-0.3,0.3-0.3c0.1,0,0.2,0.2,0.3,0.2c0.5,1.5,1,3,1.5,4.6h-2.1c0-0.2-0.1-0.5-0.1-0.6h-0.1c-0.2,0.4-0.2,0.7-0.4,1.1
			C442.7,176.6,442.7,176.6,441.6,176.5L441.6,176.5z M443.5,174.3h0.8c-0.2-0.4-0.2-0.7-0.3-1h-0.2
			C443.7,173.6,443.6,173.9,443.5,174.3L443.5,174.3z M438.5,174.1c-0.3-0.1-0.5-0.2-0.6-0.2v-0.8h1.4v2.1c-0.7,0-1.4,0.1-2.1,0
			c-0.2,0-0.5-0.4-0.5-0.5c-0.1-1.1,0-2.3,0-3.4c0-0.4,0.2-0.6,0.6-0.6h3.2v0.9h-2.4c-0.5,0-0.7,0.2-0.6,0.7v1.6
			C437.5,174.4,437.8,174.6,438.5,174.1L438.5,174.1z"/>
		<path class="st21" d="M432,174.3c1,0.2,2,0,3,0.1v0.8h-3.4c-0.2,0-0.5-0.4-0.5-0.6c-0.1-0.5,0-0.9,0-1.4h3.2v0.8h-2.2
			C432,174.1,432,174.2,432,174.3L432,174.3z M435,170.6v0.8c-1,0.2-2.1-0.1-3,0.2v0.2h2.3v0.9h-3.2c0-0.5-0.1-1.1,0-1.6
			c0-0.2,0.3-0.5,0.5-0.5C432.7,170.6,433.8,170.6,435,170.6L435,170.6z"/>
	</g>
	<path class="st22" d="M461.8,65.6c-8-3.6-16.9-5.7-26.2-5.7l-59.4,42.9c-2,6.2-3.1,12.7-3.1,19.5c0,2.8,0.2,5.5,0.5,8.2L461.8,65.6
		"/>
	<path d="M435.6,147.5c-13.9,0-25.2-11.2-25.2-25.2s11.2-25.2,25.2-25.2s25.2,11.2,25.2,25.2C460.8,136.3,449.5,147.5,435.6,147.5z
		 M435.6,98c-13.5,0-24.4,10.9-24.4,24.4s10.9,24.4,24.4,24.4s24.4-10.9,24.4-24.4S449.1,98,435.6,98z"/>
	<path class="st23" d="M435.6,133.5c-6.2,0-11.2-5-11.2-11.2c0-6.2,5-11.2,11.2-11.2c6.2,0,11.2,5,11.2,11.2
		C446.8,128.5,441.8,133.5,435.6,133.5z M435.6,112c-5.8,0-10.4,4.6-10.4,10.4c0,5.7,4.6,10.4,10.4,10.4c5.7,0,10.4-4.6,10.4-10.4
		C446,116.6,441.3,112,435.6,112z"/>
	<path class="st23" d="M435.6,131.3c-4.9,0-9-4-9-9c0-4.9,4-9,9-9s9,4,9,9C444.6,127.3,440.6,131.3,435.6,131.3z M435.6,114.1
		c-4.6,0-8.2,3.7-8.2,8.2c0,4.6,3.7,8.2,8.2,8.2c4.6,0,8.2-3.7,8.2-8.2C443.8,117.8,440.2,114.1,435.6,114.1z"/>
	<path class="st24" d="M460.4,122.4c0,13.7-11.1,24.8-24.8,24.8s-24.8-11.1-24.8-24.8s11.1-24.8,24.8-24.8S460.4,108.7,460.4,122.4z
		 M435.6,100.8c-11.9,0-21.6,9.7-21.6,21.6s9.7,21.5,21.6,21.5c11.9,0,21.5-9.7,21.5-21.5C457.1,110.5,447.5,100.8,435.6,100.8z"/>
	<path class="st22" d="M474.2,153.4h-33.7l56.8-41.4c0.6,3.4,0.8,7,0.8,10.6c0,5.1-0.6,10-1.7,14.7L474.2,153.4L474.2,153.4z
		 M421.9,143.4c-5.9-3.9-10.2-10.3-11.2-17.6L379.1,149c0.7,1.5,1.4,3,2.3,4.4h26.8L421.9,143.4 M446.3,99.6
		c6.6,3.1,11.7,9.1,13.6,16.3L491,93.3c-3.3-6.4-7.8-12.2-13.1-17C478,76.4,446.3,99.6,446.3,99.6"/>
	<path class="st20" d="M475.7,145.7h-0.5v-1l-0.3,1h-0.5l-0.3-0.9v1h-0.5v-1.6h0.6l0.4,1.1l0.4-1.1h0.6L475.7,145.7L475.7,145.7z
		 M475.3,145.6h0.3v-1.4h-0.5l-0.4,1.2l-0.4-1.2h-0.5v1.4h0.3v-1.4l0.5,1.4h0.3l0.5-1.4V145.6z M480.9,145.7h-0.5v-1.1h-0.4v-0.5
		h1.1v0.5h-0.4L480.9,145.7L480.9,145.7z M480.5,145.6h0.3v-1.1h0.4v-0.3h-1v0.3h0.4L480.5,145.6L480.5,145.6z M472.9,145.3
		c-0.2,0-0.3-0.1-0.3-0.2v-0.6c0-0.2,0.1-0.2,0.3-0.2s0.3,0.1,0.3,0.2v0.6C473.2,145.3,473.1,145.3,472.9,145.3z M472.9,144.5
		c-0.2,0-0.2,0-0.2,0.1v0.6c0,0.1,0,0.1,0.2,0.1s0.2,0,0.2-0.1v-0.6C473.1,144.5,473.1,144.5,472.9,144.5z"/>
	<path class="st20" d="M472.9,145.7c-0.6,0-0.7-0.2-0.7-0.4v-0.9c0-0.2,0.1-0.4,0.7-0.4s0.7,0.2,0.7,0.4v0.9
		C473.6,145.5,473.5,145.7,472.9,145.7z M472.9,144.1c-0.6,0-0.6,0.2-0.6,0.3v0.9c0,0.2,0,0.3,0.6,0.3s0.6-0.2,0.6-0.3v-0.9
		C473.5,144.3,473.5,144.1,472.9,144.1z M471.3,145.7c-0.6,0-0.7-0.2-0.7-0.4v-0.9c0-0.2,0.1-0.4,0.7-0.4s0.7,0.2,0.7,0.4v0.4h-0.5
		v-0.1c0-0.1,0-0.1-0.2-0.1s-0.2,0-0.2,0.1v0.6c0,0.1,0,0.1,0.2,0.1s0.2,0,0.2-0.1v-0.1h0.5v0.4C472,145.5,471.9,145.7,471.3,145.7
		L471.3,145.7z M471.3,144.1c-0.6,0-0.6,0.2-0.6,0.3v0.9c0,0.2,0,0.3,0.6,0.3s0.6-0.2,0.6-0.3v-0.2h-0.3v0.1c0,0.2-0.1,0.2-0.3,0.2
		c-0.2,0-0.3-0.1-0.3-0.2v-0.6c0-0.2,0.1-0.2,0.3-0.2s0.3,0.1,0.3,0.2v0.1h0.3v-0.2C471.9,144.3,471.9,144.1,471.3,144.1z
		 M472,151.9h-1.1c-0.2,0-0.5-0.2-0.5-0.5v-5c0-0.2,0.2-0.5,0.5-0.5h1.1c0.2,0,0.5,0.2,0.5,0.5v5C472.4,151.8,472.2,151.9,472,151.9
		L472,151.9z M470.8,146.2c-0.2,0-0.2,0.1-0.2,0.2v5c0,0.2,0.1,0.2,0.2,0.2h0.6v0.1v-0.1h0.6c0.2,0,0.2-0.1,0.2-0.2v-5
		c0-0.2-0.1-0.2-0.2-0.2H470.8L470.8,146.2z M473.1,151.9c-0.2,0-0.5-0.2-0.5-0.5v-0.9c0-0.2,0.2-0.5,0.5-0.5h1.9
		c0.1,0,0.1-0.1,0.1-0.1L475,150h-1.3c-0.6,0-1.1-0.5-1.1-1.1v-1.7c0-0.6,0.5-1.1,1.1-1.1h2.6c0.2,0,0.5,0.2,0.5,0.5v0.9
		c0,0.2-0.2,0.5-0.5,0.5h-1.7c-0.1,0-0.1,0.1-0.1,0.1c0,0.1,0.1,0.1,0.1,0.1h1.3c0.6,0,1.1,0.5,1.1,1.1v1.7c0,0.6-0.5,1.1-1.1,1.1
		H473.1L473.1,151.9z M473.1,150.3c-0.2,0-0.2,0.1-0.2,0.2v0.9c0,0.2,0.1,0.2,0.2,0.2h2.7c0.5,0,0.8-0.4,0.8-0.8v-1.7
		c0-0.5-0.4-0.8-0.8-0.8h-1.3c-0.2,0-0.3-0.2-0.3-0.3s0.2-0.3,0.3-0.3h1.7c0.2,0,0.2-0.1,0.2-0.2v-0.9c0-0.2-0.1-0.2-0.2-0.2h-2.6
		c-0.5,0-0.8,0.4-0.8,0.8v1.7c0,0.5,0.4,0.8,0.8,0.8h1.3c0.2,0,0.3,0.2,0.3,0.3s-0.2,0.3-0.3,0.3H473.1L473.1,150.3z M480.2,151.9
		h-2.1c-0.6,0-1.1-0.5-1.1-1.1v-3.7c0-0.6,0.5-1.1,1.1-1.1h2.1c0.6,0,1.1,0.5,1.1,1.1v1.2c0,0.2-0.2,0.5-0.5,0.5h-1.1
		c-0.2,0-0.5-0.2-0.5-0.5v-0.6c0-0.1,0-0.2-0.2-0.2s-0.2,0.2-0.2,0.2v2.6c0,0.1,0,0.2,0.2,0.2s0.2-0.2,0.2-0.2v-0.6
		c0-0.2,0.2-0.5,0.5-0.5h1.1c0.2,0,0.5,0.2,0.5,0.5v1.1C481.3,151.5,480.8,151.9,480.2,151.9L480.2,151.9z M478.2,146.2
		c-0.5,0-0.8,0.4-0.8,0.8v3.7c0,0.5,0.4,0.8,0.8,0.8h2.1c0.5,0,0.8-0.4,0.8-0.8v-1.1c0-0.2-0.1-0.2-0.2-0.2h-1.1
		c-0.2,0-0.2,0.1-0.2,0.2v0.6c0,0.3-0.2,0.5-0.4,0.5s-0.4-0.2-0.4-0.5v-2.6c0-0.3,0.2-0.5,0.4-0.5s0.4,0.2,0.4,0.5v0.6
		c0,0.2,0.1,0.2,0.2,0.2h1.1c0.2,0,0.2-0.1,0.2-0.2v-1.2c0-0.5-0.4-0.8-0.8-0.8L478.2,146.2L478.2,146.2z M466.8,151.9
		c-0.6,0-1.1-0.5-1.1-1.1v-3.7c0-0.6,0.5-1.1,1.1-1.1h1.4v-1.5c0-0.2,0.2-0.5,0.5-0.5h1.1c0.2,0,0.5,0.2,0.5,0.5v7
		c0,0.2-0.2,0.5-0.5,0.5L466.8,151.9L466.8,151.9z M466.8,146.2c-0.5,0-0.8,0.4-0.8,0.8v3.7c0,0.5,0.4,0.8,0.8,0.8h3
		c0.2,0,0.2-0.1,0.2-0.2v-7c0-0.2-0.1-0.2-0.2-0.2h-1.1c-0.2,0-0.2,0.1-0.2,0.2v1.5c0,0.2-0.1,0.2-0.2,0.2L466.8,146.2L466.8,146.2z
		"/>
	<path class="st20" d="M467.9,151.1c-0.5,0-0.8-0.4-0.8-0.8v-2.6c0-0.5,0.4-0.8,0.8-0.8c0.5,0,0.8,0.4,0.8,0.8v2.6
		C468.8,150.7,468.4,151.1,467.9,151.1z M467.9,147.1c-0.3,0-0.5,0.2-0.5,0.6v2.6c0,0.3,0.2,0.6,0.5,0.6c0.3,0,0.5-0.2,0.5-0.6v-2.6
		C468.5,147.3,468.2,147.1,467.9,147.1z"/>
	<path class="st25" d="M478.2,145.3l0.1,0.3h0.4l-0.4-1.5h-0.6l-0.4,1.5h0.4l0.1-0.3H478.2z M476.4,145.2v0.4H476v-1.5h0.6
		c0.7,0,0.6,0.2,0.7,0.4v0.5c0,0.2,0.1,0.4-0.7,0.4L476.4,145.2L476.4,145.2z"/>
	<path class="st25" d="M476.4,144.5v0.5h0.2c0.3,0,0.3-0.1,0.3-0.2v-0.2c0-0.1,0-0.2-0.3-0.2L476.4,144.5L476.4,144.5z"/>
	<path class="st20" d="M479.4,145.7c-0.6,0-0.7-0.2-0.7-0.4v-0.9c0-0.2,0.1-0.4,0.7-0.4s0.7,0.2,0.7,0.4v0.4h-0.5v-0.1
		c0-0.1,0-0.1-0.2-0.1s-0.2,0-0.2,0.1v0.6c0,0.1,0,0.1,0.2,0.1s0.2,0,0.2-0.1v-0.1h0.5v0.4C480.1,145.5,480,145.7,479.4,145.7
		L479.4,145.7z M479.4,144.1c-0.6,0-0.6,0.2-0.6,0.3v0.9c0,0.2,0,0.3,0.6,0.3s0.6-0.2,0.6-0.3v-0.2h-0.3v0.1c0,0.2-0.1,0.2-0.3,0.2
		c-0.2,0-0.3-0.1-0.3-0.2v-0.6c0-0.2,0.1-0.2,0.3-0.2s0.3,0.1,0.3,0.2v0.1h0.3v-0.2C480,144.3,480,144.1,479.4,144.1z M478.1,145
		h-0.3l0.2-0.5L478.1,145L478.1,145z M478.2,145.3l0.1,0.3h0.4l-0.5-1.5h-0.5l-0.5,1.5h0.4l0.1-0.3H478.2L478.2,145.3z"/>
	<path class="st21" d="M479.7,145.1L479.7,145.1c0,0.2,0,0.2-0.3,0.2c-0.3,0-0.3-0.1-0.3-0.2v-0.6c0-0.1,0-0.2,0.3-0.2
		c0.3,0,0.3,0.1,0.3,0.2v0.1h0.4v-0.2c0-0.2,0.1-0.4-0.7-0.4c-0.7,0-0.6,0.2-0.7,0.4v0.8c0,0.2-0.1,0.4,0.7,0.4
		c0.7,0,0.6-0.2,0.7-0.4v-0.2h-0.4V145.1z M474.9,145.6l0.4-1.1v1.1h0.4v-1.5h-0.6l-0.4,1.1l-0.4-1.1h-0.5v1.5h0.4v-1.1l0.4,1.1
		 M480.2,144.1h1.1v0.4h-0.3v1.1h-0.4v-1.1h-0.4 M478.1,145.1l-0.2-0.7l-0.3,1.2h-0.4l0.4-1.5h0.6l0.4,1.5h-0.4l-0.1-0.3h-0.5
		l0.1-0.2 M472.9,144.4c0.3,0,0.3,0.1,0.3,0.2v0.6c0,0.1,0,0.2-0.3,0.2c-0.3,0-0.3-0.1-0.3-0.2v-0.6
		C472.6,144.5,472.6,144.4,472.9,144.4V144c-0.7,0-0.6,0.2-0.7,0.4v0.8c0,0.2-0.1,0.4,0.7,0.4s0.6-0.2,0.7-0.4v-0.8
		c0-0.2,0.1-0.4-0.7-0.4V144.4z M471.6,145.1L471.6,145.1c0,0.2,0,0.2-0.3,0.2c-0.3,0-0.3-0.1-0.3-0.2v-0.6c0-0.1,0-0.2,0.3-0.2
		c0.3,0,0.3,0.1,0.3,0.2v0.1h0.4v-0.2c0-0.2,0.1-0.4-0.7-0.4c-0.7,0-0.6,0.2-0.7,0.4v0.8c0,0.2-0.1,0.4,0.7,0.4
		c0.7,0,0.6-0.2,0.7-0.4v-0.2h-0.4V145.1z M476.6,145.3h-0.2v-0.4h0.2c0.3,0,0.3-0.1,0.3-0.2v-0.2c0-0.1,0-0.2-0.3-0.2h-0.2v1.2H476
		v-1.5h0.6c0.7,0,0.6,0.2,0.7,0.4v0.5C477.2,145.1,477.3,145.3,476.6,145.3z M471.4,151.8h0.5c0.2,0,0.3-0.2,0.3-0.3v-5
		c0-0.2-0.2-0.3-0.3-0.3h-1.1c-0.2,0-0.3,0.2-0.3,0.3v5c0,0.2,0.2,0.3,0.3,0.3H471.4 M475.5,147.7h0.8c0.2,0,0.3-0.2,0.3-0.3v-0.9
		c0-0.2-0.2-0.3-0.3-0.3h-2.6c-0.5,0-0.9,0.5-0.9,1v1.7c0,0.5,0.5,1,0.9,1h1.3c0.2,0,0.2,0.1,0.2,0.2c0,0.2-0.1,0.2-0.2,0.2h-1.9
		c-0.2,0-0.3,0.2-0.3,0.3v0.9c0,0.2,0.2,0.3,0.3,0.3h2.7c0.5,0,0.9-0.5,0.9-1v-1.7c0-0.5-0.5-1-0.9-1h-1.3c-0.2,0-0.2-0.1-0.2-0.2
		c0-0.2,0.1-0.2,0.2-0.2H475.5 M480.4,148.6h-0.5c-0.2,0-0.3-0.2-0.3-0.3v-0.6c0-0.2-0.1-0.4-0.3-0.4c-0.2,0-0.3,0.2-0.3,0.4v2.6
		c0,0.2,0.1,0.4,0.3,0.4s0.3-0.2,0.3-0.4v-0.6c0-0.2,0.2-0.3,0.3-0.3h1.1c0.2,0,0.3,0.2,0.3,0.3v1.1c0,0.5-0.5,1-0.9,1h-2.1
		c-0.5,0-0.9-0.5-0.9-1v-3.7c0-0.5,0.5-1,0.9-1h2.1c0.5,0,0.9,0.5,0.9,1v1.2c0,0.2-0.2,0.3-0.3,0.3L480.4,148.6 M469.1,151.8h0.6
		c0.2,0,0.3-0.2,0.3-0.3v-7c0-0.2-0.2-0.3-0.3-0.3h-1.1c-0.2,0-0.3,0.2-0.3,0.3v1.5c0,0.1-0.1,0.2-0.2,0.2h-1.4
		c-0.5,0-0.9,0.5-0.9,1v3.7c0,0.5,0.5,1,0.9,1L469.1,151.8 M468.6,150.1v0.2c0,0.4-0.3,0.7-0.7,0.7s-0.7-0.3-0.7-0.7v-2.6
		c0-0.4,0.3-0.7,0.7-0.7s0.7,0.3,0.7,0.7V150.1"/>
</g>
</svg>
