<?xml version="1.0" encoding="utf-8"?>
<!-- Generator: Adobe Illustrator 23.1.0, SVG Export Plug-In . SVG Version: 6.00 Build 0)  -->
<svg version="1.1" id="Calque_1" xmlns="http://www.w3.org/2000/svg" xmlns:xlink="http://www.w3.org/1999/xlink" x="0px" y="0px"
	 viewBox="0 0 595.5 389.9" style="enable-background:new 0 0 595.5 389.9;" xml:space="preserve">
<style type="text/css">
	.st0{fill:none;}
	.st1{fill:url(#SVGID_1_);}
	.st2{fill:url(#SVGID_2_);}
	.st3{fill:#202221;}
	.st4{fill:url(#SVGID_3_);}
	.st5{fill:url(#SVGID_4_);stroke:#323433;stroke-width:0.587;stroke-miterlimit:10;}
	.st6{fill:#D02A30;}
	.st7{fill:#2F3033;}
	.st8{fill:#141619;}
	.st9{fill:#232326;}
	.st10{fill:#202125;}
	.st11{fill:#323335;}
	.st12{fill:#0D1725;}
	.st13{fill:#313339;}
	.st14{fill:#3F4044;}
	.st15{fill:url(#SVGID_5_);}
	.st16{fill:#2B2C30;}
	.st17{fill:#CCCEC6;}
	.st18{fill:#030405;}
	.st19{fill:#8D0303;}
	.st20{fill:#FF6D67;}
	.st21{fill:#BF181A;}
	.st22{fill:url(#SVGID_6_);}
	.st23{fill-rule:evenodd;clip-rule:evenodd;fill:#CCCEC6;}
	.st24{fill:#1B1C1A;}
	.st25{fill:#121411;}
	.st26{fill:#292A2D;}
</style>
<g>
	<path class="st0" d="M112,377c14.2,2.5,39,5,75.5,5s61.3-2.5,75.5-5"/>
	
		<linearGradient id="SVGID_1_" gradientUnits="userSpaceOnUse" x1="-1177.4199" y1="143.33" x2="-1177.4199" y2="125.413" gradientTransform="matrix(-1 0 0 -1 -668.846 392)">
		<stop  offset="0" style="stop-color:#3A3B3F"/>
		<stop  offset="0.335" style="stop-color:#333333"/>
		<stop  offset="1" style="stop-color:#282A2E"/>
	</linearGradient>
	<path class="st1" d="M592.4,270.8c1.4,0,2.5-1.1,2.5-2.5l0,0c0,0,0.6-4.3,0.6-9.9c0-5.6-0.6-9.9-0.6-9.9c0-1.4-1.1-2.5-2.5-2.5l0,0
		H424.7c-1.4,0-2.5,1.1-2.5,2.5v0c0,0-0.6,4.3-0.6,9.9c0,5.6,0.6,9.9,0.6,9.9c0,1.4,1.1,2.5,2.5,2.5l0,0H592.4z"/>
	
		<linearGradient id="SVGID_2_" gradientUnits="userSpaceOnUse" x1="508.574" y1="114.848" x2="508.574" y2="119.474" gradientTransform="matrix(1 0 0 -1 0 392)">
		<stop  offset="0" style="stop-color:#1F1F1F"/>
		<stop  offset="1" style="stop-color:#1C1F23"/>
	</linearGradient>
	<path class="st2" d="M425,277.3l5.9-4.1h155.4l5.9,4.1H425z"/>
	<path class="st3" d="M432,268.4h153.1v6.5H432V268.4z"/>
	
		<linearGradient id="SVGID_3_" gradientUnits="userSpaceOnUse" x1="508.574" y1="113.962" x2="508.574" y2="17.478" gradientTransform="matrix(1 0 0 -1 0 392)">
		<stop  offset="0" style="stop-color:#333333"/>
		<stop  offset="1" style="stop-color:#282A2E"/>
	</linearGradient>
	<path class="st4" d="M425,277.3h167.2v112.6H425V277.3z"/>
	
		<linearGradient id="SVGID_4_" gradientUnits="userSpaceOnUse" x1="508.574" y1="128.059" x2="508.574" y2="42.651" gradientTransform="matrix(1 0 0 -1 0 392)">
		<stop  offset="0" style="stop-color:#303030"/>
		<stop  offset="1" style="stop-color:#202125"/>
	</linearGradient>
	<path class="st5" d="M585.1,355H432c-0.5,0-0.9-0.4-0.9-0.9V290c0-4,3.2-7.2,7.2-7.2l0,0h140.5c4,0,7.2,3.2,7.2,7.2V354
		C586.1,354.5,585.6,355,585.1,355C585.1,355,585.1,355,585.1,355z"/>
	<path class="st3" d="M431.1,355.9h155v1h-155V355.9z M431.1,357.8h155v1h-155V357.8z M431.1,359.7h155v1h-155V359.7z M431.1,361.6
		h155v1h-155V361.6z M431.1,363.5h155v1h-155V363.5z M431.1,365.4h155v1h-155V365.4z M431.1,367.3h155v1h-155V367.3z M431.1,369.2
		h155v1h-155V369.2z M431.1,371.1h155v1h-155V371.1z M431.1,373h155v1h-155V373z M431.1,374.9h155v1h-155V374.9z M431.1,376.8h155v1
		h-155V376.8z M431.1,378.7h155v1h-155V378.7z M431.1,380.6h155v1h-155V380.6z M431.1,382.5h155v1h-155V382.5z M431.1,384.4h155v1
		h-155V384.4z M431.1,386.3h155v1h-155V386.3z M431.1,388.2h155v1h-155V388.2z"/>
	<g>
		<path class="st6" d="M472.5,306.4c0.2,0,0.2-0.1,0.4-0.2c0.2-0.1,2-0.7,2-0.7c0.2-0.2-0.1-0.6,0.1-0.7c0.2-0.1,0.5-0.1,0.7-0.1
			c0.7-0.4,1.7-0.4,2.4-0.9c0.2-0.1,0.4-0.5,0.6-0.6c0.4-0.2,1-0.2,1.5-0.4c0.2-0.1,0.3-0.5,0.5-0.7c0.3-0.3,0.6-0.4,0.9-0.7
			c0.5-0.4-1.8,0.1-1-0.8c0.8-0.8,4.1-0.5,4.4-0.8l0.1-0.1c0.2-0.2,0.8,0,0.8-0.6v-0.2c0,0-2.1,0.2-2.2,0.2
			c-1.3,0.3-3.1,0.2-4.3,0.6c-0.5,0.2-3.4,0.6-3.6,0.8l-0.5,0.3c-2.3,0.5-4.7,0.7-7.1,1.1c-1.2,0.2-2.9,0.2-3.9,0.6
			c-0.9,0.3-2.4,0.4-3.3,0.6c-0.7,0.2-2.8-0.2-3.4,0c-0.1,0.1-0.3,0.8-0.2,0.9c0.1,0.1,0.4,0.1,0.5,0.1c0.1,0.1,0.3,0.1,0.2,0.3
			c-0.1,0.2-0.9,0-1.1,0.3c-0.3,0.4,0.7,1,0.8,1.3c0.2,0.4-0.7,0.6-0.5,1.1h0.4c0.2,0,0.4,0.1,0.5,0.3l0.2,0.1c0.4,0.5,9.3-1,9.3-1
			s-2.6,22.2-13.1,23.4c-2.4,0.3-5-2.8-5.1-2.9c-0.2-0.1-0.5-0.1-0.6,0c-0.1,0.1-0.2,0.6,0.1,0.9c1.2,1.4,4.8,4.3,8.3,4.2
			C468,332.4,472.5,306.4,472.5,306.4L472.5,306.4z"/>
		<path class="st6" d="M471.7,318.3L471.7,318.3c0,1.2,0.8,0.4,1,0.7c0,0,0,0.5-0.1,0.6c-0.9,1.8-1.7,3.8-2.9,5.6
			c-0.1,0.1-0.1,0.2-0.1,0.4c-0.4,0.8-1.1,1.7-1.4,2.4c-0.1,0.3-0.2,0.5-0.3,0.8c0,0-0.1,0.6-0.1,0.5c0,0.7-0.7,2-0.5,2.5
			c0.1,0.2,0-0.1,0.1-0.2c0.2-0.1,0.5-0.2,0.6-0.4c0.1-0.2,0.3-1.3,0.4-1.3c0.3-0.2,0.4-0.6,0.4-0.1c0,0.2,0,0.4-0.1,0.6
			c0,0.1,0,0.2,0,0.3l-0.1,0.2v0.3l0.1-0.1l0.1-0.1c0-0.1,0-0.1,0.1-0.2c0.1-0.2,0-0.1,0-0.1c0,0,0,0,0.1-0.1c0.1-0.1,0-0.5,0.2-0.6
			c0.1-0.1,0.4-0.6,0.5-0.8l0.4-0.7c0.1-0.1,0.1-0.3,0.2-0.2c0.4,0.4,0.3,1.6,0.1,2.2c0,0.1-0.1,0.4-0.1,0.4c0,0,0.1-0.1,0.1-0.1
			c0.6-0.3,0.2-0.9,0.3-1c0.6-0.6,0.7-1.6,1.3-2.2c1-1,2.9-7.5,3.8-8.4c0.8-0.8,4.8-1.6,5.6-2.4c0.5-0.5,0.5,0.9,0.5,1.1
			c0,0.5,0,4.3,0,4.4c0.1,0.4,0.4,0.6,0.5,1c0.2,0.6-0.2,2.8,0.4,3.4c0.1,0.1,0.1-0.1,0.1-0.1c0.1-0.1,0.3-0.6,0.3-0.7
			c0-0.1,0-0.5,0.1-0.4c0.1,0.1,0.6,1.9,0.7,2c0.1,0.1,0,0.4,0.1,0.5c0,0.1,0.2,0.2,0.2,0.2c0,0,0,0.2,0.1,0.1
			c0.1-0.3,0.1-0.6,0.2-1c0.1-0.3,0.1-0.9,0.3-1c0.3-0.3,0.7,0.7,0.7,0.7c0,0,0.3,0.2,0.3,0.2v-1.2c0-1.9,0-12.4,0.1-12.6
			c0.1-0.2,0.5-6.6,0.5-7.3c0-0.9-0.2-0.7-0.6-1.2c-0.1-0.1,0-1-0.1-1l-0.5-0.4c-0.2-0.2-1.5,0.6-2,0.6c-1.2,0-0.9,0.4-1.5,1
			c0,0-0.1,0-0.1-0.1c-0.1-0.1-0.1-0.1-0.1-0.4v-0.2c-0.1,0-0.5,0.1-0.6,0.2c-0.3,0.2-0.6,1-0.8,1.3c-0.3,0.7-0.9,1.2-1.2,1.9
			c-0.1,0.3-0.3,1.3-0.5,1.5c-0.9,0.9-2.5,3.5-3,4.6c-0.1,0.1-0.3,1-0.3,1c-0.3,0.3-1.5,2.3-1.6,2.7c-0.1,0.2-1,0.5-1.1,0.6
			c-0.2,0.1-0.4,0-0.6,0.2C471.7,318.3,471.8,318.3,471.7,318.3C471.8,318.3,471.8,318.3,471.7,318.3L471.7,318.3z M477.5,316.2
			L477.5,316.2c0-0.6,1.3-2.5,1.6-3.4v0c0.1-0.1,0.2-0.6,0.2-0.6c0.4-0.3,1-1.7,1.6-2.3l0.6-0.6c0,0,0.1-0.1,0.2,0
			c0.1,0.1,0,2-0.1,2.1c-0.1,0.6,0.1,2.4,0,2.6c-0.1,0.3-0.6,0.4-1.1,0.7c-0.7,0.4-1.5,0.9-2,1C478.3,315.7,478.3,316.2,477.5,316.2
			L477.5,316.2L477.5,316.2z M497.8,303.8L497.8,303.8L497.8,303.8c0.2,0,0.3,0,0.4,0.1c0.1,0.1,0-0.1,0.1,0
			c0.1,0.1,0.4,0.4,0.6,0.5c0.1,0.1,0.3,0,0.4,0h0.2c0.1,0.2,0.7,1.3,1,1.5c0.1,0.1,0.5,0.1,0.7,0.2c0,0,0.2,0,0.2,0h0.1
			c0,0.3-0.8,0.5-0.6,0.8c0.3,0.3,0.4,0.7-0.3,0.9c-0.6,0.1-1.2-0.1-1.7,0.1c-0.6,0.3-1.3,0.8-1.9,0.9h0c-3.1,1-6.4,5.5-6.4,8.9v0.1
			c0,2.2,1.3,4.7,3.3,5.6c0.3,0.1,0.5,0.4,0.8,0.5c0.3,0,0.6,0.2,1,0.2c0.2,0,1.6,0.2,1.8,0.1c0.5-0.3,1-0.4,1.4-0.7
			c0.2-0.2,0.1-1,0-1c-0.5-0.3-0.1-3.4,0.1-4c0.2-0.5,0.5-1.3,0.2-1.6l-0.1-0.1c0,0-0.3-0.1-0.4-0.1c-0.4,0.3-1.6,0.1-1.8,0.2
			c-0.6,0.4-1.2,0.6-1.8,1c-0.2,0.1-1.2,0.7-1.3,0.5c0-0.1,0.1-0.1,0.2-0.2c0.1-0.1,0.4-0.4,0.6-0.5c0.4-0.2,0.6-1.2,1-1.5
			c1-0.8,2.9-1.7,4.3-2.1c0,0,0.1,0,0.1,0l0-0.1l0.8-0.3c0.3-0.1,0.4-0.5,0.7-0.5c0.2,0,0.3,0.3,0.5,0.3c0.6,0.3,1.2-0.3,1.2,0.3
			v0.5c-0.3,0.3-0.1,1.2-0.3,1.5c-0.1,0.2-0.8,3-0.8,3.1c0,0.1-0.3,1.3-0.3,1.3c-0.1,0.1-0.1,3.4-0.1,3.8c0,0.7,0.2,1.2,0.4,1.8
			c0,0.1,0.1,0.3,0.1,0.4c0,0.1,0.1,0.1,0,0.1c-0.1,0.1-0.3-0.2-0.3-0.2c-1.1-0.3-2.1-2.1-2.1-2.1c-0.5-0.2-0.5,0.7-0.9,0.9
			c-0.4,0.2-1,0.7-1.3,1.1c-0.3,0.4-3.7,0.4-4,0.1c-0.4-0.4-1.3-0.4-1.7-0.7c-0.3-0.2-2.9-2.6-3-2.7c-0.1-0.5-0.4-1.1-0.7-1.6
			c0,0-0.5-2.2-0.6-3.6c-0.3-4.5,2.2-8.9,5.2-11.5c0.4-0.4,0.9-1.1,1.4-1.3c0.6-0.2,1.2-0.4,1.8-0.6c0.5-0.2,1-0.2,1.5-0.4
			C497.6,303.9,497.7,303.8,497.8,303.8L497.8,303.8L497.8,303.8z M509.9,302.8L509.9,302.8c0,0.1-0.2,0.1-0.2,0.1
			c-0.1,0.1-0.3,0.3-0.4,0.5c-0.1,0.3-1.1,1.5-1,2c0,0-0.2,0.1-0.2,0.2c-0.2,0.2-0.4,0.8-0.6,1c-0.2,0.2-1.1,2.8-1.3,3.3
			c0,0.1,0,0.4,0,0.5c-0.3,0.6-0.7,1.3-1,1.9c-0.5,0.9-0.8,2.6-1.4,3.7c-0.4,0.7-0.8,2.6-1,4.2c-0.1,0.8,0,2,0,2.6
			c0,0.2,0,1,0.1,1.1c0,0.1,0.2,0.4,0.2,0.3c-0.1,0.3,0.4,0.4,0.5,0.5c0,0,0.2,0.4,0.2,0.5c0,0,0.2,0.1,0.2,0.2
			c0.8-0.3,1.9,0.4,2.9-0.3c0.2-0.1,1.8-1.1,1.8-1.1l0.2-0.3c0.2-0.3,0.7-0.6,0.9-1c0.2-0.4,1-1.8,1.4-1.8c-0.7,0.1-0.2,3.9-0.2,4.3
			h0.2c0,0.2,0.1,0.8,0.3,0.7c-0.1,0.2,0.4,0.5,0.6,0.6c0.9,0.6,2.3-0.9,2.6-0.6c0.1,0.1-0.3,0.8-0.4,1c0,0.2-1.2,2.9-1.4,3
			c-0.2,0.2-0.8,1-0.8,1.3c0,0.2,0,0.3,0.1,0.4c0,0,0,0.2,0.1,0.1v0.2c0.1-0.1,0.3,0.4,0.3,0.4c0.2,0.2,1.1-0.2,1-0.6
			c0.1,0.1,0.1-0.3,0.2-0.3c0.4-0.1,0.5,0.3,0.6,0.2c0.4-0.2,1.1-1.4,1.1-0.5h0.2v-0.2c0,0,0.3-0.1,0.3-0.2c0.2-0.1,1.4-1.9,1.5-2.3
			c0.1-0.2,0.5-0.7,0.6-0.6v-0.2c0.1,0.1,0.2-0.2,0.2-0.2c0.1-0.1,0.3-0.1,0.4-0.2c0.1,0,0.1-0.1,0.2-0.1c-0.1-0.2,0.1-0.4,0.2-0.6
			c1-1,3.1-5.6,3.9-7.1c0.1-0.1,1.1-1.6,1.3-1.7l0.9-0.1c0.1,0,0.3-0.1,0.2-0.2c0.1,0,2.1-1.5,2.7-1.5c0,0,0.3-0.2,0.3-0.2
			c0.3-0.1,0.6-0.2,0.9-0.2v-0.2c0.1,0,0.7-0.3,0.8-0.2c0.3,0.3-0.3,2.9-0.3,2.9c0,0.2,0.2,1.1,0.2,1.1h0.2c0,1.1,0.2,2.2,0.2,3.4
			v0.3c0,0,0.4,0,0.5,0c0.4,0.4,0.1,2.4,0.7,3c0,0,0,0,0,0.1c0,0.2,0.1,0.2,0.2,0.2c0,0.3,0,0.3-0.2,0.5c0,0,0.1,0.3,0.1,0.4
			c0.2-0.1,0.2,0.2,0.2,0.2c0.3,0.3,0,0.8-0.2,1.1c0,0-0.1,0.5,0.1,0.4c-0.1,0.3,0.2,0.1,0.2,0.4h0.2c0,0,0.2,0.2,0.2,0.3
			c0.1,0.2,0.2,0.4,0.2,0.6h0.1v0.2h0.2l0.1,0.2v0.2c0.2,0.2,0.2-0.5,0.1-0.7c-0.2-0.3,0.1-1.1,0.1-1.5c0-0.5,0.2-2.9,0.3-3.1
			c0.3-1,0.2-6.7,0.3-7.1c0.4-1.7,0.6-4.8,0.6-6.9c0-1.4,0.2-3.1,0.6-4.5c0.1-0.4,0.1-1.1,0.3-1.4c0.1-0.1,0.2-0.1,0.2-0.2
			c0,0,0.1-0.5-0.1-0.3v-0.4h-0.2c0,0,0-0.4-0.1-0.2v-0.2c-0.3,0-0.7-0.2-1-0.2c0,0-0.7-0.1-0.6-0.2h-0.2c0.1-0.1-0.2-0.2-0.3-0.2
			v-0.2l-0.1-0.1h-0.2c0.1-0.1-0.2-0.2-0.2-0.2c-0.1-0.1-0.1-0.4-0.2-0.5c-0.2-0.1-0.4,0.2-0.5,0.1c0.1,0.4-0.4,0.3-0.6,0.6
			c-0.2,0.5,0.1,1.1-0.2,1.6l-0.8,0.7c0,0,0,0.1,0,0.1c0,0,0,0,0,0c-0.3,0-0.8,0.5-0.8,0.5c0,0,0,0.1-0.1,0.2
			c-0.1,0.1-0.5,0.3-0.6,0.6c-0.2,0.5-0.9,0.9-1.2,1.4c-0.4,0.8-1.4,2.3-2.2,2.7c-0.2,0.1-0.4,0.9-0.6,0.8c0,0.1-0.6,0.7-0.7,1
			c-0.3,0.5-1.1,2.2-1.4,2.6c-0.2,0.2-0.7,0.4-0.6,0.6c0,0-0.9,0.5-0.8,0.7c-0.1-0.1-1.3,0.9-1.4,1c-0.2,0.2-1.2,0.2-1.3,0.4
			c-0.1,0.1,0.4,0.9,0.2,1.3c-0.1,0.3-0.6,0.4-0.6,0.6h0.4c0.4,0,0.6-0.2,1-0.2c0.1,0,0.1,0,0.1,0.1c-0.2,0.4-2.4,3.7-2.6,3.8
			c-0.1,0-1-0.1-1-0.1c-0.1-0.1-0.1-0.4-0.2-0.3c0-0.2,0-1.6,0-1.6c0.4-0.8,0.4-1.9,0.8-2.7c0.5-1.1,1.7-4.2,2.2-5
			c0.1-0.2,0.3-0.3,0.2-0.6h0.1c0.4-1.3,1.2-2.6,1.6-3.8c0.1-0.3,0.5-1.6,0.7-1.8l0.3-0.2c0-0.1,0.3-0.7,0.2-0.9
			c0,0-0.3-0.3-0.2-0.3h-0.2l-0.1-0.1v-0.2c-0.3,0.3,0.2-1.5-0.1-1.2c0-0.6-1.3-0.6-1.8-0.6l-0.1-0.1v-0.2c-0.1,0.1-0.2-0.1-0.2-0.1
			c-0.2,0-0.9,0-1,0.1c-0.5,0.3-1.7,3.3-2.2,3.8l-0.2,0.6c-0.1,0.1-0.3,0.3-0.2,0.4h-0.1c0.2,0.7-0.4,1.2-0.7,1.7
			c-0.1,0.1-0.5,2.7-0.5,3h-0.2c0,0.1-0.1,0.4-0.2,0.3c0.1,0.3-0.5,1.1-0.6,1.4c-1.1,3.3-0.7,2.1-3,4.4c-0.4,0.4-0.8,1.1-1.3,1.4
			c-0.3,0.2-0.5,0.2-0.7,0.5c0,0,0,0.1,0,0.1H508c0.1,0.1-0.6,0.3-0.5,0.4c0,0-1,1-1.8,0.6c-1-0.5,0.9-4.1,0.8-4.5
			c0.1-0.1,0.2-0.2,0.3-0.4c0.2-0.4,0.1-1.2,0.4-1.6c0.6-0.9,1.3-1.3,1.3-2.6l0.1-0.2h0.2c0,0,0.2-0.3,0.2-0.5c0,0,0.1,0,0.1,0
			l0.4-0.4c0.4-0.4,0.5-1.2,0.7-1.8c0.1-0.3,0.6-0.5,0.7-0.7c0.1-0.2-0.1-0.9,0.1-1.3c0-0.1,0.2-0.4,0.2-0.3
			c-0.1-0.2,1.4-2.2,1.4-2.3h0.2c-0.1-0.2,0.7-1.6,0.7-1.7h-0.2v-0.2c-0.1,0.1-0.4-0.4-0.5-0.5c0,0-0.1,0-0.1,0v-0.2h-0.2
			c0.1-0.1-0.1-0.1-0.1-0.1c0,0-0.1-0.5-0.2-0.4c0-0.2-0.3-0.8-0.2-0.8h-0.2c0.3-0.6-0.9-0.4-1.3-0.3
			C510.4,302.4,510,302.9,509.9,302.8L509.9,302.8z M526.4,313.6c0,0,0.2-0.6,0.3-0.8c0.4-0.7,0.9-1.6,1.3-2.2
			c0.4-0.6,2.5-3.2,2-0.8c-0.1,0.5-0.3,0.7-0.3,1.3c0,1-0.2,0.9-1,1.1C528,312.4,527.1,313.6,526.4,313.6z M534.8,332.5
			C534.8,332.5,534.8,332.4,534.8,332.5l0-0.5c0-0.3,0.3-0.8,0.3-0.9c-0.8-0.8,0.9-3,1.2-3.9c0-0.1,0-0.9,0-0.9c0,0,0.3-0.1,0.3-0.2
			c-0.1-0.1-0.2-0.5-0.1-0.8c0.1-0.2,0.3-0.3,0.4-0.4c0.2-0.4,0.1-0.7,0.4-1c0-0.1,0-0.4,0.1-0.5c0.1-0.1,0.1-0.2,0.1-0.3
			c0.2-0.3,0.5-0.3,0.6-0.6c0.2-0.6-0.1-1.3,0-1.6c0.3-0.6,1.2-3.7,1.4-4l0.2-0.3c0.4-0.5,0-1.1,0.2-1.5c0.2-0.5,0.4-0.9,0.7-1.4
			c0.1-0.2,0.2-1.2,0.5-1.7c0-0.1,0.3-1.2,0.2-1.3c-0.1-0.1-0.4,0.3-0.5,0.4c-0.2,0.1-0.4,0.1-0.6,0.3c-0.1,0.1-2,0.5-1.9-0.1
			c0,0-0.2-0.2-0.3-0.2c-0.2-0.1-0.1,0-0.3-0.1c0,0-0.6,0-0.7-0.1c-0.4-0.4-0.4-0.6-1-0.9c-0.1-0.1,0-0.2-0.3-0.1
			c0.1,0-0.2-0.1-0.2-0.1c-0.1-0.1,0.1-0.9,0.1-1c0.4-0.4,1.8-1.3,1.6-1.9c0.1-0.1,0,0,0.1-0.1c0.1-0.1,0.3-0.2,0.5-0.3
			c0.3-0.1,1.1-0.3,1.4-0.5c0.2-0.1,0.3-0.2,0.5-0.3c1-0.4,1.9-0.7,2.9-1c0.2-0.1,0.3-0.3,0.5-0.4c0.2-0.1,0.6-0.1,0.7-0.2l0.2-0.1
			c1-0.7,3.8-0.4,4.3-0.7c0.3-0.2,0.7-0.6,0.9-0.7c0.4-0.2,4.7,0.5,5,0.6c0.5,0.3,0.8,0.3,1.2,0.7c0,0,0.4,0.6,0.5,0.5
			c0,0.3,0.9,0.5,0.9,0.6c0.2,0.3,0.4,0.7,0.8,0.8c0,0,0.2,0.5,0.2,0.5c0.1,0.3,0.4,0.5,0.5,0.6c0.2,0.2,0,0.7,0.1,1
			c0.1,0.2-0.1,0.7-0.1,0.8c-0.2,0.4,0.1,1.1-0.1,1.5c-0.3,1.1-0.8,1.8-1.4,2.7c-0.4,0.6-1.1,0.7-1.4,1.2c-0.1,0.1-0.2,0.5-0.3,0.6
			c-0.3,0.1-1.4,0.7-1.7,0.9c-0.2,0.2-0.5,0.5-0.8,0.6l-0.3,0.1h-0.1c0,0,1.4,1.3,1.5,1.4c0.8,0.8,1.2,2,1.8,2.7
			c0.5,0.5,1.1,1,1.5,1.6c0,0,0,0,0.1,0c1.8,0.7,3.7,3.4,5.3,4.1c0,0.1,0.3,0.4,0.4,0.4c0.3,0.2,0.9,0.8,1,1
			c0.3,0.4,3.5,3.4,4.2,4.1c0.1,0.1,0.2,0.8,0.1,0.9c0.2-0.5-2.6-1.8-2.8-2.2c-0.2-0.5-2.7-2.4-3.4-2.7c0,0-1.7-1.6-1.9-1.7
			c-0.5-0.3-1.3-0.6-1.8-0.9c-0.7-0.5-1-1.3-1.4-1.8c-0.3-0.3-0.8-0.2-1.2-1c0-0.1-0.4-0.3-0.5-0.4l-0.1-0.2
			c-0.2-0.3-0.5-0.4-0.7-0.6c0,0-0.1-0.3-0.2-0.3c-0.1,0-0.5-0.3-0.4-0.4h-0.2c0-0.1-0.2-0.2-0.3-0.3c0-0.1-0.4-0.5-0.5-0.7
			c0,0-0.5,0-0.5,0l-0.3-0.2c0,0-0.3-0.1-0.2-0.2c-0.3,0-0.8-0.6-1-0.8c-0.1-0.1-0.9-0.1-1.1-0.6c-0.1-0.3-0.4-0.4-0.7-0.5
			c-0.1-0.1-0.3-0.2-0.4-0.3l-0.1-0.3c0-0.1,0-0.1,0-0.1c0,0,0,0-0.1,0c-0.1,0-0.1-0.1-0.1-0.1V316v0.2l0.1,0.1l0.1,0.2
			c0,0.1,0.1,0.1,0.1,0.3s0.1,0.4,0.2,0.5c0.3,0.3,0.7,0.6,1,0.9c0.3,0.3,1,0.8,1.3,1.2c0.7,0.7,1.8,1.3,2.6,2.1
			c0.3,0.3,0.5,0.6,0.7,1c0,0,0,0.1,0,0.1l0.7,0.2c0.6,0.7,1.7,1.2,2.1,2.1c0.1,0,0.1,0.1,0.1,0.1c0.3,0.2,0.9,0.7,1,1
			c0.2-0.1,0.2,0.2,0.4,0.3c1.5,0.6,3.3,2.3,4.4,3.4c0.1,0.1,0.6,1,0.8,1c0.3,0.1,1.1,0.5,1.4,0.8c0.1,0.1,0.2,0.5,0.2,0.6
			c0,0,2.3,2.3,2.5,2.4c0,0,0,0,0,0.1c0.1,0.3,0.5,0.3,0.5,0.5c0,0.1,0.1,0.3,0,0.3c0,0-0.2-0.1-0.2-0.1c0,0-1.5-1.5-1.6-1.5
			c-1.1-0.4-4.2-3.5-5.7-4.2c-1.2-0.6-2.8-2.4-3.7-3.3c-0.5-0.5-0.7-0.9-1-1.2c-0.1-0.1-0.6-0.2-0.8-0.4l-0.1-0.2
			c-1.2-0.5-1.8-1.5-2.8-1.8l-0.2-0.1c0,0,0,0-0.1,0c-0.1-0.2-3.3-3.8-3.4-3.9c-0.3-0.1-3-1.8-3-1.9c-0.2-0.2,0-0.4,0.1-0.6
			c0.5-1.2,1,0.2,1.9-0.7c0.1-0.1-0.7-0.8-0.8-0.9c-0.1,0-0.3-0.2-0.2-0.3l-0.2-0.1c0-0.4,0-0.5,0.3-0.7c0.1-0.1,0.1-0.2,0.2-0.3
			c0.1-0.1,0.5,0.2,0.5,0.2c0.5,0.7,1,0.9,2.1,0.9c0.2,0,0.4,0.1,0.5-0.1c0.7-1,1.8-2.9,2.5-3.8c0,0,0.1-0.5,0.1-0.5
			c-0.1-0.1-0.4-0.5-0.4-0.7l-0.9-0.3c-0.1,0-0.1-0.1-0.1-0.2c0,0,0,0-0.1,0c-0.3-0.1-0.9-0.5-0.9-0.6h-0.2c-0.1,0-0.6,0-0.6,0
			c-0.1,0.1-0.1,0.1-0.1,0.1c0,0,0,0-0.1,0c-2.2,0-2.5,0.2-3.3,2c-0.1,0.2-0.2,0.3-0.3,0.5c-0.2,0.1-0.1-0.6-0.7-0.4
			c-0.1,0-0.5,1.9-0.6,2.1l-0.9,1.2c-0.9,1.3-1.3,6-1.9,6.7c0,0,0,0.1,0,0.2c0,0.9-0.2,1.4-0.4,2.1c-0.1,0.2-0.3,2.5-0.5,3.1
			c-0.2,0.6-0.4,0.7-0.6,1.2c-0.4,0.9,0.3,1.6-0.7,2.3c0,0,0,0,0,0.1c0,0.3,0,0.9-0.2,1c-0.1,0-0.6-0.1-0.7-0.1
			c-0.1,0-0.1-0.2,0-0.3c0.1-0.2,0.5-0.6,0.7-0.7c0.1-0.1,0-0.8,0.1-0.9c0-0.1,0.5-0.6,0.6-0.6c0.1-0.1,0.1-0.3,0.2-0.5
			c0-0.1-0.2-0.4-0.2-0.5c0,0,0-0.6,0-0.6c-0.1-0.1-0.5,0.4-0.5,0.5c-0.2,0.3-1,2.5-1,2.5c-0.4,0.4-0.9,1.9-1.1,2
			c-0.3,0.2-0.4-1.4-1-0.3c0,0,0,0.7-0.1,0.8c-0.1,0.3-0.3,0.5-0.4,0.9v0.4c-0.1,0.1-0.2-0.4-0.5-0.2c-0.7,0.5-0.3,0.3-0.6,0
			C534.9,332.5,534.9,332.5,534.8,332.5L534.8,332.5"/>
		<path class="st6" d="M544.1,317L544.1,317c0.2,0.1,0.4,0,0.5,0.1c0.6,0.2,1.1,0.2,1.6,0.4c0.7,0.4,1.6,1.5,2.6,1.8
			c0.1,0,0,0.1,0,0.2c0.1,0.2,0.3,0.5,0.5,0.6c0.4,0.4,1.6,1.9,1.9,2.1c0.1,0.1,0.4,0.3,0.5,0.4c0,0.1,0.2,0.6,0.3,0.6
			c0.4,0.4,0.7,0.4,1.2,0.7c0.1,0.1,0.4,0.5,0.4,0.7c0,0.1,0.2,0.1,0.3,0.2c0.3,0.2,1.9,1.7,2.1,1.8c0.2,0.1,0.3,0.5,0.6,0.6
			c0.2,0.1,0.1,0.4,0.3,0.5c0.8,0.4,3,1.5,3.7,2.2c0.1,0.1,0.2,0.4,0.3,0.5c0.4,0.3,1.2,0.6,1.5,1c0.5,0.7,2.1,2.7,2.8,3.1
			c0.2,0.1,0.3,0,0.3,0.3c0,0,0,0,0.1,0c0.1,0.1,0.2,0.3,0.4,0.4c0.3,0.2,0.7,0.8,1,1c0,0,0.1,0,0.1,0c0.2,0,1.9,1,1.5,1.4
			c-0.1,0.1-0.2,0.1-0.3,0c-0.2-0.3-0.4-0.6-0.8-0.8c-0.1,0-0.3,0-0.4-0.2c-0.4-1-3.6-2.5-4-3.2c0,0-0.3-0.1-0.3-0.1
			c-0.1-0.1-0.7-0.3-0.7-0.3c-0.2-0.2-0.6-0.7-0.8-0.9c-0.6-0.4-2-2-2.2-2c-0.9-0.3-1.6-1.2-2.6-1.7c-0.1-0.1-0.3-0.1-0.4-0.2
			c-0.6-0.8-4.8-3.8-4.8-4.3h-0.2c0,0-0.2-0.1-0.2-0.2c0,0-0.1,0-0.1,0l-0.5-0.3c0,0-0.8-1.2-1.1-1.5l-0.1-0.1
			c-0.7-0.7-1.4-1.5-2.3-2c0,0-0.4-0.8-0.6-0.9c0,0,0,0-0.1,0c-0.8-0.2-1.4-0.1-2-0.5c-0.2-0.1-0.3-0.8-0.3-1.2v-0.1
			c0,0,0-0.1,0-0.1C543.9,317.1,544.2,317.1,544.1,317L544.1,317L544.1,317z"/>
		<path class="st6" d="M566.6,338.6c0.1-0.1,0.2,0,0.3,0.1c0.2,0.2,0.4,0.3,0.5,0.6c0.1,0.3,0.6,0.1,0.8,0.4
			c0.1,0.1,0.1,0.1,0.2,0.3c0.1,0.1,0.1,0.1,0.1,0.3v0.3l-0.1,0.2c0,0,0.1,0-0.1-0.1c-0.1-0.1,0.1,0,0-0.1l-0.1,0c0,0,0,0,0-0.1
			c-0.1-0.1-0.1-0.1-0.2-0.2c-0.1-0.1-0.3-0.1-0.4-0.3c-0.1-0.1-0.4-0.2-0.5-0.3c-0.1-0.1-0.8-0.6-0.9-0.6c-0.6-0.2-1.1-0.5-1.5-1
			c-0.4-0.4-2-1.3-2.2-1.7c0,0-0.1,0-0.1,0c-0.2-0.2-0.4-0.3-0.6-0.4c-0.1-0.1-3.3-2.5-3.3-2.5c0,0,0,0,0,0c0,0,0,0,0,0
			c-0.8-0.5-1.6-1.4-2.4-1.8c-0.1,0-0.7-0.9-0.7-1.1v0c-1.1-0.7-1.8-0.5-3.2-2.1c0,0,0-0.1,0-0.1c-0.6-0.2-3.9-3.8-4.1-4.2
			c-0.1-0.3-0.6-0.2-0.7-0.5c-0.2-0.3-0.1-0.6-0.4-1c-0.1-0.1-1.3-0.4-1.3-0.4c-0.3-0.3-0.5-0.9-0.7-1.1c-0.2-0.2-0.9-0.4-1.1-0.7
			c0,0,0-0.3,0-0.3c0,0,0.2-0.1,0.2-0.1h0.8c0.3,0.2,1.1,0.9,1.3,1c0.7,0.2,1.4,0.3,2,0.8c0.8,0.7,0.5,1.2,0.9,2
			c0.3,0.7,3.6,3.6,4.3,4.3c0.3,0.3,0.4,0.8,0.8,1c0.1,0.1,1,0.2,1,0.3c0.3,0.3,0.8,0.6,1,0.8c0.1,0.1,0.1,0.6,0.2,0.6
			c0.1,0.1,1.3,1.1,1.4,1.2c0,0.1,0.2,0,0.3,0c0.1,0.2,0.6,0.4,0.8,0.5c0.1,0.1,0.5,0.7,0.6,0.8c0.1,0.1,0.8,0.7,0.8,0.7
			c0.1,0.2,0.3,0.1,0.4,0.3c0.4,0.4,1.2,0.5,1.6,0.9c1.6,1.6,3.4,2.8,4.6,3.9"/>
	</g>
	<g>
		<path class="st7" d="M19.7,130c-5.9,6.1-9.1,10.3-10.1,11.6c-0.2,0.3-0.3,0.6-0.3,1l4.4,168.7c0,0.1,0,0.3,0.1,0.4
			c0.8,2.7,9.9,31.9,23.1,44.4c13,12.3,43,24.6,53,27.9c0.8,0.3,1.7-0.2,1.9-1c0-0.1,0-0.1,0-0.2c1-4.5,4.9-17.3,17.4-26
			c14.1-9.8,51-13.3,57.3-13.8c0.5,0,1-0.4,1.2-0.9c1.2-2.4,5.8-9.5,19.5-9.5c13.7,0,18.4,7.1,19.5,9.5c0.2,0.5,0.7,0.8,1.2,0.9
			c6.3,0.5,43.3,3.9,57.3,13.8c12.5,8.7,16.4,21.5,17.4,26c0.2,0.8,1,1.3,1.8,1.2c0.1,0,0.1,0,0.2,0c10-3.4,39.9-15.6,52.9-27.9
			c13.2-12.5,22.2-41.8,23-44.4c0-0.1,0.1-0.3,0.1-0.4l4.2-168.6c0-0.4-0.1-0.8-0.4-1.1c-3.7-3.9-7.5-7.9-11.3-11.8
			c-0.1-0.2-0.3-0.3-0.5-0.4c-0.6-0.2-1-0.8-1-1.4V14.1c0-0.7-0.4-1.2-1-1.5c-5.2-1.8-29.3-10-58.9-12.6c0,0-0.1,0-0.1,0H82.1
			c0,0-0.1,0-0.1,0C52.1,1.8,25.5,10.7,20,12.6c-0.6,0.2-1,0.8-1,1.5V130L19.7,130z"/>
		<path class="st8" d="M367.9,264.5c0,0-0.5,1.8-1.3,3.4c-0.9,1.8-2.9,3.6-5.9,4.7l3.7-130.1c0,0-32.2-36.5-70-61.5h-9.2l-0.4-70.2
			l8.8-1.7l77.2,60.6L367.9,264.5L367.9,264.5z"/>
		<path class="st9" d="M90.1,0l-0.3,44h195.2l0.4-44H90.1z"/>
		<path class="st8" d="M7,264.5c0,0,0.5,1.8,1.3,3.4c0.9,1.8,2.9,3.6,5.9,4.7l-3.7-130.1c0,0,32.2-36.5,70-61.5h9.2l0.4-70.2L81.2,9
			L4,69.6L7,264.5L7,264.5z"/>
		<path class="st10" d="M80.2,6l3.3,2.8v72.3L80.2,81L80.2,6z"/>
		<path class="st11" d="M187.5,318.7c20,0,38.5-8.2,46-12.2s22-12.5,31.5-25s17-25.5,21-44.5s3-193,3-193s-61.9-8-101.5-8
			S86,44,86,44s-1,174,3,193s11.5,32,21,44.5s24,21,31.5,25S167.4,318.7,187.5,318.7z"/>
		<path class="st12" d="M187.5,341.4c12.7,0,17,4.7,18.1,6.3c0.2,0.3,0.6,0.5,1,0.5c5.4,0.2,41.7,1.6,55.3,11
			c12.4,8.6,17.9,22.1,19.3,26c0.2,0.6,0.9,1,1.5,0.8c6.6-2,32-10,49.4-25.5c16.3-14.4,22.1-36.3,22.1-42.1
			c0-12,10.3-166.4,10.9-176c0-0.3-0.1-0.6-0.3-0.9c-2.8-3.4-25-30.1-68.6-60.4c-0.8-0.6-1.9,0-2,1l-3.7,135.4
			c0,55.9-47.3,102.2-103.2,102.2S84.3,273.4,84.3,217.5L80.3,83.3c0-1-1.2-1.5-2-1c-43.5,30.3-65.4,55.9-68.2,59.3
			c-0.2,0.2-0.3,0.6-0.3,0.9c0.7,9.8,10.9,164,10.9,176c0,5.8,5.8,27.6,22.1,42.1C60.3,376,85.6,384.1,92.2,386
			c0.6,0.2,1.3-0.1,1.5-0.8c1.4-3.9,6.9-17.4,19.3-26c13.6-9.4,49.9-10.9,55.3-11c0.4,0,0.8-0.2,1-0.5
			C170.4,346.1,174.7,341.4,187.5,341.4L187.5,341.4z"/>
		<path class="st13" d="M75.8,9.9L76,92.1l4.2-0.1l0-85C78.8,7.8,76.7,9.3,75.8,9.9z M69.3,97.1l4.2-0.1l-0.1-85.9
			c-1,0.7-3.3,2.7-4.2,3.4C69.2,14.5,69.3,97.1,69.3,97.1z M62.6,102.2l4.2-0.1l-0.1-84.2c-1.4,0.9-2.8,1.9-4.2,2.9
			C62.5,20.8,62.6,102.2,62.6,102.2z M55.9,107.3l4.2-0.1l-0.2-83.7c-1.4,1-2.8,2-4.2,3C55.7,26.5,55.9,107.3,55.9,107.3z
			 M49.2,112.4l4.2-0.1l-0.2-83.4c-1.4,1-2.8,2.1-4.2,3.2L49.2,112.4z M42.4,117.5l4.2-0.1l-0.3-83c-1.4,1.1-2.8,2.2-4.3,3.3
			C42.1,37.6,42.4,117.5,42.4,117.5z M35.4,122.2l4.1-0.1l-0.3-82.4c-1.4,1.1-2.8,2.2-4.1,3.3C35,43,35.4,122.2,35.4,122.2z
			 M28.8,127.7l4.3-0.1l-0.4-82.8c-1.4,1.1-2.9,2.3-4.3,3.4C28.4,48.3,28.8,127.7,28.8,127.7z M22,132.9l4.3-0.1l-0.4-82.9
			c-1.6,1.3-3.3,2.7-4.9,4C21,53.9,22,132.9,22,132.9z M15.2,140.1l4.3-0.1l-1.5-84c-1.5,1.2-2.5,2.3-3.9,3.5
			C14.1,59.3,15.2,140.1,15.2,140.1z M10.5,271.8l4.3,2.8L11.3,61.5c-1.5,1.3-2.6,2-3.9,3.2L10.5,271.8z"/>
		<path class="st10" d="M73.4,11.1l1.1,1.4l0,79.6l-1,0L73.4,11.1z M66.7,17.9l1.1,1.4l0,77.3l-1,0L66.7,17.9z M59.9,23.5l1.1,1.4
			l0.1,76.5l-1,0L59.9,23.5z M53.2,28.8l1.1,1.4l0.1,76.1l-1,0L53.2,28.8z M46.4,34.4l1.1,1.4l0.2,75.7l-1,0L46.4,34.4z M39.2,39.7
			l1.1,1.4l0.2,75.9l-1,0L39.2,39.7z M32.7,44.8l1.1,1.4l0.3,76l-1,0L32.7,44.8z M25.9,49.9l1.1,1.4l0.3,76.5l-1,0L25.9,49.9z
			 M18,55.9l2.1,0.7l0.4,77l-1,0L18,55.9z M11.3,61.5l1.9,0.9l0.4,77.1l-1,0L11.3,61.5z"/>
		<path class="st13" d="M3.2,263.1c0,0,1,3.4,2.4,4.9c1.6,1.6,2.9,2.3,2.9,2.3L4,67.2c-1.3,1.1-2.7,2.3-4,3.4L3.2,263.1L3.2,263.1z"
			/>
		<path class="st10" d="M4,67.2l2.2,0.7l3.2,202.8l-0.9-0.4l-0.9-0.6L4,67.2z"/>
		<g>
			<path class="st10" d="M294.7,6l-3.3,2.8v72.3l3.3-0.1L294.7,6z"/>
		</g>
		<g>
			<path class="st13" d="M299.1,9.9l-0.2,82.2l-4.2-0.1l0-85C296.1,7.8,298.2,9.3,299.1,9.9z M305.6,97.1l-4.2-0.1l0.1-85.9
				c1,0.7,3.3,2.7,4.2,3.4C305.7,14.5,305.6,97.1,305.6,97.1z M312.3,102.2l-4.2-0.1l0.1-84.2c1.4,0.9,2.8,1.9,4.2,2.9L312.3,102.2
				L312.3,102.2z M319,107.3l-4.2-0.1l0.2-83.7c1.4,1,2.8,2,4.2,3L319,107.3z M325.8,112.4l-4.2-0.1l0.2-83.4c1.4,1,2.8,2.1,4.2,3.2
				L325.8,112.4L325.8,112.4z M332.5,117.5l-4.2-0.1l0.3-83c1.4,1.1,2.8,2.2,4.3,3.3L332.5,117.5L332.5,117.5z M339.5,122.2
				l-4.1-0.1l0.3-82.4c1.4,1.1,2.8,2.2,4.1,3.3L339.5,122.2L339.5,122.2z M346.1,127.7l-4.3-0.1l0.4-82.8c1.4,1.1,2.9,2.3,4.3,3.4
				C346.5,48.3,346.1,127.7,346.1,127.7z M352.9,132.9l-4.3-0.1l0.4-82.9c1.6,1.3,3.3,2.7,4.9,4L352.9,132.9z M359.7,140.1l-4.3-0.1
				l1.5-84c1.5,1.2,2.5,2.3,3.9,3.5L359.7,140.1z M364.4,271.8l-4.3,2.8l3.5-213.1c1.5,1.3,2.6,2,3.9,3.2L364.4,271.8z"/>
			<path class="st10" d="M301.5,11.1l-1.1,1.4l0,79.6l1,0L301.5,11.1z M308.2,17.9l-1.1,1.4l0,77.3l1,0L308.2,17.9z M315,23.5
				l-1.1,1.4l-0.1,76.5l1,0L315,23.5z M321.8,28.8l-1.1,1.4l-0.1,76.1l1,0L321.8,28.8z M328.6,34.4l-1.1,1.4l-0.2,75.7l1,0
				L328.6,34.4z M335.7,39.7l-1.1,1.4l-0.2,75.9l1,0L335.7,39.7z M342.2,44.8l-1.1,1.4l-0.3,76l1,0L342.2,44.8z M349.1,49.9
				l-1.1,1.4l-0.3,76.5l1,0L349.1,49.9z M356.9,55.9l-2.1,0.7l-0.4,77l1,0L356.9,55.9z M363.6,61.5l-1.9,0.9l-0.5,77.1l1,0
				L363.6,61.5z"/>
			<path class="st13" d="M371.7,263.1c0,0-1,3.4-2.4,4.9c-1.6,1.6-2.9,2.3-2.9,2.3l4.5-203c1.3,1.1,2.7,2.3,4,3.4L371.7,263.1
				L371.7,263.1z"/>
			<path class="st10" d="M370.9,67.2l-2.2,0.7l-3.2,202.8l0.9-0.4l0.9-0.6L370.9,67.2z"/>
		</g>
		<path class="st7" d="M187.5,335.7c13.1,0,16,4.5,16.7,6.4c0.2,0.5,0.6,0.8,1.1,0.9c6.6,0.5,46.2,3.9,60.3,13.8
			c12.7,8.9,16.5,22.1,17.4,26.3c0.2,0.7,0.9,1.2,1.6,1c7.4-2.3,35.3-11.7,53.3-28c17-15.3,23-38.5,23-44.6c0-12.7,4-159.7,4.3-169
			c0-0.3-0.1-0.6-0.3-0.8c-2.8-3.4-25-30-68.5-60.4c-0.8-0.6-2,0-2,1l-3.7,135.3c0,55.9-47.3,102.2-103.2,102.2
			S84.3,273.4,84.3,217.5L80.6,83.4c0-1-1.2-1.6-2-1c-43.4,30.2-64.9,54.5-67.8,57.7c-0.2,0.2-0.3,0.5-0.3,0.9
			c0.2,9.5,3.5,157.7,3.5,170.4c0,6.1,6,29.3,23,44.6c18.1,16.3,46,25.7,53.3,28c0.7,0.2,1.4-0.2,1.6-0.8c0,0,0-0.1,0-0.1
			c0.9-4.2,4.7-17.4,17.4-26.3c14.1-9.9,53.7-13.3,60.3-13.8c0.5,0,0.9-0.4,1.1-0.9C171.5,340.2,174.4,335.7,187.5,335.7
			L187.5,335.7z"/>
		<g>
			<path class="st14" d="M294.4,81.6c12.9,8.4,31.3,22.7,45,35.2c14.5,13.2,24,24.2,24,24.2s-2.5,157.2-2.5,170.4
				c0-13.2,3.5-170.9,3.5-170.9s-22-26.7-70-59.8L294.4,81.6L294.4,81.6z"/>
		</g>
		
			<radialGradient id="SVGID_5_" cx="108.5" cy="33.25" r="187.033" gradientTransform="matrix(1 0 0 -1 0 392)" gradientUnits="userSpaceOnUse">
			<stop  offset="0" style="stop-color:#454545"/>
			<stop  offset="1" style="stop-color:#2A2E33"/>
		</radialGradient>
		<path class="st15" d="M187.5,388.9c0,0,61.3-0.5,75.5-3c10.6-1.9,15.2-4.1,16.8-5.1c0.5-0.3,0.7-0.9,0.5-1.4
			c-1.6-5.3-6.1-14.5-16.5-21.6c-13.8-9.4-51.1-12.6-57.1-13.1c-0.5,0-0.9-0.3-1-0.8c-0.8-2.4-4.6-10.1-18.2-10.1
			s-17.4,7.7-18.2,10.1c-0.2,0.4-0.6,0.8-1,0.8c-6,0.5-43.3,3.7-57.1,13.1c-10.5,7.1-14.9,16.3-16.5,21.6c-0.2,0.5,0.1,1.1,0.5,1.4
			c1.6,1,6.2,3.2,16.8,5.1C126.2,388.4,187.5,388.9,187.5,388.9L187.5,388.9z"/>
		<path class="st16" d="M187.5,389.9c0,0,61.3-0.5,75.5-3c10.6-1.9,15.2-4.1,16.8-5.1c0.5-0.3,0.7-0.9,0.5-1.4
			c-1.6-5.3-6.1-14.5-16.5-21.6c-13.8-9.4-51.1-12.6-57.1-13.1c-0.5,0-0.9-0.3-1-0.8c-0.8-2.4-4.6-10.1-18.2-10.1
			s-17.4,7.7-18.2,10.1c-0.2,0.4-0.6,0.8-1,0.8c-6,0.5-43.3,3.7-57.1,13.1c-10.5,7.1-14.9,16.3-16.5,21.6c-0.2,0.5,0.1,1.1,0.5,1.4
			c1.6,1,6.2,3.2,16.8,5.1C126.2,389.4,187.5,389.9,187.5,389.9L187.5,389.9z"/>
		<g>
			<path class="st17" d="M127,378.8l-0.4,0c0-0.2-0.1-0.3-0.2-0.3c-0.1,0-0.2,0-0.3,0.1s-0.1,0.3-0.2,0.6c0.1-0.1,0.1-0.1,0.2-0.2
				c0.1,0,0.2,0,0.2,0c0.2,0,0.3,0.1,0.4,0.3c0.1,0.2,0.2,0.4,0.1,0.7c0,0.3-0.1,0.5-0.3,0.7c-0.1,0.1-0.4,0.2-0.6,0.2
				c-0.2,0-0.4-0.2-0.5-0.4s-0.2-0.6-0.1-1.1c0.1-0.5,0.2-0.9,0.4-1.1c0.2-0.2,0.4-0.3,0.7-0.3c0.2,0,0.3,0.1,0.4,0.2
				C127,378.4,127,378.6,127,378.8L127,378.8z M125.9,379.9c0,0.2,0,0.3,0.1,0.4s0.1,0.2,0.2,0.2c0.1,0,0.2,0,0.2-0.1
				c0.1-0.1,0.1-0.2,0.1-0.4c0-0.2,0-0.3,0-0.4c-0.1-0.1-0.1-0.1-0.2-0.2c-0.1,0-0.2,0-0.2,0.1C125.9,379.6,125.9,379.7,125.9,379.9
				z M129.5,381.2l0.1-0.6l-1-0.1l0.1-0.5l1.2-1.7l0.4,0l-0.2,1.8l0.3,0l-0.1,0.5l-0.3,0l-0.1,0.6L129.5,381.2L129.5,381.2z
				 M129.6,380.2l0.1-1l-0.6,0.9L129.6,380.2L129.6,380.2z M132.1,380.7l0.1-0.5l0.9,0.1l-0.1,0.5L132.1,380.7z M135.1,378.9
				l0.9,0.1c0.3,0,0.4,0.1,0.5,0.1s0.2,0.1,0.2,0.3c0.1,0.1,0.1,0.3,0.1,0.4c0,0.1-0.1,0.3-0.1,0.4c-0.1,0.1-0.2,0.2-0.3,0.2
				c0.1,0.1,0.2,0.2,0.3,0.3c0.1,0.1,0.1,0.3,0.1,0.4c0,0.2-0.1,0.4-0.2,0.5s-0.2,0.2-0.4,0.2c-0.1,0-0.3,0-0.7,0l-0.8-0.1
				L135.1,378.9L135.1,378.9z M135.4,380.6l-0.1,0.8l0.4,0c0.2,0,0.3,0,0.4,0c0.1,0,0.1-0.1,0.1-0.1c0-0.1,0.1-0.1,0.1-0.2
				c0-0.1,0-0.2,0-0.2s-0.1-0.1-0.1-0.1s-0.2-0.1-0.4-0.1L135.4,380.6L135.4,380.6z M135.5,379.4l-0.1,0.7l0.3,0c0.2,0,0.3,0,0.3,0
				c0.1,0,0.1,0,0.2-0.1c0.1-0.1,0.1-0.1,0.1-0.2c0-0.1,0-0.1,0-0.2c0-0.1-0.1-0.1-0.1-0.1c-0.1,0-0.3-0.1-0.4-0.1L135.5,379.4
				L135.5,379.4z M138.8,382.1l0.2-2.9l0.5,0l-0.2,2.9L138.8,382.1z M141.8,382.3l0.2-2.4l-0.7-0.1l0-0.5l1.9,0.1l0,0.5l-0.7-0.1
				l-0.2,2.4L141.8,382.3L141.8,382.3z M147.4,382.7l0.2-2.9l0.5,0l-0.2,2.9L147.4,382.7z M149.9,382.9l0.2-2.9l0.5,0l0.9,2l0.1-1.9
				l0.4,0l-0.2,2.9l-0.5,0l-0.8-1.9l-0.1,1.9L149.9,382.9L149.9,382.9z M154.4,383.1l0.1-2.4l-0.7,0l0-0.5l1.9,0.1l0,0.5l-0.7,0
				l-0.1,2.4L154.4,383.1L154.4,383.1z M157.4,383.2l0.1-2.9l1.7,0.1l0,0.5l-1.3-0.1l0,0.6l1.2,0l0,0.5l-1.2,0l0,0.8l1.3,0.1l0,0.5
				L157.4,383.2L157.4,383.2z M161.3,383.4l0.1-2.9l1,0c0.3,0,0.4,0,0.5,0.1c0.1,0.1,0.2,0.2,0.3,0.3c0.1,0.1,0.1,0.3,0.1,0.5
				c0,0.2-0.1,0.4-0.2,0.5s-0.3,0.2-0.5,0.2c0.1,0.1,0.2,0.2,0.2,0.2s0.1,0.2,0.3,0.5l0.3,0.6l-0.6,0l-0.3-0.6
				c-0.1-0.1-0.1-0.3-0.2-0.4c0-0.1-0.1-0.1-0.1-0.1s-0.1,0-0.2,0l-0.1,0l0,1.2L161.3,383.4L161.3,383.4z M161.8,381.8l0.4,0
				c0.2,0,0.4,0,0.4,0c0.1,0,0.1-0.1,0.1-0.1c0-0.1,0.1-0.1,0.1-0.2c0-0.1,0-0.2,0-0.2c0-0.1-0.1-0.1-0.1-0.1c0,0-0.2,0-0.4,0
				l-0.4,0L161.8,381.8L161.8,381.8z M167.3,383.6l-0.5,0l-0.2-0.7l-0.9,0l-0.2,0.6l-0.5,0l1-2.8l0.5,0L167.3,383.6z M166.5,382.4
				l-0.3-1.1l-0.4,1.1L166.5,382.4L166.5,382.4z M170.7,382.6l0.5,0.2c-0.1,0.3-0.2,0.5-0.4,0.7c-0.2,0.1-0.4,0.2-0.6,0.2
				c-0.3,0-0.6-0.1-0.7-0.4c-0.2-0.3-0.3-0.6-0.3-1.1c0-0.5,0.1-0.9,0.4-1.1c0.2-0.2,0.5-0.4,0.8-0.3c0.3,0,0.5,0.1,0.7,0.3
				c0.1,0.1,0.2,0.3,0.3,0.6l-0.5,0.1c0-0.1-0.1-0.3-0.2-0.4c-0.1-0.1-0.2-0.1-0.3-0.1c-0.2,0-0.3,0.1-0.4,0.2
				c-0.1,0.1-0.2,0.4-0.2,0.7c0,0.4,0,0.6,0.1,0.8c0.1,0.1,0.2,0.2,0.4,0.2c0.1,0,0.2,0,0.3-0.1C170.6,383,170.7,382.8,170.7,382.6
				L170.7,382.6z M173.7,383.7l0-2.4l-0.7,0l0-0.5l1.9,0l0,0.5l-0.7,0l0,2.4L173.7,383.7L173.7,383.7z M176.7,383.8l0-2.9l0.5,0
				l0,2.9L176.7,383.8z M179.8,383.8L179,381l0.5,0l0.6,2.1l0.6-2.1l0.5,0l-0.9,2.9L179.8,383.8L179.8,383.8z M183,383.9l0-2.9
				l1.7,0l0,0.5l-1.3,0l0,0.6l1.2,0l0,0.5l-1.2,0l0,0.8l1.3,0l0,0.5L183,383.9L183,383.9z M189.3,383.9l0-2.9l0.7,0l0.4,2l0.4-2
				l0.7,0l0,2.9l-0.4,0l0-2.3l-0.5,2.3l-0.5,0l-0.5-2.3l0,2.3L189.3,383.9L189.3,383.9z M193.6,381l0.5,0l0,1.6c0,0.2,0,0.4,0,0.5
				c0,0.1,0.1,0.2,0.2,0.3c0.1,0.1,0.2,0.1,0.3,0.1c0.1,0,0.2,0,0.3-0.1c0.1-0.1,0.1-0.1,0.1-0.2c0-0.1,0-0.3,0-0.6l0-1.6l0.5,0
				l0,1.5c0,0.4,0,0.7-0.1,0.8c0,0.2-0.1,0.3-0.3,0.4s-0.3,0.2-0.6,0.2c-0.2,0-0.4,0-0.6-0.1c-0.1-0.1-0.2-0.2-0.3-0.4
				c-0.1-0.2-0.1-0.5-0.1-0.9L193.6,381L193.6,381z M197.6,383.8l0-2.8l0.5,0l0,2.4l1.2,0l0,0.5L197.6,383.8L197.6,383.8z
				 M201.5,383.7l0-2.4l-0.7,0l0-0.5l1.9,0l0,0.5l-0.7,0l0,2.4L201.5,383.7L201.5,383.7z M204.6,383.7l-0.1-2.9l0.5,0l0.1,2.9
				L204.6,383.7z M207.1,383.6l-0.1-2.9l0.7,0l0.5,1.9l0.4-2l0.7,0l0.1,2.9l-0.4,0l-0.1-2.3l-0.4,2.3l-0.5,0l-0.5-2.2l0.1,2.3
				L207.1,383.6L207.1,383.6z M211.4,383.5l-0.1-2.9l1.7-0.1l0,0.5l-1.3,0l0,0.6l1.2,0l0,0.5l-1.2,0l0,0.8l1.3,0l0,0.5L211.4,383.5
				L211.4,383.5z M215.1,380.5l0.9,0c0.2,0,0.4,0,0.5,0.1c0.1,0.1,0.2,0.1,0.3,0.2c0.1,0.1,0.2,0.3,0.2,0.4c0.1,0.2,0.1,0.4,0.1,0.7
				c0,0.2,0,0.5-0.1,0.6c0,0.2-0.1,0.3-0.2,0.4s-0.2,0.2-0.3,0.3s-0.3,0.1-0.5,0.1l-0.9,0L215.1,380.5L215.1,380.5z M215.6,380.9
				l0.1,1.9l0.4,0c0.1,0,0.2,0,0.3-0.1c0.1,0,0.1-0.1,0.2-0.1c0-0.1,0.1-0.2,0.1-0.3s0-0.3,0-0.5c0-0.2,0-0.4-0.1-0.5
				s-0.1-0.2-0.1-0.3c-0.1-0.1-0.1-0.1-0.2-0.1c-0.1,0-0.3,0-0.4,0L215.6,380.9z M219.2,383.2l-0.1-2.9l0.5,0l0.1,2.9L219.2,383.2
				L219.2,383.2z M223.8,382.9l-0.5,0l-0.2-0.6l-0.9,0l-0.2,0.7l-0.5,0l0.8-2.9l0.5,0L223.8,382.9L223.8,382.9z M222.9,381.8l-0.4-1
				l-0.3,1.1L222.9,381.8z M227.9,381.8l0.5-0.1c0.1,0.4,0.3,0.5,0.5,0.5c0.1,0,0.3-0.1,0.3-0.1s0.1-0.2,0.1-0.3
				c0-0.1,0-0.1-0.1-0.2c0,0-0.1-0.1-0.1-0.1s-0.2-0.1-0.4-0.1c-0.2,0-0.3-0.1-0.5-0.2c-0.1-0.1-0.2-0.2-0.2-0.3
				c-0.1-0.1-0.1-0.2-0.1-0.4c0-0.1,0-0.3,0.1-0.4c0.1-0.1,0.2-0.2,0.3-0.3c0.1-0.1,0.3-0.1,0.5-0.1c0.3,0,0.5,0,0.7,0.2
				c0.2,0.1,0.3,0.3,0.3,0.6l-0.5,0.1c0-0.2-0.1-0.3-0.2-0.3c-0.1-0.1-0.2-0.1-0.3-0.1c-0.1,0-0.2,0-0.3,0.1c-0.1,0.1-0.1,0.2,0,0.3
				c0,0,0,0,0.1,0c0.1,0,0.2,0.1,0.4,0.1c0.2,0.1,0.4,0.1,0.5,0.2c0.1,0.1,0.2,0.2,0.3,0.3s0.1,0.3,0.1,0.4c0,0.2,0,0.5-0.2,0.6
				s-0.4,0.3-0.7,0.3C228.3,382.7,228,382.4,227.9,381.8L227.9,381.8z M232.4,382.4l-0.1-1.2l-1-1.6l0.6,0l0.6,1.1l0.5-1.2l0.5,0
				l-0.7,1.7l0.1,1.2L232.4,382.4L232.4,382.4z M235.4,381.2l0.5-0.1c0.1,0.4,0.3,0.5,0.6,0.5c0.1,0,0.2-0.1,0.3-0.1
				c0.1-0.1,0.1-0.3,0-0.4c0,0-0.1-0.1-0.1-0.1c-0.1,0-0.3-0.1-0.4-0.1c-0.2,0-0.3-0.1-0.5-0.2c-0.1-0.1-0.2-0.2-0.2-0.3
				c-0.1-0.1-0.1-0.2-0.1-0.4c0-0.1,0-0.3,0.1-0.4c0.1-0.1,0.2-0.2,0.3-0.3c0.1-0.1,0.3-0.1,0.5-0.1c0.3,0,0.5,0,0.7,0.2
				c0.2,0.1,0.3,0.3,0.3,0.6l-0.5,0.1c0-0.2-0.1-0.3-0.2-0.3c-0.1-0.1-0.2-0.1-0.3-0.1c-0.1,0-0.2,0-0.3,0.1s-0.1,0.1-0.1,0.2
				s0,0.1,0.1,0.2c0.1,0,0.2,0.1,0.4,0.1c0.2,0,0.4,0.1,0.5,0.2c0.1,0.1,0.2,0.2,0.3,0.3s0.1,0.3,0.1,0.4c0,0.2,0,0.5-0.2,0.6
				c-0.1,0.2-0.4,0.3-0.7,0.3C235.9,382.2,235.5,381.9,235.4,381.2z M239.9,381.8l-0.2-2.4l-0.7,0.1l0-0.5l1.9-0.2l0,0.5l-0.7,0.1
				l0.2,2.4L239.9,381.8L239.9,381.8z M243,381.5l-0.3-2.8l1.7-0.2l0,0.5l-1.3,0.1l0.1,0.6l1.2-0.1l0,0.5l-1.2,0.1l0.1,0.8l1.3-0.1
				l0,0.5L243,381.5L243,381.5z M246.7,381.1l-0.3-2.8l0.7-0.1l0.6,1.9l0.2-2l0.7-0.1l0.3,2.8l-0.4,0l-0.3-2.2l-0.2,2.3l-0.5,0.1
				l-0.7-2.2l0.3,2.2L246.7,381.1z"/>
		</g>
		<path class="st18" d="M271.5,109.6l0.6-36.1c0-1.3-1-2.4-2.2-2.5c-8.9-0.7-43.1-3.2-83-3.2c-39.9,0-74,2.6-83,3.4
			c-1.3,0.1-2.2,1.2-2.2,2.5l0.6,35.9c0,1.3,1.1,2.4,2.4,2.4h164.2C270.4,112,271.5,110.9,271.5,109.6z"/>
		<path class="st19" d="M205.7,342.6c0-2.5-1.5-9.1-18.4-9.1s-18.4,6.6-18.4,9.1s1.5,9.1,18.4,9.1S205.7,345.1,205.7,342.6z"/>
		<g>
			<path class="st10" d="M187,70.9c23.8,0,83.3,3,83.3,3l1.9-0.2c0-1.3-0.9-2.4-2.2-2.5c-8.9-0.7-43.1-3.4-83-3.4s-74,2.6-83,3.4
				c-1.3,0.1-2.2,1.2-2.2,2.5l1.9,0.2C103.7,73.9,163.2,70.9,187,70.9L187,70.9z"/>
		</g>
		<g>
			<circle class="st12" cx="187.4" cy="363" r="2.8"/>
			<circle class="st20" cx="187.4" cy="363" r="2.3"/>
		</g>
		<path class="st12" d="M208,342.2c0-3-1.9-10.8-20.6-10.8s-20.6,7.8-20.6,10.8c0,3,1.9,10.8,20.6,10.8S208,345.2,208,342.2z"/>
		<path class="st21" d="M205.8,342.6c0-2.5-1.5-9.1-18.4-9.1s-18.4,6.6-18.4,9.1s1.5,9.1,18.4,9.1S205.8,345.1,205.8,342.6z"/>
		<path class="st10" d="M270,110.5l-3.1-3.2c-0.2-0.2-0.4-0.3-0.7-0.3H107.7c-0.2,0-0.5,0.1-0.7,0.3l-3.1,3.2
			c-0.6,0.6-0.1,1.5,0.7,1.5h164.7C270.2,112,270.6,111,270,110.5z"/>
		<g>
			
				<linearGradient id="SVGID_6_" gradientUnits="userSpaceOnUse" x1="-11.9526" y1="142.5966" x2="200.7144" y2="352.5966" gradientTransform="matrix(1 0 0 -1 0 392)">
				<stop  offset="0" style="stop-color:#3A3B3F"/>
				<stop  offset="0.335" style="stop-color:#333333"/>
				<stop  offset="1" style="stop-color:#282A2E"/>
			</linearGradient>
			<path class="st22" d="M80.5,81.6c-12.9,8.4-31.3,22.7-45,35.2c-14.5,13.2-24,24.2-24,24.2S14,298.2,14,311.4
				c0-13.2-3.5-170.9-3.5-170.9s22-26.7,70-59.8C80.5,80.7,80.5,81.6,80.5,81.6z"/>
		</g>
		<g>
			<path class="st21" d="M35.1,309.2c0.1,0,0.1-0.2,0.1-0.3c0.1-0.1,0.9-1.2,0.9-1.3c0-0.2-0.3-0.3-0.2-0.5c0.1-0.1,0.3-0.2,0.3-0.4
				c0.2-0.5,0.8-1,1.1-1.5c0.1-0.2,0.1-0.5,0.1-0.6c0.2-0.3,0.5-0.5,0.7-0.8c0.1-0.2,0-0.4,0-0.6c0-0.3,0.2-0.5,0.3-0.8
				c0.1-0.4-1,0.8-0.9-0.1c0.2-0.8,2.2-2,2.2-2.3l0-0.1c0-0.2,0.5-0.3,0.2-0.7l-0.1-0.1c0,0-1.1,1-1.2,1.1c-0.7,0.8-1.7,1.4-2.3,2.1
				c-0.3,0.3-1.7,1.7-1.8,2l-0.2,0.4c-1.2,1.2-2.5,2.4-3.7,3.6c-0.6,0.6-1.6,1.3-2,1.9c-0.4,0.6-1.3,1.2-1.7,1.8
				c-0.3,0.4-1.7,1-2,1.4c-0.1,0.1,0.1,0.6,0.2,0.6c0.1,0,0.2-0.1,0.3-0.1c0.1,0,0.2,0,0.2,0.1c0,0.2-0.5,0.3-0.5,0.7
				c0,0.4,0.8,0.4,1,0.5c0.3,0.1-0.2,0.7,0.1,0.9l0.1,0l0.2-0.1c0.1-0.1,0.3-0.1,0.4,0l0.2,0c0.4,0.2,5-4.4,5-4.4s7.1,14.6,1.5,19.6
				c-1.3,1.1-4,0.3-4.1,0.3c-0.1,0-0.3,0.1-0.3,0.2c0,0.1,0.1,0.4,0.4,0.5c1.2,0.3,4.4,0.7,6.5-0.8
				C42.6,326.8,35.1,309.2,35.1,309.2L35.1,309.2z"/>
			<path class="st21" d="M39.3,316.8L39.3,316.8c0.5,0.7,0.6-0.1,0.9,0c0,0,0.2,0.3,0.2,0.4c0.2,1.5,0.5,3,0.5,4.6
				c0,0.1,0.1,0.2,0.1,0.3c0.1,0.7,0.1,1.5,0.1,2.1c0,0.2,0.1,0.4,0.2,0.6c0,0,0.2,0.4,0.1,0.3c0.3,0.4,0.3,1.5,0.7,1.7
				c0.1,0.1,0-0.1,0-0.2c0.1-0.2,0.2-0.3,0.2-0.5c0-0.1-0.3-0.9-0.3-1c0.1-0.2,0-0.5,0.2-0.2c0.1,0.1,0.2,0.2,0.2,0.4
				c0,0.1,0.1,0.1,0.1,0.2l0,0.1l0,0.1l0.1,0.1v-0.1l0-0.1c0-0.1,0-0.1-0.1-0.2c0-0.1,0-0.1,0-0.1c0,0,0,0,0-0.1
				c0-0.1-0.2-0.3-0.1-0.4c0-0.2,0-0.5,0-0.7l0-0.6c0-0.1-0.1-0.2,0-0.2c0.4,0.1,0.8,0.8,0.9,1.3c0,0,0.1,0.3,0.1,0.3
				c0,0,0-0.1,0-0.1c0.2-0.4-0.3-0.6-0.2-0.8c0.1-0.6-0.2-1.3-0.1-1.9c0.2-1-1.2-5.7-1-6.7c0.1-0.8,2.2-3,2.3-3.8
				c0.1-0.5,0.6,0.4,0.7,0.5c0.2,0.3,1.7,2.7,1.7,2.7c0.2,0.2,0.4,0.2,0.7,0.4c0.3,0.3,1,1.8,1.6,1.9c0.1,0,0-0.1,0-0.1
				c0-0.1-0.1-0.5-0.1-0.6c0-0.1-0.2-0.3-0.1-0.3c0.1,0,1.1,0.9,1.2,1c0.1,0,0.1,0.2,0.2,0.3c0.1,0,0.2,0,0.2,0c0,0,0.1,0.1,0.1,0
				c0-0.2-0.2-0.4-0.2-0.7c0-0.2-0.3-0.6-0.2-0.8c0.1-0.3,0.7,0.1,0.7,0.2c0,0,0.2,0,0.2,0l-0.5-0.7c-0.7-1.2-4.8-7.6-4.9-7.7
				c0-0.1-2.3-4.2-2.6-4.7c-0.4-0.6-0.4-0.4-0.8-0.5c-0.1,0-0.4-0.6-0.4-0.6l-0.4-0.1c-0.2,0-0.6,1-1,1.2c-0.7,0.5-0.4,0.6-0.5,1.2
				c0,0-0.1,0-0.1,0c-0.1,0-0.1,0-0.2-0.2l-0.1-0.1c-0.1,0-0.3,0.3-0.3,0.4c-0.1,0.3,0,0.8,0.1,1.1c0.1,0.6,0,1.1,0,1.7
				c0,0.2,0.3,0.9,0.3,1.1c-0.2,0.9-0.1,3.2,0,4c0,0.1,0.2,0.7,0.2,0.7c0,0.3,0.1,2,0.1,2.3c0,0.1-0.4,0.7-0.4,0.8
				c-0.1,0.1-0.2,0.2-0.3,0.3C39.3,316.7,39.3,316.7,39.3,316.8C39.3,316.7,39.3,316.7,39.3,316.8L39.3,316.8z M41.8,313.1
				L41.8,313.1c-0.2-0.4-0.2-2.1-0.4-2.7l0,0c0.1-0.1-0.1-0.4-0.1-0.5c0.1-0.3-0.1-1.5,0.1-2.1l0.1-0.6c0,0,0-0.1,0.1-0.1
				c0.1,0,0.7,1.2,0.8,1.3c0.2,0.4,1,1.4,1,1.6c0,0.2-0.2,0.5-0.4,0.9c-0.3,0.5-0.5,1.1-0.8,1.4C42.1,312.4,42.3,312.8,41.8,313.1
				L41.8,313.1L41.8,313.1z M48.9,297.3L48.9,297.3L48.9,297.3c0.1,0,0.2-0.1,0.3-0.1c0.1,0,0-0.1,0.1,0c0.1,0,0.4,0.1,0.6,0.1
				c0.1,0,0.2-0.1,0.3-0.2l0.1-0.1c0.1,0.1,0.9,0.5,1.1,0.5c0.1,0,0.3-0.1,0.5-0.2c0,0,0.1-0.1,0.1-0.1l0,0c0.1,0.2-0.2,0.6,0,0.7
				c0.3,0.1,0.5,0.3,0.2,0.7c-0.3,0.3-0.7,0.4-0.9,0.8c-0.3,0.4-0.4,1-0.8,1.3l0,0c-1.4,1.9-1.6,6-0.3,8l0,0.1
				c0.9,1.4,2.6,2.4,4.1,2c0.2,0,0.5,0.1,0.7,0c0.2-0.1,0.5-0.1,0.7-0.3c0.1-0.1,1-0.5,1.1-0.7c0.2-0.3,0.4-0.6,0.5-1
				c0.1-0.2-0.3-0.6-0.4-0.6c-0.4,0.1-1.4-2.1-1.5-2.5c-0.1-0.4-0.2-1-0.5-1.1l-0.1,0c0,0-0.2,0.1-0.2,0.1c-0.1,0.3-0.9,0.7-1,0.9
				c-0.2,0.5-0.5,0.9-0.7,1.3c-0.1,0.1-0.4,0.9-0.6,0.8c0,0,0-0.1,0-0.2c0-0.1,0.1-0.4,0.1-0.5c0.1-0.3-0.1-1,0-1.3
				c0.3-0.9,1-2.2,1.7-3c0,0,0.1,0,0-0.1l0-0.1l0.3-0.5c0.1-0.2,0-0.5,0.2-0.6c0.1-0.1,0.3,0,0.4,0c0.5-0.1,0.6-0.7,0.9-0.3l0.2,0.3
				c-0.1,0.3,0.4,0.7,0.4,1.1c0,0.2,0.7,2.2,0.7,2.2c0,0.1,0.4,0.9,0.4,0.9c0,0.1,1.2,2.1,1.4,2.4c0.3,0.4,0.6,0.7,0.9,0.9
				c0.1,0.1,0.2,0.2,0.2,0.2c0,0,0.1,0,0.1,0c0,0.1-0.2,0-0.3,0c-0.7,0.2-2-0.4-2-0.4c-0.4,0.1,0,0.6-0.2,0.9
				c-0.2,0.3-0.3,0.8-0.3,1.2c0,0.4-2,1.7-2.3,1.7c-0.4-0.1-0.9,0.3-1.3,0.3c-0.2,0-2.7-0.4-2.8-0.5c-0.3-0.2-0.7-0.5-1-0.7
				c0,0-1.1-1.2-1.7-2c-1.9-2.6-2.2-6.3-1.5-9.2c0.1-0.4,0.1-1,0.3-1.4c0.3-0.4,0.5-0.7,0.8-1.1c0.2-0.3,0.5-0.6,0.7-0.9
				C48.8,297.4,48.8,297.3,48.9,297.3L48.9,297.3L48.9,297.3z M55.5,291.7L55.5,291.7c0.1,0.1-0.1,0.1-0.1,0.1c0,0.1-0.1,0.3,0,0.5
				c0.1,0.2-0.1,1.4,0.2,1.6c0,0-0.1,0.2-0.1,0.2c0,0.2,0.1,0.6,0.1,0.9c0,0.2,0.4,2.2,0.5,2.5c0,0.1,0.2,0.2,0.2,0.3
				c0.1,0.5,0.1,1.1,0.1,1.6c0.1,0.8,0.5,1.9,0.6,2.8c0.1,0.6,0.6,1.9,1,3c0.2,0.5,0.8,1.2,1,1.6c0.1,0.1,0.4,0.6,0.5,0.7
				c0,0,0.3,0.2,0.3,0.1c0,0.2,0.4,0.1,0.5,0.1c0,0,0.3,0.2,0.3,0.2c0,0,0.2,0,0.2,0c0.3-0.5,1.2-0.5,1.6-1.4
				c0.1-0.2,0.6-1.4,0.6-1.4l0-0.3c0-0.3,0.2-0.6,0.1-0.9c0-0.3-0.1-1.5,0.2-1.7c-0.3,0.3,1.4,2.4,1.6,2.7l0.1-0.1
				c0.1,0.1,0.4,0.5,0.5,0.3c0,0.1,0.4,0.1,0.5,0.1c0.8,0,1-1.5,1.3-1.4c0.1,0,0.1,0.6,0.1,0.8c0,0.1,0.4,2.2,0.3,2.4
				c0,0.2-0.1,0.9,0,1.1c0.1,0.1,0.1,0.2,0.2,0.2c0,0,0.1,0.1,0.1,0l0.1,0.1c0-0.1,0.3,0.1,0.3,0.1c0.1,0,0.5-0.6,0.3-0.7
				c0.1,0,0-0.2,0-0.3c0.2-0.2,0.4,0,0.4-0.1c0.1-0.3,0.1-1.3,0.5-0.8l0.1-0.1l-0.1-0.1c0,0,0.1-0.2,0.1-0.2c0.1-0.2,0.1-1.7,0-2
				c0-0.1,0-0.6,0.1-0.6l-0.1-0.1c0.1,0,0-0.2,0-0.2c0-0.1,0.1-0.2,0.1-0.3c0,0,0-0.1,0.1-0.1c-0.1-0.1-0.1-0.3-0.1-0.4
				c0.2-1-0.3-4.7-0.5-6c0-0.1,0-1.5,0.1-1.6l0.5-0.4c0,0,0.1-0.2,0.1-0.2c0.1,0,0.6-1.8,1-2c0,0,0.1-0.2,0.1-0.3
				c0.1-0.2,0.2-0.4,0.4-0.5l-0.1-0.1c0.1,0,0.3-0.5,0.4-0.4c0.3,0.1,0.9,1.9,0.9,1.9c0.1,0.1,0.6,0.6,0.6,0.6l0.1-0.1
				c0.4,0.7,1,1.3,1.4,2l0.1,0.2c0,0,0.2-0.2,0.3-0.2c0.4,0.1,1,1.4,1.6,1.6c0,0,0,0,0,0c0.1,0.1,0.1,0.1,0.2,0
				c0.1,0.2,0.1,0.2,0.1,0.4c0,0,0.1,0.1,0.2,0.2c0.1-0.1,0.2,0.1,0.2,0.1c0.3,0.1,0.3,0.5,0.3,0.8c0,0,0.2,0.3,0.2,0.2
				c0.1,0.2,0.1,0,0.2,0.2l0.1-0.1c0,0,0.2,0,0.3,0.1c0.1,0.1,0.3,0.2,0.3,0.3l0,0l0.1,0.1l0.1-0.1l0.1,0.1l0.1,0.1
				c0.2,0-0.1-0.4-0.2-0.5c-0.2-0.1-0.4-0.7-0.5-1c-0.2-0.3-1-1.9-1-2c-0.2-0.8-2.5-4.2-2.6-4.5c-0.4-1.2-1.5-3.2-2.3-4.5
				c-0.6-0.9-1.1-1.9-1.4-3c-0.1-0.3-0.3-0.7-0.4-1c0-0.1,0.1-0.2,0-0.2c0,0-0.1-0.3-0.2-0.2l-0.2-0.2l-0.1,0.1c0,0-0.1-0.2-0.1-0.1
				l-0.1-0.1c-0.2,0.1-0.5,0.2-0.7,0.3c0,0-0.4,0.2-0.4,0.2l-0.1,0.1c0-0.1-0.2,0-0.2,0l-0.1-0.1l-0.1,0l-0.1,0.1c0-0.1-0.2,0-0.2,0
				c-0.1,0-0.2-0.2-0.3-0.2c-0.1,0-0.1,0.3-0.2,0.2c0.3,0.2-0.1,0.4-0.1,0.6c0,0.4,0.5,0.7,0.5,1l-0.2,0.8c0,0,0,0,0,0
				c-0.2,0.1-0.2,0.6-0.3,0.6c0,0,0,0.1,0,0.1c0,0.2-0.2,0.4-0.2,0.6c0,0.4-0.2,1-0.1,1.4c0.1,0.7,0.1,2-0.2,2.6
				c-0.1,0.1,0.1,0.7-0.1,0.8c0.1,0.1-0.1,0.7,0,0.9c0.1,0.4,0.2,1.8,0.2,2.2c0,0.2-0.2,0.6-0.1,0.7c0,0-0.3,0.7-0.2,0.8
				c-0.1,0-0.4,1.1-0.4,1.2c0,0.2-0.6,0.6-0.6,0.8c0,0.1,0.6,0.4,0.6,0.7c0,0.2-0.2,0.4-0.1,0.6l0.2-0.2c0.2-0.2,0.3-0.4,0.5-0.5
				c0,0,0.1-0.1,0.1,0c0,0.3,0,3.2,0,3.3c0,0.1-0.6,0.3-0.6,0.3c-0.1,0-0.2-0.2-0.3-0.1c-0.1-0.1-0.6-0.9-0.6-1
				c-0.1-0.7-0.5-1.3-0.6-2c-0.1-0.9-0.7-3.3-0.7-3.9c0-0.2,0.1-0.3-0.1-0.4l0,0c-0.3-0.9-0.3-2-0.6-3c-0.1-0.2-0.3-1.2-0.3-1.4
				l0.1-0.3c-0.1-0.1-0.1-0.6-0.2-0.6c0,0-0.3,0-0.3-0.1l-0.1,0.1l-0.1,0l-0.1-0.1c-0.1,0.3-0.5-1-0.5-0.7c-0.3-0.4-1,0.2-1.3,0.4
				l-0.1,0l-0.1-0.1c0,0.1-0.1,0-0.2,0c-0.1,0.1-0.5,0.4-0.5,0.4c-0.2,0.4,0.3,2.7,0.2,3.2l0.1,0.5c0,0.1-0.1,0.3,0,0.3l0,0
				c0.4,0.3,0.2,0.9,0.2,1.3c0,0.1,0.8,1.8,0.9,2.1l-0.1,0.1c0,0,0.1,0.3,0,0.3c0.2,0.2,0.1,0.8,0.2,1.1c0.6,2.4,0.4,1.6-0.1,3.9
				c-0.1,0.4,0,1-0.2,1.4c-0.1,0.2-0.2,0.4-0.2,0.6c0,0,0,0,0,0l-0.1,0.1c0.1,0-0.2,0.4-0.1,0.4c0,0-0.2,1-0.8,1.1
				c-0.8,0.1-1.1-2.9-1.3-3.1c0,0,0-0.2,0-0.4c0-0.4-0.4-0.8-0.4-1.1c0-0.8,0.2-1.3-0.3-2.1l0-0.1l0.1-0.1c0,0,0-0.3-0.1-0.4
				c0,0,0,0,0,0l0.1-0.4c0.1-0.4-0.2-0.9-0.3-1.4c0-0.2,0.2-0.5,0.1-0.7c0-0.2-0.4-0.5-0.5-0.8c0,0-0.1-0.3,0-0.3
				c-0.1-0.1,0-1.9-0.1-2l0.1-0.1c-0.1-0.1-0.2-1.3-0.2-1.3l-0.1,0.1l-0.1-0.1c0,0.1-0.4-0.1-0.5-0.1c0,0,0,0,0,0l-0.1-0.1l-0.1,0.1
				c0-0.1-0.1,0-0.1,0c0,0-0.2-0.3-0.2-0.2c-0.1-0.1-0.4-0.4-0.5-0.4l-0.1,0.1c-0.1-0.5-0.7,0.1-0.9,0.3
				C55.6,291.2,55.6,291.7,55.5,291.7L55.5,291.7z M69.3,291.5c0,0-0.1-0.5-0.1-0.6c0-0.6-0.1-1.3-0.1-1.9c0-0.5,0.2-2.9,0.9-1.3
				c0.1,0.3,0.1,0.6,0.3,0.9c0.4,0.6,0.2,0.7-0.2,1.1C69.8,290.2,69.7,291.3,69.3,291.5z M81.6,299.6
				C81.6,299.6,81.6,299.6,81.6,299.6l-0.2-0.3c-0.1-0.2-0.1-0.6-0.2-0.7c-0.7-0.2-0.7-2.2-0.8-2.9c0-0.1-0.4-0.5-0.4-0.6
				c0,0,0.1-0.2,0.1-0.2c-0.1-0.1-0.3-0.2-0.4-0.4c0-0.1,0.1-0.3,0.1-0.4c-0.1-0.3-0.2-0.5-0.2-0.8c0-0.1-0.1-0.2-0.1-0.4
				c0-0.1-0.1-0.2-0.1-0.2c0-0.3,0.2-0.4,0.1-0.6c-0.1-0.4-0.6-0.7-0.6-1c-0.1-0.5-0.8-2.8-0.8-3l0-0.2c0-0.4-0.4-0.7-0.5-1
				c-0.1-0.4-0.1-0.7-0.1-1.1c0-0.2-0.4-0.8-0.4-1.3c0-0.1-0.3-0.9-0.4-0.9c-0.1,0-0.1,0.4-0.1,0.5c-0.1,0.2-0.2,0.2-0.2,0.5
				c0,0.1-1,1.1-1.2,0.7c0,0-0.2,0-0.2,0c-0.1,0,0,0.1-0.2,0.1c0,0-0.4,0.2-0.4,0.2c-0.4-0.1-0.5-0.2-0.9-0.2
				c-0.1,0-0.1-0.1-0.2,0.1c0-0.1-0.2,0-0.2,0c-0.1,0-0.3-0.6-0.3-0.6c0.1-0.4,0.6-1.5,0.2-1.8c0.1-0.1,0,0,0-0.1
				c0,0,0.1-0.3,0.2-0.3c0.1-0.2,0.5-0.6,0.6-0.9c0.1-0.1,0.1-0.2,0.2-0.4c0.4-0.6,0.8-1.2,1.3-1.8c0.1-0.1,0-0.3,0.1-0.5
				c0.1-0.1,0.3-0.3,0.3-0.4l0.1-0.2c0.3-0.9,2-1.8,2.2-2.2c0.1-0.2,0.2-0.6,0.2-0.8c0.2-0.3,2.9-1.6,3.2-1.7c0.4,0,0.6-0.1,0.9-0.1
				c0,0,0.5,0.2,0.5,0.1c0.1,0.2,0.7-0.1,0.8,0c0.2,0.1,0.5,0.2,0.8,0.2c0,0,0.3,0.2,0.3,0.2c0.2,0.1,0.4,0.1,0.6,0.2
				c0.2,0,0.3,0.4,0.5,0.6c0.1,0.1,0.2,0.5,0.3,0.5c0.1,0.3,0.5,0.6,0.6,0.9c0.2,0.8,0.2,1.4,0.2,2.3c0,0.5-0.4,0.9-0.4,1.3
				c0,0.1,0.1,0.4,0,0.5c-0.1,0.2-0.6,1-0.6,1.2c0,0.2-0.1,0.5-0.2,0.7l-0.1,0.1l-0.1,0.1c0,0,1.3,0.2,1.4,0.3
				c0.8,0.2,1.5,0.8,2.1,0.9c0.4,0.1,1.1,0.2,1.5,0.4c0,0,0,0,0,0c1.3-0.3,3.4,0.6,4.7,0.3c0,0.1,0.3,0.1,0.4,0.1
				c0.2,0,0.8,0.1,1,0.2c0.3,0.1,3.4,0.7,4.1,0.8c0.1,0,0.4,0.4,0.4,0.5c-0.1-0.4-2.2,0-2.5-0.2c-0.3-0.2-2.5-0.4-3-0.3
				c0,0-1.6-0.3-1.8-0.3c-0.4,0-1,0.2-1.4,0.2c-0.6,0-1.1-0.4-1.5-0.5c-0.3-0.1-0.5,0.2-1.1-0.1c-0.1,0-0.4,0-0.5,0l-0.2-0.1
				c-0.2-0.1-0.4,0-0.7-0.1c0,0-0.2-0.1-0.2-0.1c-0.1,0-0.4,0-0.4-0.1l-0.1,0.1c0-0.1-0.2,0-0.3-0.1c-0.1-0.1-0.4-0.2-0.6-0.2
				c0,0-0.3,0.2-0.3,0.2l-0.3,0c0,0-0.2,0-0.2,0c-0.2,0.1-0.7,0-0.9-0.1c-0.1,0-0.6,0.3-0.9,0.1c-0.2-0.1-0.4,0-0.6,0
				c-0.1,0-0.2,0-0.3,0l-0.2-0.1c-0.1,0-0.1,0-0.1,0c0,0,0,0-0.1,0c-0.1,0-0.1,0-0.1,0l-0.1-0.1l0.1,0.1l0,0l0.1,0l0.1,0.1
				c0.1,0.1,0.1,0.1,0.2,0.2s0.2,0.2,0.3,0.2c0.3,0,0.6,0.1,0.9,0.2c0.3,0.1,0.9,0.1,1.2,0.2c0.7,0.1,1.5,0.1,2.4,0.2
				c0.3,0.1,0.5,0.2,0.8,0.3c0,0,0,0,0,0l0.5-0.2c0.7,0.2,1.4,0,2.1,0.4c0-0.1,0.1,0,0.1,0c0.3,0,0.8,0.1,1,0.2c0.1-0.1,0.2,0,0.3,0
				c1.1-0.2,2.8,0.1,3.9,0.3c0.1,0,0.7,0.3,0.9,0.3c0.2-0.1,0.9-0.2,1.1-0.1c0.1,0,0.3,0.2,0.3,0.3c0,0,2.2,0.5,2.4,0.5c0,0,0,0,0,0
				c0.2,0.1,0.4-0.1,0.5,0.1c0,0.1,0.2,0.1,0.1,0.2c0,0-0.1,0-0.2,0c-0.5-0.1-1-0.2-1.5-0.3c-0.8,0.2-3.8-0.4-4.9-0.3
				c-0.9,0.1-2.5-0.3-3.4-0.5c-0.5-0.1-0.8-0.2-1.1-0.3c-0.1,0-0.5,0.1-0.6,0.1l-0.2-0.1c-0.9,0.2-1.7-0.2-2.4,0l-0.2,0c0,0,0,0,0,0
				c-0.1-0.1-3.4-1-3.5-1c-0.2,0-2.4,0.1-2.5,0.1c-0.2,0-0.2-0.3-0.2-0.4c-0.2-1,0.7-0.3,0.8-1.2c0-0.1-0.7-0.2-0.8-0.2
				c-0.1,0-0.2,0-0.2-0.1l-0.1,0c-0.1-0.2-0.2-0.3-0.1-0.5c0-0.1,0-0.2,0-0.3c0-0.1,0.4-0.1,0.4-0.1c0.6,0.2,0.9,0.2,1.6-0.3
				c0.1-0.1,0.3-0.1,0.3-0.2c0-0.9-0.1-2.5,0-3.3c0,0-0.1-0.3-0.2-0.3c-0.1,0-0.4-0.2-0.5-0.3l-0.7,0.2c-0.1,0-0.1,0-0.1-0.1
				c0,0,0,0,0,0c-0.2,0-0.7,0.1-0.8,0l-0.1,0.1c0,0-0.3,0.2-0.3,0.2c0,0.1,0,0.1,0,0.1c0,0,0,0,0,0c-1.3,0.9-1.4,1.2-1.2,2.5
				c0,0.1,0,0.3,0.1,0.4c-0.1,0.1-0.3-0.3-0.5,0c-0.1,0.1,0.4,1.4,0.4,1.5l-0.1,1.1c0,1.2,1.6,4.2,1.5,4.9c0,0,0.1,0.1,0.1,0.1
				c0.3,0.5,0.5,0.9,0.5,1.4c0,0.2,0.8,1.7,0.9,2.1c0.1,0.4,0.1,0.6,0.1,0.9c0.1,0.7,0.8,0.9,0.5,1.7c0,0,0,0,0,0
				c0.1,0.2,0.4,0.5,0.3,0.7c0,0-0.4,0.2-0.4,0.2c-0.1,0-0.1-0.1-0.1-0.2c0-0.1,0.1-0.6,0.1-0.7c0-0.1-0.3-0.5-0.3-0.6
				c0-0.1,0.1-0.5,0.1-0.6c0-0.1-0.1-0.2-0.1-0.4c0-0.1-0.3-0.2-0.3-0.2c0,0-0.2-0.4-0.2-0.4c-0.1,0-0.1,0.4-0.1,0.5
				c0,0.2,0.4,1.9,0.4,1.9c-0.1,0.4,0.2,1.5,0.1,1.7c-0.1,0.2-0.8-0.7-0.7,0.2c0,0,0.3,0.4,0.3,0.5c0.1,0.2,0,0.4,0.1,0.7l0.1,0.2
				c0,0.1-0.3-0.2-0.3,0.1C81.8,300,82,299.7,81.6,299.6C81.6,299.6,81.6,299.6,81.6,299.6L81.6,299.6L81.6,299.6L81.6,299.6z"/>
			<path class="st21" d="M81,286.4L81,286.4c0.2,0,0.2-0.2,0.3-0.2c0.4-0.1,0.7-0.3,1.1-0.4c0.6-0.1,1.5,0.3,2.2,0.1
				c0,0,0.1,0.1,0.1,0.1c0.1,0.1,0.4,0.2,0.5,0.2c0.4,0.1,1.7,0.5,1.9,0.5c0.1,0,0.4,0,0.4,0c0.1,0.1,0.4,0.3,0.4,0.3
				c0.4,0.1,0.5,0,0.9,0c0.1,0,0.4,0.2,0.5,0.2c0.1,0,0.1,0,0.2,0c0.3,0,1.8,0.2,1.9,0.2c0.2,0,0.4,0.2,0.6,0.2
				c0.1,0,0.2,0.2,0.4,0.2c0.6-0.1,2.4-0.3,3.1-0.2c0.1,0,0.2,0.2,0.4,0.2c0.3,0,1-0.1,1.2,0c0.6,0.2,2.3,0.8,2.9,0.7
				c0.1,0,0.2-0.1,0.3,0.1c0,0,0,0,0,0c0.1,0,0.2,0.1,0.4,0.1c0.3,0,0.7,0.2,1,0.2c0,0,0.1,0,0.1,0c0.1,0,1.5-0.1,1.4,0.2
				c0,0.1-0.1,0.1-0.2,0.1c-0.2-0.1-0.5-0.2-0.7-0.2c-0.1,0-0.2,0.1-0.3,0c-0.6-0.4-3.1-0.1-3.6-0.3c0,0-0.2,0.1-0.2,0.1
				c-0.1,0-0.5,0.1-0.5,0.1c-0.2,0-0.6-0.2-0.8-0.2c-0.5,0-1.9-0.4-2.1-0.3c-0.7,0.2-1.4,0-2.2,0.1c-0.1,0-0.2,0.1-0.3,0
				c-0.7-0.2-4.3-0.4-4.5-0.7l-0.1,0.1c0,0-0.1,0-0.2,0c0,0,0,0-0.1,0l-0.4,0c0,0-0.9-0.4-1.2-0.5l-0.1,0c-0.7-0.1-1.4-0.3-2.1-0.2
				c0,0-0.6-0.3-0.7-0.3c0,0,0,0,0,0c-0.5,0.2-0.9,0.5-1.3,0.5c-0.2,0-0.5-0.4-0.7-0.6l0,0c0,0,0,0,0-0.1
				C80.9,286.6,81,286.4,81,286.4L81,286.4L81,286.4z"/>
			<path class="st21" d="M102.5,290.4c0-0.1,0.1-0.1,0.2-0.1c0.2,0.1,0.4,0,0.5,0.2c0.2,0.1,0.4-0.2,0.6-0.1c0.1,0,0.1,0,0.2,0.1
				c0.1,0,0.1,0,0.2,0.1l0.1,0.1l0,0.1l0,0.1c0,0,0,0-0.1,0c-0.1,0,0,0-0.1-0.1h-0.1c0,0,0,0,0,0c-0.1,0-0.1,0-0.2-0.1
				c-0.1,0-0.2,0-0.3,0c-0.1,0-0.3,0-0.4,0c-0.1,0-0.7,0-0.8,0c-0.4,0.1-0.9,0.1-1.3,0c-0.4-0.1-1.7,0-1.9-0.1c0,0,0,0-0.1,0
				c-0.2,0-0.3,0-0.5,0c-0.1,0-2.9-0.2-2.9-0.2c0,0,0,0,0,0c0,0,0,0,0,0c-0.7,0-1.4-0.2-2.1-0.1c-0.1,0-0.8-0.3-0.8-0.4l0,0
				c-0.9,0-1.2,0.4-2.7,0c0,0,0-0.1-0.1,0c-0.5,0.1-3.8-0.7-4.1-0.9c-0.2-0.1-0.4,0.1-0.6,0c-0.3-0.1-0.3-0.3-0.6-0.4
				c-0.1,0-0.9,0.3-0.9,0.3c-0.3-0.1-0.6-0.3-0.8-0.4c-0.2,0-0.7,0.1-0.9,0c0,0-0.1-0.2-0.1-0.2c0,0,0.1-0.1,0.1-0.2l0.4-0.3
				c0.2,0,1,0.1,1.1,0c0.5-0.2,0.9-0.4,1.5-0.3c0.8,0.1,0.7,0.5,1.3,0.8c0.5,0.3,3.5,0.7,4.2,0.9c0.3,0.1,0.6,0.3,0.8,0.3
				c0.1,0,0.6-0.3,0.7-0.2c0.3,0.1,0.7,0,0.9,0.1c0.1,0,0.3,0.3,0.4,0.3c0.1,0,1.2,0.1,1.3,0.2c0.1,0,0.1-0.1,0.2-0.1
				c0.2,0.1,0.5,0,0.7,0c0.1,0,0.5,0.2,0.7,0.2c0.1,0,0.7,0.1,0.7,0.1c0.1,0.1,0.2-0.1,0.4,0c0.4,0.1,0.9-0.2,1.3-0.1
				c1.6,0.3,3.1,0.3,4.2,0.5L102.5,290.4L102.5,290.4z"/>
		</g>
		<g>
			<g>
				<path class="st17" d="M179.8,368.4h0.7v4.3h-0.7V368.4z M179.2,368.5c0,0.6,0,2-0.4,2.5c-0.4,0.6-0.9,0.9-1.4,1l0,0v0.7l0.1,0
					c0.7-0.1,1.6-0.6,1.9-1.2c0.3-0.6,0.4-1,0.4-3v0L179.2,368.5L179.2,368.5z M182.9,372c-0.6-0.1-1-0.4-1.4-1
					c-0.4-0.6-0.4-1.9-0.4-2.5l0,0h-0.4v0c0,2,0.1,2.5,0.4,3c0.3,0.6,1.2,1.2,1.9,1.2l0.1,0L182.9,372L182.9,372L182.9,372z"/>
				<path class="st23" d="M195.4,372.8v-4.4h-0.7v4.4H195.4z M185.9,368.5v0.7h0.9v3.7h0.7v-3.7h0.9v-0.7H185.9z M192.3,369.3v3.5
					h-0.7v-3.7c0-0.5,0.2-0.7,0.6-0.7h0.7c0.5,0,1.2,0.4,1.2,1.3s-0.5,1.1-0.7,1.2c-0.1,0.1-0.1,0.2-0.1,0.3l1,1.5l-0.8,0l-1-1.5
					c-0.2-0.3-0.1-0.6,0.1-0.7c0.1-0.1,0.8-0.3,0.8-0.8c0-0.5-0.3-0.7-0.6-0.7h-0.4C192.3,369.1,192.3,369.2,192.3,369.3
					L192.3,369.3z M190.2,368.9c-0.1-0.4-0.4-0.4-0.5-0.4c-0.2,0-0.4,0-0.5,0.4l-1.1,3.9h0.7l0.3-1.1h1.3l0.3,1.1h0.7L190.2,368.9
					L190.2,368.9z M189.2,371.1l0.5-1.7l0.5,1.7H189.2z M185.3,368.9c-0.1-0.4-0.4-0.4-0.5-0.4c-0.2,0-0.4,0-0.5,0.4l-1.1,3.9h0.7
					l0.3-1.1h1.3l0.3,1.1h0.7L185.3,368.9L185.3,368.9z M184.3,371.1l0.5-1.7l0.5,1.7H184.3z M197.1,368.8c-0.2-0.4-0.7-0.5-1-0.3
					s-0.5,0.7-0.3,1s0.7,0.5,1,0.3c0.2-0.1,0.4-0.4,0.4-0.6C197.2,369.1,197.2,368.9,197.1,368.8z M197,369.5
					c-0.1,0.2-0.3,0.3-0.5,0.3c-0.3,0-0.6-0.3-0.6-0.6c0-0.2,0.1-0.4,0.3-0.6c0.3-0.2,0.7-0.1,0.9,0.2
					C197.1,369.1,197.1,369.3,197,369.5z"/>
				<path class="st23" d="M196.7,369.4c0-0.1-0.1-0.1-0.1-0.1c0.1,0,0.2-0.1,0.2-0.3c0,0,0-0.1,0-0.1c0,0,0-0.1-0.1-0.1
					c-0.1,0-0.1,0-0.2,0h-0.3v0.9h0.1v-0.4h0.1c0,0,0,0,0.1,0.1l0,0.1l0.1,0.2h0.2L196.7,369.4z M196.4,369.2h-0.1v-0.3h0.1
					c0.1,0,0.1,0,0.1,0c0,0,0,0,0,0.1c0,0,0,0,0,0.1c0,0,0,0.1,0,0.1C196.6,369.1,196.5,369.2,196.4,369.2z"/>
			</g>
		</g>
		<g>
			<path class="st24" d="M247.7,94.3H127.2c-0.2,0-0.3-0.1-0.3-0.3l0,0v-8.1c0-0.2,0.1-0.3,0.3-0.3h120.6c0.2,0,0.3,0.1,0.3,0.3V94
				C248,94.1,247.9,94.3,247.7,94.3L247.7,94.3z"/>
			<path class="st25" d="M128.8,87.2h0.8v1.7h-0.8V87.2z M128.8,90.9h0.8v1.7h-0.8V90.9z M246.1,88.9h-0.8v-1.7h0.8V88.9z
				 M246.1,92.6h-0.8v-1.7h0.8V92.6z M214.2,85.6h2.4v1.1h-2.4V85.6z M214.2,93.2h2.4v1.1h-2.4V93.2z M131.5,87.2h0.9v0.9h-0.9V87.2
				z M131.5,91.8h0.9v0.9h-0.9V91.8z M133.3,87.2h0.9v0.9h-0.9V87.2z M133.3,91.8h0.9v0.9h-0.9V91.8z M135.1,87.2h0.9v0.9h-0.9V87.2
				z M135.1,91.8h0.9v0.9h-0.9V91.8z M136.9,87.2h0.9v0.9h-0.9V87.2z M136.9,91.8h0.9v0.9h-0.9V91.8z M138.7,87.2h0.9v0.9h-0.9V87.2
				z M138.7,91.8h0.9v0.9h-0.9V91.8z M140.5,87.2h0.9v0.9h-0.9V87.2z M140.5,91.8h0.9v0.9h-0.9V91.8z M142.3,87.2h0.9v0.9h-0.9V87.2
				z M142.3,91.8h0.9v0.9h-0.9V91.8z M144.1,87.2h0.9v0.9h-0.9V87.2z M144.1,91.8h0.9v0.9h-0.9V91.8z M145.9,87.2h0.9v0.9h-0.9V87.2
				z M145.9,91.8h0.9v0.9h-0.9V91.8z M147.7,87.2h0.9v0.9h-0.9V87.2z M147.7,91.8h0.9v0.9h-0.9V91.8z M149.5,87.2h0.9v0.9h-0.9V87.2
				z M149.5,91.8h0.9v0.9h-0.9V91.8z M151.3,87.2h0.9v0.9h-0.9V87.2z M151.3,91.8h0.9v0.9h-0.9V91.8z M153.1,87.2h0.9v0.9h-0.9V87.2
				z M153.1,91.8h0.9v0.9h-0.9V91.8z M154.9,87.2h0.9v0.9h-0.9V87.2z M154.9,91.8h0.9v0.9h-0.9V91.8z M156.7,87.2h0.9v0.9h-0.9V87.2
				z M156.7,91.8h0.9v0.9h-0.9V91.8z M158.5,87.2h0.9v0.9h-0.9V87.2z M158.5,91.8h0.9v0.9h-0.9V91.8z M160.3,87.2h0.9v0.9h-0.9V87.2
				z M160.3,91.8h0.9v0.9h-0.9V91.8z M162.1,87.2h0.9v0.9h-0.9V87.2z M162.1,91.8h0.9v0.9h-0.9V91.8z M163.9,87.2h0.9v0.9h-0.9V87.2
				z M163.9,91.8h0.9v0.9h-0.9V91.8z M165.7,87.2h0.9v0.9h-0.9V87.2z M165.7,91.8h0.9v0.9h-0.9V91.8z M167.5,87.2h0.9v0.9h-0.9V87.2
				z M167.5,91.8h0.9v0.9h-0.9V91.8z M169.3,87.2h0.9v0.9h-0.9V87.2z M169.3,91.8h0.9v0.9h-0.9V91.8z M171.1,87.2h0.9v0.9h-0.9V87.2
				z M171.1,91.8h0.9v0.9h-0.9V91.8z M172.9,87.2h0.9v0.9h-0.9V87.2z M172.9,91.8h0.9v0.9h-0.9V91.8z M174.7,87.2h0.9v0.9h-0.9V87.2
				z M174.7,91.8h0.9v0.9h-0.9V91.8z M176.5,87.2h0.9v0.9h-0.9V87.2z M176.5,91.8h0.9v0.9h-0.9V91.8z M178.3,87.2h0.9v0.9h-0.9V87.2
				z M178.3,91.8h0.9v0.9h-0.9V91.8z M180.1,87.2h0.9v0.9h-0.9V87.2z M180.1,91.8h0.9v0.9h-0.9V91.8z M181.9,87.2h0.9v0.9h-0.9V87.2
				z M181.9,91.8h0.9v0.9h-0.9V91.8z M183.7,87.2h0.9v0.9h-0.9V87.2z M183.7,91.8h0.9v0.9h-0.9V91.8z M185.5,87.2h0.9v0.9h-0.9V87.2
				z M185.5,91.8h0.9v0.9h-0.9V91.8z M187.3,87.2h0.9v0.9h-0.9V87.2z M187.3,91.8h0.9v0.9h-0.9V91.8z M189.1,87.2h0.9v0.9h-0.9V87.2
				z M189.1,91.8h0.9v0.9h-0.9V91.8z M190.9,87.2h0.9v0.9h-0.9V87.2z M190.9,91.8h0.9v0.9h-0.9V91.8z M192.7,87.2h0.9v0.9h-0.9V87.2
				z M192.7,91.8h0.9v0.9h-0.9V91.8z M194.5,87.2h0.9v0.9h-0.9V87.2z M194.5,91.8h0.9v0.9h-0.9V91.8z M196.3,87.2h0.9v0.9h-0.9V87.2
				z M196.3,91.8h0.9v0.9h-0.9V91.8z M198.1,87.2h0.9v0.9h-0.9V87.2z M198.1,91.8h0.9v0.9h-0.9V91.8z M199.9,87.2h0.9v0.9h-0.9V87.2
				z M199.9,91.8h0.9v0.9h-0.9V91.8z M201.7,87.2h0.9v0.9h-0.9V87.2z M201.7,91.8h0.9v0.9h-0.9V91.8z M203.5,87.2h0.9v0.9h-0.9V87.2
				z M203.5,91.8h0.9v0.9h-0.9V91.8z M205.3,87.2h0.9v0.9h-0.9V87.2z M205.3,91.8h0.9v0.9h-0.9V91.8z M207.1,87.2h0.9v0.9h-0.9V87.2
				z M207.1,91.8h0.9v0.9h-0.9V91.8z M208.9,87.2h0.9v0.9h-0.9V87.2z M208.9,91.8h0.9v0.9h-0.9V91.8z M210.7,87.2h0.9v0.9h-0.9V87.2
				z M210.7,91.8h0.9v0.9h-0.9V91.8z M212.5,87.2h0.9v0.9h-0.9V87.2z M212.5,91.8h0.9v0.9h-0.9V91.8z M130.5,88.9h0.9v2h-0.9V88.9z
				 M132.3,88.9h0.9v2h-0.9V88.9z M134.1,88.9h0.9v2h-0.9V88.9z M135.9,88.9h0.9v2h-0.9V88.9z M137.7,88.9h0.9v2h-0.9V88.9z
				 M139.5,88.9h0.9v2h-0.9V88.9z M141.3,88.9h0.9v2h-0.9V88.9z M143.1,88.9h0.9v2h-0.9V88.9z M144.9,88.9h0.9v2h-0.9V88.9z
				 M146.7,88.9h0.9v2h-0.9V88.9z M148.5,88.9h0.9v2h-0.9V88.9z M150.3,88.9h0.9v2h-0.9V88.9z M152.1,88.9h0.9v2h-0.9V88.9z
				 M153.9,88.9h0.9v2h-0.9V88.9z M155.7,88.9h0.9v2h-0.9V88.9z M157.5,88.9h0.9v2h-0.9V88.9z M159.3,88.9h0.9v2h-0.9V88.9z
				 M161.1,88.9h0.9v2h-0.9V88.9z M162.9,88.9h0.9v2h-0.9V88.9z M164.7,88.9h0.9v2h-0.9V88.9z M166.5,88.9h0.9v2h-0.9V88.9z
				 M168.3,88.9h0.9v2h-0.9V88.9z M170.1,88.9h0.9v2h-0.9V88.9z M171.9,88.9h0.9v2h-0.9V88.9z M173.7,88.9h0.9v2h-0.9V88.9z
				 M175.5,88.9h0.9v2h-0.9V88.9z M177.3,88.9h0.9v2h-0.9V88.9z M179.1,88.9h0.9v2h-0.9V88.9z M180.9,88.9h0.9v2h-0.9V88.9z
				 M182.7,88.9h0.9v2h-0.9V88.9z M184.5,88.9h0.9v2h-0.9V88.9z M186.3,88.9h0.9v2h-0.9V88.9z M188.1,88.9h0.9v2h-0.9V88.9z
				 M189.9,88.9h0.9v2h-0.9V88.9z M191.7,88.9h0.9v2h-0.9V88.9z M193.5,88.9h0.9v2h-0.9V88.9z M195.3,88.9h0.9v2h-0.9V88.9z
				 M197.1,88.9h0.9v2h-0.9V88.9z M198.9,88.9h0.9v2h-0.9V88.9z M200.7,88.9h0.9v2h-0.9V88.9z M202.5,88.9h0.9v2h-0.9V88.9z
				 M204.3,88.9h0.9v2h-0.9V88.9z M206.1,88.9h0.9v2h-0.9V88.9z M207.9,88.9h0.9v2h-0.9V88.9z M209.7,88.9h0.9v2h-0.9V88.9z
				 M211.5,88.9h0.9v2h-0.9V88.9z M213.3,88.9h0.9v2h-0.9V88.9z M243.5,88.1h-0.9v-0.9h0.9V88.1z M243.5,92.6h-0.9v-0.9h0.9V92.6z
				 M241.7,88.1h-0.9v-0.9h0.9V88.1z M241.7,92.6h-0.9v-0.9h0.9V92.6z M239.9,88.1H239v-0.9h0.9V88.1z M239.9,92.6H239v-0.9h0.9
				V92.6z M238.1,88.1h-0.9v-0.9h0.9V88.1z M238.1,92.6h-0.9v-0.9h0.9V92.6z M236.3,88.1h-0.9v-0.9h0.9V88.1z M236.3,92.6h-0.9v-0.9
				h0.9V92.6z M234.5,88.1h-0.9v-0.9h0.9V88.1z M234.5,92.6h-0.9v-0.9h0.9V92.6z M232.7,88.1h-0.9v-0.9h0.9V88.1z M232.7,92.6h-0.9
				v-0.9h0.9V92.6z M230.9,88.1H230v-0.9h0.9V88.1z M230.9,92.6H230v-0.9h0.9V92.6z M244.4,90.9h-0.9v-2h0.9V90.9z M242.6,90.9h-0.9
				v-2h0.9V90.9z M240.8,90.9h-0.9v-2h0.9V90.9z M239,90.9h-0.9v-2h0.9V90.9z M237.2,90.9h-0.9v-2h0.9V90.9z M235.4,90.9h-0.9v-2
				h0.9V90.9z M233.6,90.9h-0.9v-2h0.9V90.9z M231.8,90.9h-0.9v-2h0.9V90.9z M230,90.9h-0.9v-2h0.9V90.9z M229.1,88.1h-0.9v-0.9h0.9
				V88.1z M229.1,92.6h-0.9v-0.9h0.9V92.6z M228.2,90.9h-0.9v-2h0.9V90.9z M227.3,88.1h-0.9v-0.9h0.9V88.1z M227.3,92.6h-0.9v-0.9
				h0.9V92.6z M226.4,90.9h-0.9v-2h0.9V90.9z M225.5,88.1h-0.9v-0.9h0.9V88.1z M225.5,92.6h-0.9v-0.9h0.9V92.6z M224.6,90.9h-0.9v-2
				h0.9V90.9z M223.7,88.1h-0.9v-0.9h0.9V88.1z M223.7,92.6h-0.9v-0.9h0.9V92.6z M222.8,90.9h-0.9v-2h0.9V90.9z M221.9,88.1H221
				v-0.9h0.9V88.1z M221.9,92.6H221v-0.9h0.9V92.6z M221,90.9h-0.9v-2h0.9V90.9z M220.1,88.1h-0.9v-0.9h0.9V88.1z M220.1,92.6h-0.9
				v-0.9h0.9V92.6z M219.2,90.9h-0.9v-2h0.9V90.9z M218.3,88.1h-0.9v-0.9h0.9V88.1z M218.3,92.6h-0.9v-0.9h0.9V92.6z M217.4,90.9
				h-0.9v-2h0.9V90.9z"/>
		</g>
		<ellipse class="st14" cx="187.5" cy="217.5" rx="86.8" ry="86.8"/>
		<circle class="st26" cx="187.5" cy="217.5" r="85.8"/>
	</g>
</g>
</svg>
