<svg width="440" height="300" viewBox="0 0 440 300" fill="none" xmlns="http://www.w3.org/2000/svg">
<g clip-path="url(#clip0_2324_66)">
<path d="M323.457 131.32C315.761 117.99 320.328 100.945 333.658 93.2483L358.381 78.9747C371.711 71.2785 388.756 75.8458 396.453 89.1761L424.928 138.497C436.566 158.654 429.66 184.429 409.502 196.067C389.345 207.705 363.57 200.799 351.932 180.641L323.457 131.32Z" fill="white" stroke="#18181B"/>
<path d="M375.718 137.802L345.911 86.1738" stroke="#18181B" stroke-linecap="round"/>
<rect x="351.482" y="104.171" width="8.34661" height="30.2483" rx="4.1733" transform="rotate(-30 351.482 104.171)" fill="#18181B"/>
<path d="M38.2424 69.9801C31.8979 69.9801 26.7563 64.6765 26.7563 58.1318L26.6152 59.4352C25.97 65.4391 21.0503 69.9801 15.1963 69.9801H14L16.3389 70.2436C21.682 70.8537 25.9028 75.2075 26.4942 80.7192L26.7496 83.1318V81.8978C26.7496 75.8592 31.1518 70.7844 36.9722 70.1188L38.2424 69.9801Z" fill="white" stroke="#18181B" stroke-miterlimit="10" stroke-linecap="round" stroke-linejoin="round"/>
<path d="M412.505 258.361C406.354 258.361 401.369 253.219 401.369 246.873L401.232 248.137C400.606 253.958 395.836 258.361 390.16 258.361H389L391.268 258.617C396.448 259.208 400.541 263.43 401.114 268.774L401.362 271.113V269.917C401.362 264.062 405.63 259.141 411.274 258.496L412.505 258.361Z" fill="white" stroke="#18181B" stroke-miterlimit="10" stroke-linecap="round" stroke-linejoin="round"/>
<path d="M66.7205 22.9257C62.4696 22.9257 59.0248 19.3722 59.0248 14.9873L58.9302 15.8606C58.4979 19.8832 55.2017 22.9257 51.2796 22.9257H50.478L52.0451 23.1022C55.625 23.5109 58.4529 26.428 58.8492 30.1208L59.0203 31.7373V30.9105C59.0203 26.8647 61.9698 23.4645 65.8694 23.0186L66.7205 22.9257Z" fill="#18181B" stroke="#18181B" stroke-miterlimit="10" stroke-linecap="round" stroke-linejoin="round"/>
<path d="M345.69 239.982C341.439 239.982 337.994 236.429 337.994 232.044L337.899 232.917C337.467 236.94 334.171 239.982 330.249 239.982H329.447L331.014 240.159C334.594 240.568 337.422 243.485 337.818 247.177L337.99 248.794V247.967C337.99 243.921 340.939 240.521 344.839 240.075L345.69 239.982Z" fill="#18181B" stroke="#18181B" stroke-miterlimit="10" stroke-linecap="round" stroke-linejoin="round"/>
<rect x="26.5825" y="141.09" width="262.242" height="105.588" rx="2" transform="rotate(8.03386 26.5825 141.09)" stroke="#18181B" stroke-linejoin="round"/>
<rect x="33.6172" y="176.053" width="16.0673" height="16.0673" transform="rotate(8.03386 33.6172 176.053)" stroke="#18181B" stroke-linejoin="round"/>
<rect x="36.7266" y="154.024" width="16.0673" height="16.0673" transform="rotate(8.03386 36.7266 154.024)" stroke="#18181B" stroke-linejoin="round"/>
<rect x="30.5083" y="198.082" width="40.7862" height="16.0673" transform="rotate(8.03386 30.5083 198.082)" fill="white" stroke="#18181B" stroke-linejoin="round"/>
<rect x="27.3989" y="220.11" width="16.0673" height="16.0673" transform="rotate(8.03386 27.3989 220.11)" fill="#18181B" stroke="#18181B" stroke-linejoin="round"/>
<rect x="131.522" y="189.872" width="16.0673" height="16.0673" transform="rotate(8.03386 131.522 189.872)" fill="#18181B" stroke="#18181B" stroke-linejoin="round"/>
<rect x="134.632" y="167.843" width="16.0673" height="16.0673" transform="rotate(8.03386 134.632 167.843)" stroke="#18181B" stroke-linejoin="round"/>
<rect x="128.413" y="211.9" width="16.0673" height="16.0673" transform="rotate(8.03386 128.413 211.9)" stroke="#18181B" stroke-linejoin="round"/>
<rect x="82.5698" y="182.963" width="16.0673" height="16.0673" transform="rotate(8.03386 82.5698 182.963)" stroke="#18181B" stroke-linejoin="round"/>
<rect x="85.6792" y="160.934" width="16.0673" height="16.0673" transform="rotate(8.03386 85.6792 160.934)" fill="#18181B" stroke="#18181B" stroke-linejoin="round"/>
<rect x="79.4609" y="204.991" width="16.0673" height="16.0673" transform="rotate(8.03386 79.4609 204.991)" stroke="#18181B" stroke-linejoin="round"/>
<rect x="76.3516" y="227.02" width="90.2239" height="16.0673" transform="rotate(8.03386 76.3516 227.02)" fill="white" stroke="#18181B" stroke-linejoin="round"/>
<rect x="180.475" y="196.781" width="16.0673" height="16.0673" transform="rotate(8.03386 180.475 196.781)" stroke="#18181B" stroke-linejoin="round"/>
<rect x="183.584" y="174.753" width="16.0673" height="16.0673" transform="rotate(8.03386 183.584 174.753)" stroke="#18181B" stroke-linejoin="round"/>
<rect x="177.366" y="218.81" width="16.0673" height="16.0673" transform="rotate(8.03386 177.366 218.81)" stroke="#18181B" stroke-linejoin="round"/>
<rect x="174.257" y="240.839" width="16.0673" height="16.0673" transform="rotate(8.03386 174.257 240.839)" stroke="#18181B" stroke-linejoin="round"/>
<rect x="229.428" y="203.69" width="16.0673" height="16.0673" transform="rotate(8.03386 229.428 203.69)" stroke="#18181B" stroke-linejoin="round"/>
<rect x="232.537" y="181.662" width="16.0673" height="16.0673" transform="rotate(8.03386 232.537 181.662)" stroke="#18181B" stroke-linejoin="round"/>
<rect x="223.209" y="247.748" width="16.0673" height="16.3849" transform="rotate(8.03386 223.209 247.748)" stroke="#18181B" stroke-linejoin="round"/>
<rect x="58.0938" y="179.508" width="16.0673" height="16.0673" transform="rotate(8.03386 58.0938 179.508)" stroke="#18181B" stroke-linejoin="round"/>
<rect x="61.2026" y="157.479" width="16.0673" height="16.0673" transform="rotate(8.03386 61.2026 157.479)" stroke="#18181B" stroke-linejoin="round"/>
<rect x="51.875" y="223.565" width="16.0673" height="16.0673" transform="rotate(8.03386 51.875 223.565)" stroke="#18181B" stroke-linejoin="round"/>
<rect x="155.999" y="193.326" width="16.0673" height="16.0673" transform="rotate(8.03386 155.999 193.326)" stroke="#18181B" stroke-linejoin="round"/>
<rect x="159.108" y="171.298" width="16.0673" height="16.0673" transform="rotate(8.03386 159.108 171.298)" fill="white" stroke="#18181B" stroke-linejoin="round"/>
<rect x="152.89" y="215.355" width="16.0673" height="16.0673" transform="rotate(8.03386 152.89 215.355)" stroke="#18181B" stroke-linejoin="round"/>
<rect x="107.046" y="186.417" width="16.0673" height="16.0673" transform="rotate(8.03386 107.046 186.417)" stroke="#18181B" stroke-linejoin="round"/>
<rect x="110.155" y="164.389" width="16.0673" height="16.0673" transform="rotate(8.03386 110.155 164.389)" stroke="#18181B" stroke-linejoin="round"/>
<rect x="103.937" y="208.446" width="16.0673" height="16.0673" transform="rotate(8.03386 103.937 208.446)" stroke="#18181B" stroke-linejoin="round"/>
<rect x="204.951" y="200.236" width="16.0673" height="16.0673" transform="rotate(8.03386 204.951 200.236)" fill="white" stroke="#18181B" stroke-linejoin="round"/>
<rect x="201.842" y="222.265" width="16.0673" height="16.0673" transform="rotate(8.03386 201.842 222.265)" stroke="#18181B" stroke-linejoin="round"/>
<rect x="208.061" y="178.207" width="16.0673" height="16.0673" transform="rotate(8.03386 208.061 178.207)" stroke="#18181B" stroke-linejoin="round"/>
<rect x="198.712" y="244.439" width="16.0673" height="16.07" transform="rotate(8.03386 198.712 244.439)" stroke="#18181B" stroke-linejoin="round"/>
<rect x="253.904" y="207.146" width="16.0673" height="16.0673" transform="rotate(8.03386 253.904 207.146)" stroke="#18181B" stroke-linejoin="round"/>
<rect x="226.318" y="225.719" width="40.7862" height="16.0673" transform="rotate(8.03386 226.318 225.719)" fill="#18181B" stroke="#18181B" stroke-linejoin="round"/>
<rect x="257.013" y="185.116" width="16.0673" height="16.0673" transform="rotate(8.03386 257.013 185.116)" stroke="#18181B" stroke-linejoin="round"/>
<rect x="247.659" y="251.391" width="16.0673" height="16.07" transform="rotate(8.03386 247.659 251.391)" stroke="#18181B" stroke-linejoin="round"/>
<path fill-rule="evenodd" clip-rule="evenodd" d="M139.427 35.3388C138.657 31.8655 140.848 28.4257 144.322 27.6558L150.611 26.2618C154.06 25.4971 157.477 27.6536 158.277 31.0858C162.039 31.7253 165.513 33.2759 168.456 35.5023L205.424 27.3076C207.151 24.0464 209.644 21.1733 212.782 19.0044C212.057 15.5552 214.243 12.1566 217.692 11.3919L223.981 9.99787C227.455 9.22795 230.894 11.4195 231.664 14.8927C231.71 15.0994 231.745 15.306 231.771 15.5119C239.001 17.2836 245.216 22.4463 248.101 29.7871C253.946 44.6618 262.368 65.9592 270.183 85.2355C274.084 94.8545 268.433 105.711 258.299 107.957C251.671 109.427 244.813 106.732 240.958 101.144L227.937 82.2696C226.268 83.6793 224.242 84.7166 221.961 85.2223C216.293 86.4787 210.666 84.0951 207.521 79.6264L188.662 83.8068C187.7 89.186 183.607 93.7242 177.939 94.9806C175.659 95.4861 173.385 95.4024 171.277 94.8308L167.452 117.437C166.319 124.132 161.243 129.472 154.614 130.941C144.481 133.187 134.771 125.735 134.241 115.369C133.18 94.5959 131.812 71.7347 130.825 55.7833C130.337 47.9115 133.788 40.6063 139.592 35.9451C139.528 35.7478 139.473 35.5456 139.427 35.3388ZM181.368 81.0249C182.138 84.4982 179.946 87.9379 176.473 88.7078C173 89.4778 169.56 87.2863 168.79 83.813C168.02 80.3397 170.212 76.8999 173.685 76.13C177.158 75.3601 180.598 77.5516 181.368 81.0249ZM220.495 78.9497C223.968 78.1797 226.16 74.74 225.39 71.2667C224.62 67.7934 221.18 65.6019 217.707 66.3718C214.234 67.1417 212.042 70.5815 212.812 74.0548C213.582 77.528 217.022 79.7196 220.495 78.9497Z" fill="#18181B"/>
<path fill-rule="evenodd" clip-rule="evenodd" d="M151.111 43.7449C148.796 44.2582 147.335 46.5514 147.848 48.8669L148.777 53.0598L144.584 53.9893C142.269 54.5026 140.808 56.7958 141.321 59.1113C141.834 61.4268 144.127 62.8878 146.443 62.3745L150.636 61.445L151.566 65.6374C152.079 67.9529 154.372 69.4139 156.688 68.9006C159.003 68.3873 160.464 66.0941 159.951 63.7786L159.021 59.5863L163.213 58.6571C165.529 58.1438 166.99 55.8506 166.477 53.5351C165.963 51.2196 163.67 49.7586 161.355 50.2719L157.163 51.2011L156.233 47.0082C155.72 44.6927 153.427 43.2317 151.111 43.7449Z" fill="white"/>
<ellipse cx="223.317" cy="32.1373" rx="4.29438" ry="4.29439" transform="rotate(-12.4985 223.317 32.1373)" fill="white"/>
<ellipse cx="227.035" cy="48.9078" rx="4.29438" ry="4.29439" transform="rotate(-12.4985 227.035 48.9078)" fill="white"/>
<ellipse cx="233.559" cy="38.6646" rx="4.29437" ry="4.29439" transform="rotate(-12.4985 233.559 38.6646)" fill="white"/>
<ellipse cx="216.789" cy="42.3824" rx="4.29438" ry="4.29439" transform="rotate(-12.4985 216.789 42.3824)" fill="white"/>
</g>
<defs>
<clipPath id="clip0_2324_66">
<rect width="440" height="300" fill="white"/>
</clipPath>
</defs>
</svg>
